<svg xmlns="http://www.w3.org/2000/svg" width="85" height="85" viewBox="0 0 85 85">
  <g id="Grupo_1100875" data-name="Grupo 1100875" transform="translate(-705 -724)">
    <rect id="Rectángulo_402863" data-name="Rectángulo 402863" width="85" height="85" rx="10" transform="translate(705 724)" fill="#f4f4fe"/>
    <g id="Icon" transform="translate(716 735)">
      <path id="Trazado_911239" data-name="Trazado 911239" d="M55,31a1,1,0,0,0-.437-.826L47.709,25.5l6.855-4.674a1,1,0,0,0,0-1.652l-22-15a1,1,0,0,0-1.127,0l-22,15a1,1,0,0,0,0,1.652L16.291,25.5,9.436,30.174a1,1,0,0,0,0,1.652L17.758,37.5,9.436,43.174a1,1,0,0,0,0,1.652l22,15a1,1,0,0,0,1.127,0l22-15a1,1,0,0,0,0-1.652L46.242,37.5l8.322-5.674A1,1,0,0,0,55,31ZM32,6.21,52.225,20,32,33.789,11.775,20ZM52.225,44,32,57.789,11.775,44l7.758-5.29,11.9,8.116a1,1,0,0,0,1.127,0l11.9-8.116ZM32,44.789,20.076,36.66h0L11.775,31l6.292-4.29,13.37,9.116a1,1,0,0,0,1.127,0l13.37-9.116L52.225,31Z" fill="#9a9ef7"/>
    </g>
  </g>
</svg>
