<svg xmlns="http://www.w3.org/2000/svg" width="85" height="85" viewBox="0 0 85 85">
  <g id="Grupo_1101039" data-name="Grupo 1101039" transform="translate(-285 -724)">
    <rect id="Rectángulo_402860" data-name="Rectángulo 402860" width="85" height="85" rx="10" transform="translate(285 724)" fill="#f4f4fe"/>
    <path id="Trazado_917810" data-name="Trazado 917810" d="M58.691,16.7h0a29.691,29.691,0,0,0-41.989,0h0a29.694,29.694,0,0,0,0,41.989h0a29.691,29.691,0,0,0,41.989,0h0a29.694,29.694,0,0,0,0-41.989Zm6.761,20.037H56.825a19.085,19.085,0,0,0-4.933-11.887L58,18.742a27.557,27.557,0,0,1,7.453,17.993ZM44.424,43.07a8.582,8.582,0,0,0,1.834-4.419h8.648a17.173,17.173,0,0,1-4.37,10.531Zm4.758,7.466a17.173,17.173,0,0,1-10.531,4.37V46.258a8.582,8.582,0,0,0,4.419-1.834Zm-2.924-13.8a8.582,8.582,0,0,0-1.834-4.419L50.536,26.2a17.173,17.173,0,0,1,4.37,10.531Zm-7.608-26.8a27.569,27.569,0,0,1,17.994,7.453l-6.107,6.106A19.085,19.085,0,0,0,38.651,18.56Zm0,10.546a17.173,17.173,0,0,1,10.531,4.37L43.07,30.962a8.582,8.582,0,0,0-4.419-1.834ZM36.735,9.934V18.56a19.085,19.085,0,0,0-11.887,4.933l-6.107-6.106A27.569,27.569,0,0,1,36.735,9.934Zm-7.608,26.8H20.479A17.173,17.173,0,0,1,24.849,26.2l6.112,6.112a8.582,8.582,0,0,0-1.834,4.419Zm1.834,6.335-6.112,6.112a17.173,17.173,0,0,1-4.37-10.531h8.648a8.582,8.582,0,0,0,1.834,4.419ZM26.2,24.849a17.173,17.173,0,0,1,10.531-4.37v8.648a8.582,8.582,0,0,0-4.419,1.834Zm-8.817-6.107,6.106,6.106A19.085,19.085,0,0,0,18.56,36.735H9.934a27.557,27.557,0,0,1,7.453-17.993ZM9.934,38.651H18.56a19.085,19.085,0,0,0,4.933,11.887l-6.106,6.106A27.557,27.557,0,0,1,9.934,38.651Zm26.8,26.8A27.569,27.569,0,0,1,18.741,58l6.107-6.106a19.085,19.085,0,0,0,11.887,4.933Zm0-10.546A17.173,17.173,0,0,1,26.2,50.536l6.112-6.112a8.582,8.582,0,0,0,4.419,1.834ZM30.988,37.693a6.7,6.7,0,1,1,6.7,6.7,6.7,6.7,0,0,1-6.7-6.7Zm7.663,27.759V56.825a19.085,19.085,0,0,0,11.887-4.933L56.645,58a27.569,27.569,0,0,1-17.994,7.453ZM58,56.643l-6.106-6.106a19.085,19.085,0,0,0,4.933-11.887h8.626A27.557,27.557,0,0,1,58,56.643Z" transform="translate(289.807 728.807)" fill="#9a9ef7"/>
  </g>
</svg>
