<svg xmlns="http://www.w3.org/2000/svg" width="85" height="85" viewBox="0 0 85 85">
  <g id="Grupo_1101040" data-name="Grupo 1101040" transform="translate(-390 -724)">
    <rect id="Rectángulo_402862" data-name="Rectángulo 402862" width="85" height="85" rx="10" transform="translate(390 724)" fill="#f4f4fe"/>
    <g id="Grupo_1101035" data-name="Grupo 1101035" transform="translate(411.428 736.808)">
      <path id="Trazado_917801" data-name="Trazado 917801" d="M121.187,8H80.958A.958.958,0,0,0,80,8.958v57.47a.958.958,0,0,0,.958.958h32.566a.959.959,0,0,0,.678-.28l7.663-7.663a.959.959,0,0,0,.28-.678V8.958A.958.958,0,0,0,121.187,8Zm-6.7,56.116V59.723h4.393Zm5.747-6.309h-6.7a.958.958,0,0,0-.958.958v6.7H81.916V42.482h38.313Zm0-17.241H81.916V9.916h38.313Z" transform="translate(-80 -8)" fill="#9a9ef7"/>
      <path id="Trazado_917802" data-name="Trazado 917802" d="M195.443,340.149l-3.831-11.494A.958.958,0,0,0,190.7,328h-1.916a.958.958,0,0,0-.909.655l-3.831,11.494a.958.958,0,1,0,1.817.606l1.378-4.134h5l1.378,4.134a.958.958,0,0,0,1.818-.606ZM187.88,334.7l1.6-4.789h.534l1.6,4.789Z" transform="translate(-171.546 -289.687)" fill="#9a9ef7"/>
      <path id="Trazado_917803" data-name="Trazado 917803" d="M299.831,340.452a.958.958,0,0,1-.958.958h-1.916a.958.958,0,1,1,0-1.916v-9.578a.958.958,0,1,1,0-1.916h1.916a.958.958,0,0,1,0,1.916v9.578A.958.958,0,0,1,299.831,340.452Z" transform="translate(-270.139 -289.687)" fill="#9a9ef7"/>
      <path id="Trazado_917804" data-name="Trazado 917804" d="M145.524,88h-3.831a.958.958,0,0,0-.958.958v.958h-8.62v-.958a.958.958,0,0,0-.958-.958h-3.831a.958.958,0,0,0-.958.958v.958h-8.62v-.958a.958.958,0,0,0-.958-.958h-3.831a.958.958,0,0,0-.958.958v3.831a.958.958,0,0,0,.958.958h3.831a.958.958,0,0,0,.958-.958v-.958h3.839a9.577,9.577,0,0,0-3.791,6.7h-1.006a.958.958,0,0,0-.958.958v3.831a.958.958,0,0,0,.958.958h3.831a.958.958,0,0,0,.958-.958V99.494a.958.958,0,0,0-.958-.958h-.9a7.675,7.675,0,0,1,6.643-6.643v.9a.958.958,0,0,0,.958.958h3.831a.958.958,0,0,0,.958-.958v-.9a7.675,7.675,0,0,1,6.643,6.643h-.9a.958.958,0,0,0-.958.958v3.831a.958.958,0,0,0,.958.958h3.831a.958.958,0,0,0,.958-.958V99.494a.958.958,0,0,0-.958-.958h-1.006a9.576,9.576,0,0,0-3.791-6.7h3.839v.958a.958.958,0,0,0,.958.958h3.831a.958.958,0,0,0,.958-.958V88.958A.958.958,0,0,0,145.524,88Zm-29.693,3.831h-1.916V89.916h1.916Zm3.831,10.536h-1.916v-1.916h1.916ZM130.2,91.831h-1.916V89.916H130.2Zm8.62,8.62h1.916v1.916h-1.916Zm5.747-8.62h-1.916V89.916h1.916Z" transform="translate(-108.169 -78.422)" fill="#9a9ef7"/>
    </g>
  </g>
</svg>
