<svg xmlns="http://www.w3.org/2000/svg" width="85" height="85" viewBox="0 0 85 85">
  <g id="Grupo_1101041" data-name="Grupo 1101041" transform="translate(-495 -724)">
    <rect id="Rectángulo_402861" data-name="Rectángulo 402861" width="85" height="85" rx="10" transform="translate(495 724)" fill="#f4f4fe"/>
    <g id="Grupo_1101036" data-name="Grupo 1101036" transform="translate(513.554 736.807)">
      <path id="Trazado_917808" data-name="Trazado 917808" d="M231.663,280.958A.958.958,0,0,0,230.7,280h-5.747a.958.958,0,0,0,0,1.916H230.7A.958.958,0,0,0,231.663,280.958Z" transform="translate(-203.886 -247.434)" fill="#9a9ef7"/>
      <path id="Trazado_917809" data-name="Trazado 917809" d="M96.875,55.736,86.651,52.327V48.345a13.42,13.42,0,0,0,6.7-11.61h.479a3.356,3.356,0,0,0,3.352-3.352V30.509a3.356,3.356,0,0,0-3.352-3.352h-.479V21.41a13.41,13.41,0,0,0-26.819,0v5.747h-.479A3.356,3.356,0,0,0,62.7,30.509v2.873a3.356,3.356,0,0,0,3.352,3.352h.479a13.325,13.325,0,0,0,3.927,9.483,13.53,13.53,0,0,0,2.778,2.136v3.974L63.016,55.736A10.248,10.248,0,0,0,56,65.47v.958a.958.958,0,0,0,.958.958h45.976a.958.958,0,0,0,.958-.958V65.47a10.248,10.248,0,0,0-7.016-9.734Zm-3.52-26.664h.479a1.438,1.438,0,0,1,1.437,1.437v2.873a1.438,1.438,0,0,1-1.437,1.437h-.479ZM66.536,34.819h-.479a1.438,1.438,0,0,1-1.437-1.437V30.509a1.438,1.438,0,0,1,1.437-1.437h.479Zm1.916-13.41a11.494,11.494,0,0,1,22.988,0v.7A6.7,6.7,0,0,1,88.4,24,15.105,15.105,0,0,0,86.49,19.92a.958.958,0,0,0-1.564-.043c-.591.789-2.627,2.35-9.609,3.947-2.79.638-5.443,1.066-6.865,1.274Zm0,5.625c1.372-.2,4.246-.645,7.277-1.339,4.794-1.1,8.013-2.316,9.769-3.707a8.179,8.179,0,0,1,1.153,3.252.958.958,0,0,0,1.19.929,13.218,13.218,0,0,0,3.6-1.521V30.03h-.958V28.114a.958.958,0,0,0-.958-.958H81.861a.958.958,0,0,0-.958.958V30.03H78.988V28.114a.958.958,0,0,0-.958-.958H70.367a.958.958,0,0,0-.958.958V30.03h-.958Zm20.114,2.038v4.31a.479.479,0,0,1-.479.479H83.3a.479.479,0,0,1-.479-.479v-4.31Zm-11.494,0v4.31a.479.479,0,0,1-.479.479H71.8a.479.479,0,0,1-.479-.479v-4.31Zm-5.254,15.79a11.42,11.42,0,0,1-3.367-8.127V31.946h.958v1.437A2.4,2.4,0,0,0,71.8,35.777h4.789a2.4,2.4,0,0,0,2.395-2.395V31.946H80.9v1.437A2.4,2.4,0,0,0,83.3,35.777h4.789a2.4,2.4,0,0,0,2.395-2.395V31.946h.958v4.789a11.494,11.494,0,0,1-19.621,8.127Zm12.916,4.4v3.355c-3.259,3.094-6.319,3.094-9.578,0V49.267a13.455,13.455,0,0,0,9.578-.007Zm9.578,16.21H88.566v-.958h5.747Zm1.916,0V63.554a.958.958,0,0,0-.958-.958H87.608a.958.958,0,0,0-.958.958V65.47H57.916a8.333,8.333,0,0,1,5.706-7.916l10.33-3.443a8.878,8.878,0,0,0,5.994,2.737,8.878,8.878,0,0,0,5.994-2.737l10.33,3.443a8.333,8.333,0,0,1,5.706,7.916Z" transform="translate(-56 -8)" fill="#9a9ef7"/>
    </g>
  </g>
</svg>
