<svg xmlns="http://www.w3.org/2000/svg" width="85" height="85" viewBox="0 0 85 85">
  <g id="Grupo_1101042" data-name="Grupo 1101042" transform="translate(-600 -724)">
    <rect id="Rectángulo_402864" data-name="Rectángulo 402864" width="85" height="85" rx="10" transform="translate(600 724)" fill="#f4f4fe"/>
    <g id="Grupo_1101037" data-name="Grupo 1101037" transform="translate(612.807 740.638)">
      <path id="Trazado_917806" data-name="Trazado 917806" d="M145.573,115.777a9.517,9.517,0,0,0,4.789-1.289,9.574,9.574,0,1,0,9.57-16.584c0-.108.008-.217.008-.326a9.578,9.578,0,0,0-19.157,0c0,.109,0,.218.008.326a9.575,9.575,0,0,0,4.781,17.873Zm17.241-9.578a7.659,7.659,0,0,1-10.732,7.019,9.552,9.552,0,0,0,3.07-7.019c0-.109,0-.218-.008-.326a9.614,9.614,0,0,0,4.49-5.884A7.656,7.656,0,0,1,162.814,106.2Zm-15.305.524a9.6,9.6,0,0,0,5.707,0,7.653,7.653,0,0,1-2.854,5.452,7.654,7.654,0,0,1-2.854-5.452Zm2.854-6.5a7.668,7.668,0,0,1,2.732,4.512,7.639,7.639,0,0,1-5.463,0A7.668,7.668,0,0,1,150.362,100.223Zm-4.481,3.565a7.675,7.675,0,0,1-3.039-4.747,7.639,7.639,0,0,1,5.8.139A9.586,9.586,0,0,0,145.881,103.788Zm6.2-4.608a7.639,7.639,0,0,1,5.8-.139,7.675,7.675,0,0,1-3.039,4.747,9.586,9.586,0,0,0-2.762-4.608Zm-1.719-9.264A7.671,7.671,0,0,1,158,97.055a9.562,9.562,0,0,0-7.643.854,9.562,9.562,0,0,0-7.643-.854A7.671,7.671,0,0,1,150.362,89.916Zm-9.271,10.073a9.614,9.614,0,0,0,4.49,5.884c0,.108-.008.217-.008.326a9.552,9.552,0,0,0,3.07,7.019,7.659,7.659,0,0,1-7.551-13.228Z" transform="translate(-120.669 -82.253)" fill="#9a9ef7"/>
      <path id="Trazado_917807" data-name="Trazado 917807" d="M64.033,40H11.352A3.356,3.356,0,0,0,8,43.352V80.708a3.356,3.356,0,0,0,3.352,3.352h17.72v2.873H25.241a.958.958,0,0,0-.958.958v1.916H18.536a.958.958,0,0,0,0,1.916H56.849a.958.958,0,0,0,0-1.916H51.1V87.892a.958.958,0,0,0-.958-.958H46.313V84.06h17.72a3.356,3.356,0,0,0,3.352-3.352V43.352A3.356,3.356,0,0,0,64.033,40ZM49.187,88.849v.958H26.2v-.958Zm-18.2-1.916V84.06H44.4v2.873ZM65.47,80.708a1.438,1.438,0,0,1-1.437,1.437H11.352a1.438,1.438,0,0,1-1.437-1.437V79.271H65.47Zm0-3.352H9.916v-34a1.438,1.438,0,0,1,1.437-1.437H64.033a1.438,1.438,0,0,1,1.437,1.437Z" transform="translate(-8 -40)" fill="#9a9ef7"/>
    </g>
  </g>
</svg>
