<svg xmlns="http://www.w3.org/2000/svg" xmlns:xlink="http://www.w3.org/1999/xlink" width="400" height="277.567" viewBox="0 0 400 277.567">
  <defs>
    <clipPath id="clip-path">
      <rect id="Rectángulo_401768" data-name="Rectángulo 401768" width="387.547" height="275.45" fill="none"/>
    </clipPath>
    <clipPath id="clip-path-2">
      <path id="Trazado_877559" data-name="Trazado 877559" d="M178.83,433.365l10.513,18.542h53.6V433.365Z" transform="translate(-178.83 -433.365)" fill="none"/>
    </clipPath>
    <linearGradient id="linear-gradient" x1="-1.711" y1="9.727" x2="-1.701" y2="9.727" gradientUnits="objectBoundingBox">
      <stop offset="0" stop-color="#237c8f"/>
      <stop offset="1" stop-color="#2abdd1"/>
    </linearGradient>
    <clipPath id="clip-path-4">
      <path id="Trazado_877600" data-name="Trazado 877600" d="M208.091,433.365v18.542h64.117l-7.78-18.542Z" transform="translate(-208.091 -433.365)" fill="none"/>
    </clipPath>
    <linearGradient id="linear-gradient-2" x1="-1.991" y1="9.727" x2="-1.981" y2="9.727" gradientUnits="objectBoundingBox">
      <stop offset="0" stop-color="#d2d1cd"/>
      <stop offset="1" stop-color="#abafb8"/>
    </linearGradient>
    <clipPath id="clip-path-6">
      <path id="Trazado_877644" data-name="Trazado 877644" d="M506.229,327.375a1.371,1.371,0,0,0-.91-1.482l.914-8.7h.129c-.036.952-.017,5.82,3.793,8.149a27,27,0,0,1-3.983,9.83c-.077.124-.159.248-.242.372H501.7c-.056-.124-.113-.248-.164-.372a23,23,0,0,1-1.911-9.83c4.295-2.329,5.337-7.2,5.5-8.149h.134l-.914,8.7a1.783,1.783,0,0,0-1.227,1.482,1.374,1.374,0,0,0,1.393,1.551,1.769,1.769,0,0,0,1.715-1.551m-.3-10.525-.978,9.305.126.029a1.068,1.068,0,0,1,.811,1.191,1.389,1.389,0,0,1-1.343,1.219,1.08,1.08,0,0,1-1.091-1.219,1.394,1.394,0,0,1,1.062-1.191l.132-.029.978-9.305h-.788l-.022.164a.993.993,0,0,1-.023.119c-.131.823-1.119,5.7-5.4,7.966l-.09.05-.01.1a23.053,23.053,0,0,0,1.868,9.919c.088.2.174.412.272.62l.04.089h4.615l.06-.089c.14-.209.271-.416.4-.62a26.8,26.8,0,0,0,3.953-9.919l.01-.1-.079-.05c-3.807-2.265-3.77-7.144-3.729-7.966a.985.985,0,0,1,0-.119l.013-.164Z" transform="translate(-499.269 -316.85)" fill="none"/>
    </clipPath>
    <linearGradient id="linear-gradient-3" x1="-19.49" y1="13.236" x2="-19.451" y2="13.236" xlink:href="#linear-gradient-2"/>
  </defs>
  <g id="Grupo_1100887" data-name="Grupo 1100887" transform="translate(10313 12053.862)">
    <g id="Grupo_1099957" data-name="Grupo 1099957" transform="translate(-10313 -12053.862)">
      <g id="Grupo_1099956" data-name="Grupo 1099956" transform="translate(0 0)" clip-path="url(#clip-path)">
        <path id="Trazado_877550" data-name="Trazado 877550" d="M77.454,509.459h-8.24S46.537,505.875,51.79,462.11a15.032,15.032,0,0,1,9.739-12.34,208.654,208.654,0,0,1,70.214-11.8s.328.031.865.129A206.485,206.485,0,0,0,69.769,449.77a15.019,15.019,0,0,0-9.739,12.34c-5.253,43.765,17.424,47.349,17.424,47.349" transform="translate(-19.719 -247.709)" fill="#f3dacb"/>
        <path id="Trazado_877551" data-name="Trazado 877551" d="M187.532,460.1C180.6,480.9,173.5,498.469,173.5,498.469s-3.376,10.99-17.068,10.99H148.2c13.691,0,17.077-10.99,17.077-10.99s7.1-17.574,14.019-38.364c5.968-17.9-5.748-21.387-9.1-22q3.618-.134,7.377-.129s16.9,1.351,9.968,22.131" transform="translate(-57.299 -247.709)" fill="#ede3dd"/>
        <path id="Trazado_877552" data-name="Trazado 877552" d="M81.9,509.82c-.965-.151-23.6-4.245-18.285-48.481a15.976,15.976,0,0,1,10.407-13.185,209.855,209.855,0,0,1,70.568-11.863l.081,0c.275.023,6.777.6,10.354,6.009,2.8,4.225,2.967,10.107.51,17.481-6.859,20.579-13.978,38.246-14.018,38.339-.036.118-3.768,11.711-18.052,11.711H81.982Zm-7.173-59.733a13.923,13.923,0,0,0-9.069,11.5c-4.922,40.982,15.2,45.919,16.5,46.193h41.307c12.728,0,15.955-9.842,16.116-10.341.07-.176,7.166-17.788,14-38.3,2.243-6.733,2.155-12.008-.264-15.679-2.888-4.385-8.3-5.056-8.781-5.107a207.69,207.69,0,0,0-69.814,11.74" transform="translate(-24.285 -247.058)" fill="#fff"/>
        <path id="Trazado_877553" data-name="Trazado 877553" d="M539.062,433.365H474.945l10.512,18.543h53.605Z" transform="translate(-183.636 -245.927)" fill="#82b59b"/>
        <path id="Trazado_877554" data-name="Trazado 877554" d="M449.145,616.716l52.911-171.955-8.8-2.482L441.006,616.716Z" transform="translate(-170.514 -249.373)" fill="#f3dacb"/>
        <path id="Trazado_877555" data-name="Trazado 877555" d="M449.1,616.818h-9.083l.174-.583L492.57,441.371l9.672,2.729-.136.443Zm-7.865-.905h7.2L501.1,444.72l-7.922-2.236Z" transform="translate(-170.13 -249.022)" fill="#3b1e1c"/>
        <path id="Trazado_877556" data-name="Trazado 877556" d="M631.819,616.716,579.566,442.279l-8.8,2.482L623.68,616.716Z" transform="translate(-220.686 -249.373)" fill="#f3dacb"/>
        <path id="Trazado_877557" data-name="Trazado 877557" d="M632.069,616.818h-9.083l-.1-.319L569.841,444.1l9.673-2.729Zm-8.413-.905h7.2L578.9,442.484l-7.921,2.236Z" transform="translate(-220.328 -249.022)" fill="#3b1e1c"/>
        <path id="Trazado_877558" data-name="Trazado 877558" d="M504.2,451.908h64.117l-7.777-18.543H504.2Z" transform="translate(-194.948 -245.927)" fill="#95504f"/>
      </g>
    </g>
    <g id="Grupo_1099959" data-name="Grupo 1099959" transform="translate(-10203.314 -11866.425)">
      <g id="Grupo_1099958" data-name="Grupo 1099958" transform="translate(0 0)" clip-path="url(#clip-path-2)">
        <rect id="Rectángulo_401769" data-name="Rectángulo 401769" width="64.117" height="18.542" transform="translate(0 0)" fill="url(#linear-gradient)"/>
      </g>
    </g>
    <g id="Grupo_1099961" data-name="Grupo 1099961" transform="translate(-10313 -12053.862)">
      <g id="Grupo_1099960" data-name="Grupo 1099960" transform="translate(0 0)" clip-path="url(#clip-path)">
        <path id="Trazado_877560" data-name="Trazado 877560" d="M157.889,616.716l50.075-171.955-8.795-2.482L150.121,616.716Z" transform="translate(-58.044 -249.373)" fill="#f3dacb"/>
        <path id="Trazado_877561" data-name="Trazado 877561" d="M157.851,616.816h-8.707l49.334-175.449,9.67,2.729-.127.439Zm-7.509-.905h6.83l49.851-171.19-7.918-2.236Z" transform="translate(-57.666 -249.021)" fill="#3b1e1c"/>
        <path id="Trazado_877562" data-name="Trazado 877562" d="M332.5,616.716,283.451,442.279l-8.8,2.482L324.73,616.716Z" transform="translate(-106.195 -249.373)" fill="#e6e6e6"/>
        <path id="Trazado_877563" data-name="Trazado 877563" d="M332.744,616.816h-8.707l-.1-.326L273.74,444.1l9.67-2.729.123.437Zm-8.029-.905h6.832L282.783,442.485l-7.918,2.236Z" transform="translate(-105.841 -249.021)" fill="#3b1e1c"/>
        <rect id="Rectángulo_401770" data-name="Rectángulo 401770" width="60.265" height="113.578" transform="translate(138.147 253.713)" fill="#f3dacb"/>
        <path id="Trazado_877564" data-name="Trazado 877564" d="M285.6,655.1H224.8V540.986h60.8Zm-60.265-.532h59.734V541.518H225.332Z" transform="translate(-86.918 -287.538)" fill="#3b1e1c"/>
        <path id="Trazado_877565" data-name="Trazado 877565" d="M285.635,655.133h-61V540.816h61Zm-60.266-.739h59.526V541.555H225.369Z" transform="translate(-86.853 -287.473)" fill="#3b1e1c"/>
        <rect id="Rectángulo_401771" data-name="Rectángulo 401771" width="25.714" height="113.578" transform="translate(112.889 253.713)" fill="#3b1e1c"/>
        <path id="Trazado_877566" data-name="Trazado 877566" d="M233.935,560.576a1.722,1.722,0,1,1,1.722-1.722,1.724,1.724,0,0,1-1.722,1.722m0-2.439a.717.717,0,1,0,.717.717.717.717,0,0,0-.717-.717" transform="translate(-89.785 -293.781)" fill="#3b1e1c"/>
        <path id="Trazado_877567" data-name="Trazado 877567" d="M243.769,560.576a1.722,1.722,0,1,1,1.722-1.722,1.725,1.725,0,0,1-1.722,1.722m0-2.439a.717.717,0,1,0,.717.717.718.718,0,0,0-.717-.717" transform="translate(-93.587 -293.781)" fill="#3b1e1c"/>
        <path id="Trazado_877568" data-name="Trazado 877568" d="M253.6,560.576a1.722,1.722,0,1,1,1.722-1.722,1.724,1.724,0,0,1-1.722,1.722m0-2.439a.717.717,0,1,0,.717.717.718.718,0,0,0-.717-.717" transform="translate(-97.39 -293.781)" fill="#3b1e1c"/>
        <path id="Trazado_877569" data-name="Trazado 877569" d="M263.44,560.576a1.722,1.722,0,1,1,1.722-1.722,1.724,1.724,0,0,1-1.722,1.722m0-2.439a.717.717,0,1,0,.716.717.718.718,0,0,0-.716-.717" transform="translate(-101.193 -293.781)" fill="#3b1e1c"/>
        <path id="Trazado_877570" data-name="Trazado 877570" d="M273.275,560.576A1.722,1.722,0,1,1,275,558.853a1.724,1.724,0,0,1-1.722,1.722m0-2.439a.717.717,0,1,0,.716.717.718.718,0,0,0-.716-.717" transform="translate(-104.995 -293.781)" fill="#3b1e1c"/>
        <path id="Trazado_877571" data-name="Trazado 877571" d="M283.109,560.576a1.722,1.722,0,1,1,1.722-1.722,1.724,1.724,0,0,1-1.722,1.722m0-2.439a.717.717,0,1,0,.716.717.718.718,0,0,0-.716-.717" transform="translate(-108.798 -293.781)" fill="#3b1e1c"/>
        <path id="Trazado_877572" data-name="Trazado 877572" d="M292.942,560.576a1.722,1.722,0,1,1,1.723-1.722,1.725,1.725,0,0,1-1.723,1.722m0-2.439a.717.717,0,1,0,.717.717.717.717,0,0,0-.717-.717" transform="translate(-112.599 -293.781)" fill="#3b1e1c"/>
        <path id="Trazado_877573" data-name="Trazado 877573" d="M302.777,560.576a1.722,1.722,0,1,1,1.722-1.722,1.725,1.725,0,0,1-1.722,1.722m0-2.439a.717.717,0,1,0,.717.717.717.717,0,0,0-.717-.717" transform="translate(-116.402 -293.781)" fill="#3b1e1c"/>
        <path id="Trazado_877574" data-name="Trazado 877574" d="M312.612,560.576a1.722,1.722,0,1,1,1.722-1.722,1.725,1.725,0,0,1-1.722,1.722m0-2.439a.717.717,0,1,0,.717.717.717.717,0,0,0-.717-.717" transform="translate(-120.205 -293.781)" fill="#3b1e1c"/>
        <path id="Trazado_877575" data-name="Trazado 877575" d="M238.853,567.691a1.722,1.722,0,1,1,1.722-1.722,1.724,1.724,0,0,1-1.722,1.722m0-2.439a.717.717,0,1,0,.715.717.719.719,0,0,0-.715-.717" transform="translate(-91.686 -296.532)" fill="#3b1e1c"/>
        <path id="Trazado_877576" data-name="Trazado 877576" d="M248.687,567.691a1.722,1.722,0,1,1,1.722-1.722,1.725,1.725,0,0,1-1.722,1.722m0-2.439a.717.717,0,1,0,.716.717.717.717,0,0,0-.716-.717" transform="translate(-95.488 -296.532)" fill="#3b1e1c"/>
        <path id="Trazado_877577" data-name="Trazado 877577" d="M258.521,567.691a1.722,1.722,0,1,1,1.722-1.722,1.725,1.725,0,0,1-1.722,1.722m0-2.439a.717.717,0,1,0,.717.717.717.717,0,0,0-.717-.717" transform="translate(-99.291 -296.532)" fill="#3b1e1c"/>
        <path id="Trazado_877578" data-name="Trazado 877578" d="M268.356,567.691a1.722,1.722,0,1,1,1.722-1.722,1.725,1.725,0,0,1-1.722,1.722m0-2.439a.717.717,0,1,0,.717.717.716.716,0,0,0-.717-.717" transform="translate(-103.093 -296.532)" fill="#3b1e1c"/>
        <path id="Trazado_877579" data-name="Trazado 877579" d="M278.191,567.691a1.722,1.722,0,1,1,1.722-1.722,1.725,1.725,0,0,1-1.722,1.722m0-2.439a.717.717,0,1,0,.717.717.717.717,0,0,0-.717-.717" transform="translate(-106.896 -296.532)" fill="#3b1e1c"/>
        <path id="Trazado_877580" data-name="Trazado 877580" d="M288.026,567.691a1.722,1.722,0,1,1,1.722-1.722,1.725,1.725,0,0,1-1.722,1.722m0-2.439a.717.717,0,1,0,.717.717.718.718,0,0,0-.717-.717" transform="translate(-110.699 -296.532)" fill="#3b1e1c"/>
        <path id="Trazado_877581" data-name="Trazado 877581" d="M297.861,567.691a1.722,1.722,0,1,1,1.722-1.722,1.725,1.725,0,0,1-1.722,1.722m0-2.439a.717.717,0,1,0,.717.717.717.717,0,0,0-.717-.717" transform="translate(-114.501 -296.532)" fill="#3b1e1c"/>
        <path id="Trazado_877582" data-name="Trazado 877582" d="M307.7,567.691a1.722,1.722,0,1,1,1.722-1.722,1.724,1.724,0,0,1-1.722,1.722m0-2.439a.717.717,0,1,0,.716.717.717.717,0,0,0-.716-.717" transform="translate(-118.304 -296.532)" fill="#3b1e1c"/>
        <path id="Trazado_877583" data-name="Trazado 877583" d="M233.935,575.013a1.722,1.722,0,1,1,1.722-1.722,1.723,1.723,0,0,1-1.722,1.722m0-2.438a.717.717,0,1,0,.717.716.716.716,0,0,0-.717-.716" transform="translate(-89.785 -299.363)" fill="#3b1e1c"/>
        <path id="Trazado_877584" data-name="Trazado 877584" d="M243.769,575.013a1.722,1.722,0,1,1,1.722-1.722,1.724,1.724,0,0,1-1.722,1.722m0-2.438a.717.717,0,1,0,.717.716.717.717,0,0,0-.717-.716" transform="translate(-93.587 -299.363)" fill="#3b1e1c"/>
        <path id="Trazado_877585" data-name="Trazado 877585" d="M253.6,575.013a1.722,1.722,0,1,1,1.722-1.722,1.723,1.723,0,0,1-1.722,1.722m0-2.438a.717.717,0,1,0,.717.716.717.717,0,0,0-.717-.716" transform="translate(-97.39 -299.363)" fill="#3b1e1c"/>
        <path id="Trazado_877586" data-name="Trazado 877586" d="M263.44,575.013a1.722,1.722,0,1,1,1.722-1.722,1.723,1.723,0,0,1-1.722,1.722m0-2.438a.717.717,0,1,0,.716.716.717.717,0,0,0-.716-.716" transform="translate(-101.193 -299.363)" fill="#3b1e1c"/>
        <path id="Trazado_877587" data-name="Trazado 877587" d="M273.275,575.013A1.722,1.722,0,1,1,275,573.291a1.723,1.723,0,0,1-1.722,1.722m0-2.438a.717.717,0,1,0,.716.716.717.717,0,0,0-.716-.716" transform="translate(-104.995 -299.363)" fill="#3b1e1c"/>
        <path id="Trazado_877588" data-name="Trazado 877588" d="M283.109,575.013a1.722,1.722,0,1,1,1.722-1.722,1.723,1.723,0,0,1-1.722,1.722m0-2.438a.717.717,0,1,0,.716.716.717.717,0,0,0-.716-.716" transform="translate(-108.798 -299.363)" fill="#3b1e1c"/>
        <path id="Trazado_877589" data-name="Trazado 877589" d="M292.942,575.013a1.722,1.722,0,1,1,1.723-1.722,1.724,1.724,0,0,1-1.723,1.722m0-2.438a.717.717,0,1,0,.717.716.716.716,0,0,0-.717-.716" transform="translate(-112.599 -299.363)" fill="#3b1e1c"/>
        <path id="Trazado_877590" data-name="Trazado 877590" d="M302.777,575.013a1.722,1.722,0,1,1,1.722-1.722,1.724,1.724,0,0,1-1.722,1.722m0-2.438a.717.717,0,1,0,.717.716.716.716,0,0,0-.717-.716" transform="translate(-116.402 -299.363)" fill="#3b1e1c"/>
        <path id="Trazado_877591" data-name="Trazado 877591" d="M312.612,575.013a1.722,1.722,0,1,1,1.722-1.722,1.724,1.724,0,0,1-1.722,1.722m0-2.438a.717.717,0,1,0,.717.716.716.716,0,0,0-.717-.716" transform="translate(-120.205 -299.363)" fill="#3b1e1c"/>
        <path id="Trazado_877592" data-name="Trazado 877592" d="M238.853,582.129a1.722,1.722,0,1,1,1.722-1.722,1.725,1.725,0,0,1-1.722,1.722m0-2.439a.717.717,0,1,0,.715.717.718.718,0,0,0-.715-.717" transform="translate(-91.686 -302.114)" fill="#3b1e1c"/>
        <path id="Trazado_877593" data-name="Trazado 877593" d="M248.687,582.129a1.722,1.722,0,1,1,1.722-1.722,1.725,1.725,0,0,1-1.722,1.722m0-2.439a.717.717,0,1,0,.716.717.717.717,0,0,0-.716-.717" transform="translate(-95.488 -302.114)" fill="#3b1e1c"/>
        <path id="Trazado_877594" data-name="Trazado 877594" d="M258.521,582.129a1.722,1.722,0,1,1,1.722-1.722,1.725,1.725,0,0,1-1.722,1.722m0-2.439a.717.717,0,1,0,.717.717.717.717,0,0,0-.717-.717" transform="translate(-99.291 -302.114)" fill="#3b1e1c"/>
        <path id="Trazado_877595" data-name="Trazado 877595" d="M268.356,582.129a1.722,1.722,0,1,1,1.722-1.722,1.725,1.725,0,0,1-1.722,1.722m0-2.439a.717.717,0,1,0,.717.717.716.716,0,0,0-.717-.717" transform="translate(-103.093 -302.114)" fill="#3b1e1c"/>
        <path id="Trazado_877596" data-name="Trazado 877596" d="M278.191,582.129a1.722,1.722,0,1,1,1.722-1.722,1.725,1.725,0,0,1-1.722,1.722m0-2.439a.717.717,0,1,0,.717.717.717.717,0,0,0-.717-.717" transform="translate(-106.896 -302.114)" fill="#3b1e1c"/>
        <path id="Trazado_877597" data-name="Trazado 877597" d="M288.026,582.129a1.722,1.722,0,1,1,1.722-1.722,1.725,1.725,0,0,1-1.722,1.722m0-2.439a.717.717,0,1,0,.717.717.717.717,0,0,0-.717-.717" transform="translate(-110.699 -302.114)" fill="#3b1e1c"/>
        <path id="Trazado_877598" data-name="Trazado 877598" d="M297.861,582.129a1.722,1.722,0,1,1,1.722-1.722,1.725,1.725,0,0,1-1.722,1.722m0-2.439a.717.717,0,1,0,.717.717.717.717,0,0,0-.717-.717" transform="translate(-114.501 -302.114)" fill="#3b1e1c"/>
        <path id="Trazado_877599" data-name="Trazado 877599" d="M307.7,582.129a1.722,1.722,0,1,1,1.722-1.722,1.725,1.725,0,0,1-1.722,1.722m0-2.439a.717.717,0,1,0,.716.717.717.717,0,0,0-.716-.717" transform="translate(-118.304 -302.114)" fill="#3b1e1c"/>
      </g>
    </g>
    <g id="Grupo_1099963" data-name="Grupo 1099963" transform="translate(-10185.366 -11866.425)">
      <g id="Grupo_1099962" data-name="Grupo 1099962" transform="translate(0 0)" clip-path="url(#clip-path-4)">
        <rect id="Rectángulo_401773" data-name="Rectángulo 401773" width="64.117" height="18.542" transform="translate(0 0)" fill="url(#linear-gradient-2)"/>
      </g>
    </g>
    <g id="Grupo_1099965" data-name="Grupo 1099965" transform="translate(-10313 -12053.862)">
      <g id="Grupo_1099964" data-name="Grupo 1099964" transform="translate(0 0)" clip-path="url(#clip-path)">
        <rect id="Rectángulo_401774" data-name="Rectángulo 401774" width="279.131" height="7.222" transform="translate(96.463 182.091)" fill="#f3dacb"/>
        <path id="Trazado_877601" data-name="Trazado 877601" d="M186.9,307.271c.916,5.869,1.8,10.374,2.689,13.735l.007.028a4.18,4.18,0,0,0,3.343,3.048c1.279.221,2.752.427,4.236.609,3.18.378,6.392.625,7.815.656,7.488.146,15.274-3.533,21.084-13.236,5-8.359,16.9-64.617,18.895-74.211,2.483-4.29,7.648-18.818,5.5-20.623-2.817-2.362-11.291-5.865-11.99-3.4-.523,1.556-4.555,6.681-6.891,15.158-3.8,6.934-23.509,30.324-36.065,45.133a39.19,39.19,0,0,0-8.951,30.874q.158,1.1.331,2.226" transform="translate(-71.986 -160.738)" fill="#df8b72"/>
        <path id="Trazado_877602" data-name="Trazado 877602" d="M260.162,218.238s-6.446-5.156-6.145-10.605.167-7.718-1.216-10.821,4.8-3.655,6.89,4.464,6.1,13.888.47,16.962" transform="translate(-97.668 -153.649)" fill="#df8b72"/>
        <path id="Trazado_877603" data-name="Trazado 877603" d="M262.331,205.931a2.651,2.651,0,0,1-.1.976,2.329,2.329,0,0,1-.466.883,2.251,2.251,0,0,1-.375.341,2.192,2.192,0,0,1-.94.328,1.378,1.378,0,0,1-.247.006c-.082,0-.163,0-.244-.007.16-.038.321-.047.475-.092a2.545,2.545,0,0,0,.446-.155,2.341,2.341,0,0,0,.4-.228,2.254,2.254,0,0,0,.335-.318,2.687,2.687,0,0,0,.469-.8,4.356,4.356,0,0,0,.237-.93" transform="translate(-100.514 -157.99)" fill="#3b1e1c"/>
        <path id="Trazado_877604" data-name="Trazado 877604" d="M285.2,217.767H263.294l-2.3-36.782h26.517Z" transform="translate(-100.911 -148.345)" fill="#e8bb3b"/>
        <path id="Trazado_877605" data-name="Trazado 877605" d="M285.961,174.849H260.108a1.148,1.148,0,0,0-.916.456l-1.108,1.469a1.148,1.148,0,0,0,.916,1.839H287.07a1.148,1.148,0,0,0,.916-1.839l-1.109-1.469a1.146,1.146,0,0,0-.916-.456" transform="translate(-99.697 -145.972)" fill="#f3dacb"/>
        <path id="Trazado_877606" data-name="Trazado 877606" d="M288.039,208.526a5.924,5.924,0,1,1-5.924-5.924,5.923,5.923,0,0,1,5.924,5.924" transform="translate(-106.789 -156.703)" fill="#fff"/>
        <path id="Trazado_877607" data-name="Trazado 877607" d="M272.583,207.131a8.137,8.137,0,1,1,8.137,8.137,8.147,8.147,0,0,1-8.137-8.137m1.005,0A7.132,7.132,0,1,0,280.72,200a7.141,7.141,0,0,0-7.132,7.131" transform="translate(-105.394 -155.308)" fill="#312113"/>
        <path id="Trazado_877608" data-name="Trazado 877608" d="M461.864,383.486H435.9l-9.417-49.05A12.751,12.751,0,0,1,439,319.281h0a12.751,12.751,0,0,1,12.522,10.346Z" transform="translate(-164.807 -201.817)" fill="#fff"/>
        <path id="Trazado_877609" data-name="Trazado 877609" d="M425.868,334.268a13.131,13.131,0,1,1,25.791-4.951L462,383.175l.087.451H435.345Zm25.044-4.809a12.371,12.371,0,0,0-24.3,4.666l9.358,48.741h25.193Z" transform="translate(-164.569 -201.577)" fill="#3b1e1c"/>
        <path id="Trazado_877610" data-name="Trazado 877610" d="M436.607,373.6l1.04-.2-7.375-38.413a9.985,9.985,0,1,1,19.612-3.766l4.407,22.95,1.04-.2-4.407-22.95a11.044,11.044,0,0,0-21.692,4.166Z" transform="translate(-165.885 -202.892)" fill="#3b1e1c"/>
        <rect id="Rectángulo_401775" data-name="Rectángulo 401775" width="68.769" height="4.376" transform="translate(222.713 177.293)" fill="#fff"/>
        <path id="Trazado_877611" data-name="Trazado 877611" d="M362.489,416.205h69.53v5.136h-69.53Zm68.769.76H363.25v3.616h68.009Z" transform="translate(-140.155 -239.292)" fill="#3b1e1c"/>
        <rect id="Rectángulo_401776" data-name="Rectángulo 401776" width="56.405" height="1.06" transform="translate(222.713 176.763)" fill="#3b1e1c"/>
        <path id="Trazado_877612" data-name="Trazado 877612" d="M304.2,326.282h148.25a7.727,7.727,0,0,0,7.686-6.923l9.379-89.554a7.728,7.728,0,0,0-7.686-8.532H313.583A7.726,7.726,0,0,0,305.9,228.2l-9.379,89.554a7.727,7.727,0,0,0,7.685,8.532" transform="translate(-114.632 -163.923)" fill="#fff"/>
        <path id="Trazado_877613" data-name="Trazado 877613" d="M297.941,323.741a8.12,8.12,0,0,1-2.039-6.271l9.379-89.553a8.09,8.09,0,0,1,8.064-7.263h148.25a8.109,8.109,0,0,1,8.064,8.952l-9.379,89.553a8.09,8.09,0,0,1-8.064,7.264H303.966a8.121,8.121,0,0,1-6.025-2.682m15.4-102.327A7.331,7.331,0,0,0,306.037,228l-9.379,89.554a7.346,7.346,0,0,0,7.308,8.113h148.25a7.332,7.332,0,0,0,7.308-6.583l9.379-89.553a7.347,7.347,0,0,0-7.307-8.112Z" transform="translate(-114.393 -163.683)" fill="#3b1e1c"/>
        <path id="Trazado_877614" data-name="Trazado 877614" d="M459.4,317.588l8.994-85.871a4.093,4.093,0,0,0-4.071-4.52H316.076A4.085,4.085,0,0,0,312,230.865l-9.082,86.724Z" transform="translate(-117.124 -166.213)" fill="#f3dacb"/>
        <path id="Trazado_877615" data-name="Trazado 877615" d="M305.983,325.239h148.25c.166,0,.329-.009.492-.024l-.106-1.054a3.8,3.8,0,0,1-.386.018H305.983a3.846,3.846,0,0,1-3.825-4.246l9.381-89.553a3.835,3.835,0,0,1,3.823-3.446v-1.059a4.891,4.891,0,0,0-4.876,4.395L301.1,319.823a4.906,4.906,0,0,0,4.879,5.415" transform="translate(-116.411 -165.702)" fill="#3b1e1c"/>
        <path id="Trazado_877616" data-name="Trazado 877616" d="M476.92,317.1H415.177l.035-.336h61.744Z" transform="translate(-160.527 -200.844)" fill="#3b1e1c"/>
        <path id="Trazado_877617" data-name="Trazado 877617" d="M458.214,360.751h-.869l.061-.58h.29l.031-.29h.579Z" transform="translate(-176.831 -217.515)" fill="#3b1e1c"/>
        <path id="Trazado_877618" data-name="Trazado 877618" d="M407.722,360.356l-.061.58h1.17l.061-.58Zm2.345,0-.061.58h1.17l.061-.58Zm2.345,0-.061.58h1.17l.061-.58Zm2.344,0-.061.58h1.17l.061-.58Zm2.34,0-.061.58h1.175l.061-.58Zm2.35,0-.061.58h1.17l.061-.58Zm2.34,0-.061.58H422.9l.061-.58Zm2.344,0-.061.58h1.175l.061-.58Zm2.345,0-.061.58h1.175l.061-.58Zm2.345,0-.061.58h1.175l.061-.58Zm2.344,0-.061.58h1.17l.061-.58Zm2.345,0-.061.58h1.17l.061-.58Zm2.345,0-.061.58h1.17l.061-.58Z" transform="translate(-157.621 -217.698)" fill="#3b1e1c"/>
        <path id="Trazado_877619" data-name="Trazado 877619" d="M405.2,360.751h-.869l.091-.869H405l-.031.29h.289Z" transform="translate(-156.334 -217.515)" fill="#3b1e1c"/>
        <path id="Trazado_877620" data-name="Trazado 877620" d="M407.761,310.2l-.123,1.17h.58l.123-1.17Zm-.247,2.344-.123,1.17h.58l.123-1.17Zm-.247,2.345-.123,1.17h.58l.123-1.17Zm-.246,2.34L406.9,318.4h.58l.124-1.175Zm-.247,2.345-.123,1.175h.58l.123-1.175Zm-.247,2.344-.123,1.175h.58l.123-1.175Zm-.246,2.345-.124,1.175h.58l.123-1.175Zm-.247,2.345-.123,1.175h.58l.124-1.175Zm-.247,2.345-.123,1.17h.58l.123-1.17Zm-.246,2.344-.123,1.17H406l.123-1.17Zm-.247,2.345-.123,1.17h.58l.123-1.17Zm-.247,2.345-.123,1.17h.58l.123-1.17Zm-.246,2.339-.123,1.175h.58l.124-1.175Z" transform="translate(-156.469 -198.306)" fill="#3b1e1c"/>
        <path id="Trazado_877621" data-name="Trazado 877621" d="M410.485,307.739h-.579l.091-.868h.868l-.061.579h-.289Z" transform="translate(-158.489 -197.018)" fill="#3b1e1c"/>
        <path id="Trazado_877622" data-name="Trazado 877622" d="M413.344,306.869l-.061.58h1.17l.061-.58Zm2.345,0-.061.58h1.17l.061-.58Zm2.345,0-.061.58h1.17l.061-.58Zm2.344,0-.061.58h1.17l.061-.58Zm2.345,0-.061.58h1.17l.061-.58Zm2.345,0-.061.58h1.17l.061-.58Zm2.339,0-.061.58h1.175l.061-.58Zm2.345,0-.061.58h1.175l.061-.58Zm2.345,0-.061.58h1.175l.061-.58Zm2.345,0-.061.58h1.175l.061-.58Zm2.344,0-.061.58h1.17l.061-.58Zm2.345,0-.061.58h1.17l.061-.58Zm2.345,0-.061.58h1.17l.061-.58Z" transform="translate(-159.795 -197.018)" fill="#3b1e1c"/>
        <path id="Trazado_877623" data-name="Trazado 877623" d="M463.806,307.739h-.579l.031-.289h-.29l.061-.579h.869Z" transform="translate(-179.005 -197.018)" fill="#3b1e1c"/>
        <path id="Trazado_877624" data-name="Trazado 877624" d="M461.248,310.2l-.123,1.17h.58l.123-1.17ZM461,312.544l-.123,1.17h.58l.123-1.17Zm-.247,2.345-.123,1.17h.58l.123-1.17Zm-.246,2.34-.123,1.175h.58l.124-1.175Zm-.247,2.345-.123,1.175h.58l.123-1.175Zm-.246,2.344-.124,1.175h.58l.123-1.175Zm-.247,2.345-.124,1.175h.58l.123-1.175Zm-.247,2.345-.123,1.175h.58l.123-1.175Zm-.246,2.345-.123,1.17h.58l.123-1.17Zm-.247,2.344-.123,1.17h.58l.123-1.17Zm-.247,2.345-.123,1.17h.58l.123-1.17Zm-.247,2.345-.123,1.17h.58l.123-1.17Zm-.246,2.339-.123,1.175h.58l.123-1.175Z" transform="translate(-177.15 -198.306)" fill="#3b1e1c"/>
        <path id="Trazado_877625" data-name="Trazado 877625" d="M435.345,337.338,429.124,317.3l0-.015h-2.712l-.006.015-10.528,20.036h-1.557l-.058.556h5.061l.058-.556H416.9l3.205-6.305h6.549l1.746,6.305h-2.344l-.059.556h10.812l.058-.556Zm-14.875-6.945,3.912-7.648,2.071,7.648Z" transform="translate(-160.172 -201.046)" fill="#c34915"/>
        <path id="Trazado_877626" data-name="Trazado 877626" d="M402.792,361.249l.241-2.289h2.289l-.241,2.289Z" transform="translate(-155.739 -217.159)" fill="#fff"/>
        <path id="Trazado_877627" data-name="Trazado 877627" d="M402.767,358.69l-.276,2.623h2.623l.275-2.623Zm2.05,2.285h-1.953l.2-1.953h1.953Z" transform="translate(-155.622 -217.054)" fill="#3b1e1c"/>
        <path id="Trazado_877628" data-name="Trazado 877628" d="M405.6,334.507l.24-2.289h2.29l-.241,2.289Z" transform="translate(-156.825 -206.819)" fill="#fff"/>
        <path id="Trazado_877629" data-name="Trazado 877629" d="M405.578,331.947l-.276,2.623h2.622l.276-2.623Zm2.05,2.286h-1.953l.2-1.954h1.954Z" transform="translate(-156.709 -206.714)" fill="#3b1e1c"/>
        <path id="Trazado_877630" data-name="Trazado 877630" d="M408.414,307.765l.24-2.289h2.289l-.24,2.289Z" transform="translate(-157.912 -196.479)" fill="#fff"/>
        <path id="Trazado_877631" data-name="Trazado 877631" d="M408.388,305.205l-.275,2.622h2.622l.275-2.622Zm2.049,2.29h-1.953l.205-1.958h1.954Z" transform="translate(-157.796 -196.374)" fill="#3b1e1c"/>
        <path id="Trazado_877632" data-name="Trazado 877632" d="M456.277,361.249l.24-2.289h2.289l-.24,2.289Z" transform="translate(-176.418 -217.159)" fill="#fff"/>
        <path id="Trazado_877633" data-name="Trazado 877633" d="M456.253,358.69l-.276,2.623H458.6l.275-2.623Zm2.05,2.285h-1.958l.2-1.953h1.958Z" transform="translate(-176.302 -217.054)" fill="#3b1e1c"/>
        <path id="Trazado_877634" data-name="Trazado 877634" d="M459.088,334.507l.241-2.289h2.289l-.241,2.289Z" transform="translate(-177.505 -206.819)" fill="#fff"/>
        <path id="Trazado_877635" data-name="Trazado 877635" d="M459.064,331.947l-.276,2.623h2.623l.276-2.623Zm2.05,2.286h-1.958l.205-1.954h1.958Z" transform="translate(-177.389 -206.714)" fill="#3b1e1c"/>
        <path id="Trazado_877636" data-name="Trazado 877636" d="M461.9,307.765l.24-2.289h2.29l-.241,2.289Z" transform="translate(-178.592 -196.479)" fill="#fff"/>
        <path id="Trazado_877637" data-name="Trazado 877637" d="M461.875,305.205l-.275,2.622h2.622l.275-2.622Zm2.049,2.29h-1.958l.206-1.958h1.958Z" transform="translate(-178.477 -196.374)" fill="#3b1e1c"/>
        <path id="Trazado_877638" data-name="Trazado 877638" d="M435.157,307.765l.24-2.289h2.29l-.24,2.289Z" transform="translate(-168.252 -196.479)" fill="#fff"/>
        <path id="Trazado_877639" data-name="Trazado 877639" d="M435.132,305.205l-.277,2.622h2.623l.275-2.622Zm2.049,2.29h-1.958l.205-1.958h1.959Z" transform="translate(-168.136 -196.374)" fill="#3b1e1c"/>
        <path id="Trazado_877640" data-name="Trazado 877640" d="M429.535,361.249l.24-2.289h2.29l-.24,2.289Z" transform="translate(-166.079 -217.159)" fill="#fff"/>
        <path id="Trazado_877641" data-name="Trazado 877641" d="M429.51,358.69l-.276,2.623h2.623l.275-2.623Zm2.05,2.285H429.6l.2-1.953h1.958Z" transform="translate(-165.962 -217.054)" fill="#3b1e1c"/>
        <path id="Trazado_877642" data-name="Trazado 877642" d="M510.441,325.35a26.679,26.679,0,0,1-4.325,10.463h-4.423a22.82,22.82,0,0,1-2.125-10.463c4.808-2.54,5.524-8.224,5.524-8.224h.458l-.946,9a1.582,1.582,0,0,0-1.21,1.354,1.224,1.224,0,0,0,1.24,1.386,1.576,1.576,0,0,0,1.531-1.386,1.218,1.218,0,0,0-.926-1.354l.946-9h.458s-.479,5.684,3.8,8.224" transform="translate(-193.146 -200.983)" fill="#fff"/>
      </g>
    </g>
    <g id="Grupo_1099967" data-name="Grupo 1099967" transform="translate(-10006.772 -11937.889)">
      <g id="Grupo_1099966" data-name="Grupo 1099966" transform="translate(0 0)" clip-path="url(#clip-path-6)">
        <path id="Trazado_877643" data-name="Trazado 877643" d="M497.44,316.85h13.592l-2,19.026H495.441Z" transform="translate(-497.789 -316.85)" fill="url(#linear-gradient-3)"/>
      </g>
    </g>
    <g id="Grupo_1099969" data-name="Grupo 1099969" transform="translate(-10313 -12053.862)">
      <g id="Grupo_1099968" data-name="Grupo 1099968" transform="translate(0 0)" clip-path="url(#clip-path)">
        <path id="Trazado_877645" data-name="Trazado 877645" d="M507.484,349.464h-6.533l.289-2.75h6.533Z" transform="translate(-193.691 -212.424)" fill="#c34915"/>
        <path id="Trazado_877646" data-name="Trazado 877646" d="M362.646,341.946H329.51l4.471-42.538h24.6l7.68,8.105Z" transform="translate(-127.404 -194.133)" fill="#778aeb"/>
        <path id="Trazado_877647" data-name="Trazado 877647" d="M358.557,299.208H333.782l-4.5,42.784h33.386l3.638-34.61Zm7.492,8.283-3.6,34.253h-32.89L334,299.455h24.434l.044.05L366,307.437Z" transform="translate(-127.317 -194.056)" fill="#3b1e1c"/>
        <path id="Trazado_877648" data-name="Trazado 877648" d="M331.646,342.108l11.538-10.042,8.448,10.042Z" transform="translate(-128.23 -206.76)" fill="#fff"/>
        <path id="Trazado_877649" data-name="Trazado 877649" d="M351.591,341.957l-.137-.164-3.032-3.6-.106-.124-.1-.124-5.275-6.266-11.409,9.929-.137.12-.136.113-.322.283h20.8Zm-8.711-9.8,5.094,6.057.212.248,2.8,3.331H331.8Z" transform="translate(-127.956 -206.611)" fill="#778aeb"/>
        <path id="Trazado_877650" data-name="Trazado 877650" d="M353.592,338.522l14.1-15.731,6.267,9.133-.693,6.6Z" transform="translate(-136.716 -203.174)" fill="#fff"/>
        <path id="Trazado_877651" data-name="Trazado 877651" d="M373.869,331.644l-.215-.318-6.16-8.972L356.747,334.34l-.118.134-.123.134-3.207,3.579-.146.164-.151.169h20.19l.716-6.821Zm-.98,6.543H353.73l2.988-3.331.118-.134.118-.133,10.484-11.694,6.121,8.918Z" transform="translate(-136.487 -203.005)" fill="#778aeb"/>
        <path id="Trazado_877652" data-name="Trazado 877652" d="M376.376,299.408l7.68,8.105h-8.532Z" transform="translate(-145.195 -194.133)" fill="#fff"/>
        <path id="Trazado_877653" data-name="Trazado 877653" d="M384.079,307.284l-7.68-8.1a.157.157,0,0,0-.18-.029.1.1,0,0,0-.047.029.178.178,0,0,0-.068.125l-.852,8.1a.148.148,0,0,0,.151.169h8.531a.184.184,0,0,0,.13-.059.121.121,0,0,0,.035-.05.165.165,0,0,0-.02-.183m-8.477-.045.793-7.545,7.154,7.545Z" transform="translate(-145.09 -194.027)" fill="#3b1e1c"/>
        <path id="Trazado_877654" data-name="Trazado 877654" d="M485.452,351.259H411.586l.036-.335h73.867Z" transform="translate(-159.139 -214.051)" fill="#3b1e1c"/>
        <path id="Trazado_877655" data-name="Trazado 877655" d="M462.763,237.12H341.436l-3.1,29.542H459.658Z" transform="translate(-130.815 -170.049)" fill="#82b59b"/>
        <path id="Trazado_877656" data-name="Trazado 877656" d="M460,269.141l-26.479-9.792-24.992,8.186-42.341-15.341-26.6,8.248L338.3,272.68H459.625Z" transform="translate(-130.802 -175.878)" fill="#e8bb3b"/>
        <path id="Trazado_877657" data-name="Trazado 877657" d="M514.887,241.439H487.844a2.133,2.133,0,0,0-2.072,1.875,1.656,1.656,0,0,0,1.678,1.874h27.043a2.133,2.133,0,0,0,2.072-1.874,1.656,1.656,0,0,0-1.678-1.875" transform="translate(-187.819 -171.719)" fill="#fff"/>
        <path id="Trazado_877658" data-name="Trazado 877658" d="M489.694,245.155a.342.342,0,0,0-.334.3.265.265,0,0,0,.271.3.34.34,0,0,0,.329-.3.265.265,0,0,0-.266-.3" transform="translate(-189.209 -173.156)" fill="#e6e6e6"/>
        <path id="Trazado_877659" data-name="Trazado 877659" d="M494.328,245.155a.341.341,0,0,0-.329.3.264.264,0,0,0,.266.3.341.341,0,0,0,.334-.3.266.266,0,0,0-.271-.3" transform="translate(-191.003 -173.156)" fill="#e6e6e6"/>
        <path id="Trazado_877660" data-name="Trazado 877660" d="M498.967,245.155a.341.341,0,0,0-.329.3.264.264,0,0,0,.266.3.341.341,0,0,0,.334-.3.266.266,0,0,0-.271-.3" transform="translate(-192.797 -173.156)" fill="#e6e6e6"/>
        <path id="Trazado_877661" data-name="Trazado 877661" d="M531.219,242.9a.794.794,0,0,0-.772.694.618.618,0,0,0,.626.7.738.738,0,0,0,.42-.134.78.78,0,0,0,.216-.218.734.734,0,0,0,.131-.347.615.615,0,0,0-.621-.694M531.1,244a.361.361,0,0,1-.364-.407.463.463,0,0,1,.449-.4.355.355,0,0,1,.359.4.46.46,0,0,1-.444.407" transform="translate(-205.095 -172.284)" fill="#e6e6e6"/>
        <path id="Trazado_877662" data-name="Trazado 877662" d="M532,244.648l.554.619.229-.207-.554-.619Z" transform="translate(-205.695 -172.88)" fill="#e6e6e6"/>
        <path id="Trazado_877663" data-name="Trazado 877663" d="M466.251,252.916a5.156,5.156,0,0,1-5.007,4.531,4,4,0,0,1-4.054-4.531,5.155,5.155,0,0,1,5.007-4.531,4,4,0,0,1,4.054,4.531" transform="translate(-176.762 -174.405)" fill="#fff"/>
        <path id="Trazado_877664" data-name="Trazado 877664" d="M432.272,271.233l-1.111,0,.114-1.111,1.111,0Z" transform="translate(-166.707 -182.809)" fill="#fff"/>
        <path id="Trazado_877665" data-name="Trazado 877665" d="M362.3,271.233l-1.111,0,.114-1.111,1.111,0Z" transform="translate(-139.652 -182.809)" fill="#fff"/>
        <path id="Trazado_877666" data-name="Trazado 877666" d="M434.738,247.192l-1.111,0,.114-1.111,1.111,0Z" transform="translate(-167.661 -173.514)" fill="#fff"/>
        <path id="Trazado_877667" data-name="Trazado 877667" d="M399.782,247.192l-1.111,0,.114-1.111,1.111,0Z" transform="translate(-154.145 -173.514)" fill="#fff"/>
        <path id="Trazado_877668" data-name="Trazado 877668" d="M397.255,271.233l-1.111,0,.114-1.111,1.111,0Z" transform="translate(-153.168 -182.809)" fill="#fff"/>
        <path id="Trazado_877669" data-name="Trazado 877669" d="M363.552,259.011l-1.111,0,.114-1.111,1.111,0Z" transform="translate(-140.137 -178.084)" fill="#fff"/>
        <path id="Trazado_877670" data-name="Trazado 877670" d="M433.544,258.841l-1.111,0,.114-1.111,1.111,0Z" transform="translate(-167.199 -178.018)" fill="#fff"/>
        <path id="Trazado_877671" data-name="Trazado 877671" d="M364.765,247.192l-1.111,0,.114-1.111,1.111,0Z" transform="translate(-140.606 -173.514)" fill="#fff"/>
        <path id="Trazado_877672" data-name="Trazado 877672" d="M382.156,252.253h-.228l-2.474,0-.078.783-.039.377,2.444-.006-.638,6.216,1.369,0,.638-6.216,2.187,0h.258l.122-1.16Z" transform="translate(-146.67 -175.896)" fill="#fff"/>
        <path id="Trazado_877673" data-name="Trazado 877673" d="M394.49,257.883a2.968,2.968,0,0,0-.2-1.487,2.4,2.4,0,0,0-2.35-1.413,3.217,3.217,0,0,0-3.2,2.885,2.529,2.529,0,0,0,2.811,2.875,3.133,3.133,0,0,0,2.358-.922l-.62-.808a2.235,2.235,0,0,1-1.59.615,1.5,1.5,0,0,1-1.683-1.343l4.412-.01c.024-.129.05-.288.061-.391m-4.4-.471a1.764,1.764,0,0,1,1.74-1.373,1.346,1.346,0,0,1,1.453,1.363Z" transform="translate(-150.299 -176.956)" fill="#fff"/>
        <path id="Trazado_877674" data-name="Trazado 877674" d="M402.262,257.978l-.116-.174,2.387-2.756-1.423,0-1.567,1.849-1.189-1.844-1.468,0,1.457,2.215.359.551-2.487,2.86,1.453,0,1.653-1.954,1.248,1.948,1.482,0Z" transform="translate(-153.969 -176.981)" fill="#fff"/>
        <path id="Trazado_877675" data-name="Trazado 877675" d="M412.5,259.411l-.226-.779a1.316,1.316,0,0,1-.758.239c-.506,0-.753-.3-.695-.843l.276-2.677,1.508,0,.105-1.051-1.507,0,.13-1.289-1.314,0-.13,1.284-.932.006-.106,1.051h.927l-.279,2.707a2.162,2.162,0,0,0-.012.253c-.019,1.081.611,1.641,1.756,1.641a2.244,2.244,0,0,0,1.3-.386Z" transform="translate(-158.082 -176.194)" fill="#fff"/>
        <path id="Trazado_877676" data-name="Trazado 877676" d="M431.947,270.842h-.635a.187.187,0,0,1-.19-.212.241.241,0,0,1,.234-.212h.212l.022-.212a.241.241,0,0,1,.234-.212.187.187,0,0,1,.19.212Z" transform="translate(-166.692 -182.76)" fill="#fff"/>
        <path id="Trazado_877677" data-name="Trazado 877677" d="M366.291,270.687h-.843a.244.244,0,0,0-.235.213.189.189,0,0,0,.191.207h.843a.239.239,0,0,0,.235-.207.187.187,0,0,0-.191-.213m2.528,0h-.843a.241.241,0,0,0-.236.213.186.186,0,0,0,.191.207h.843a.238.238,0,0,0,.23-.207.186.186,0,0,0-.186-.213m2.523,0H370.5a.239.239,0,0,0-.231.213.184.184,0,0,0,.186.207h.843a.239.239,0,0,0,.235-.207.187.187,0,0,0-.191-.213m2.528,0h-.842a.245.245,0,0,0-.236.213.189.189,0,0,0,.192.207h.843a.24.24,0,0,0,.235-.207.187.187,0,0,0-.191-.213m2.528,0h-.843a.24.24,0,0,0-.235.213.185.185,0,0,0,.191.207h.843a.238.238,0,0,0,.23-.207.186.186,0,0,0-.186-.213m2.523,0h-.843a.24.24,0,0,0-.231.213.185.185,0,0,0,.186.207h.843a.239.239,0,0,0,.235-.207.187.187,0,0,0-.191-.213m2.528,0h-.843a.244.244,0,0,0-.236.213.188.188,0,0,0,.191.207h.843a.239.239,0,0,0,.235-.207.187.187,0,0,0-.191-.213m2.528,0h-.843a.24.24,0,0,0-.236.213.185.185,0,0,0,.191.207h.843a.239.239,0,0,0,.23-.207.186.186,0,0,0-.186-.213m2.523,0h-.843a.239.239,0,0,0-.23.213.184.184,0,0,0,.186.207h.843a.24.24,0,0,0,.236-.207.188.188,0,0,0-.191-.213m2.528,0h-.843a.245.245,0,0,0-.236.213.188.188,0,0,0,.191.207h.843a.239.239,0,0,0,.235-.207.187.187,0,0,0-.191-.213m2.528,0h-.843a.24.24,0,0,0-.236.213.185.185,0,0,0,.191.207h.843a.238.238,0,0,0,.23-.207.186.186,0,0,0-.186-.213m2.523,0h-.843a.239.239,0,0,0-.23.213.184.184,0,0,0,.186.207h.843a.24.24,0,0,0,.235-.207.187.187,0,0,0-.191-.213m2.528,0h-.843a.241.241,0,0,0-.236.213.186.186,0,0,0,.191.207h.843a.24.24,0,0,0,.236-.207.187.187,0,0,0-.191-.213m2.528,0h-.843a.241.241,0,0,0-.236.213.186.186,0,0,0,.191.207h.843a.238.238,0,0,0,.23-.207.186.186,0,0,0-.186-.213m2.523,0h-.843a.239.239,0,0,0-.231.213.184.184,0,0,0,.186.207h.843a.239.239,0,0,0,.235-.207.187.187,0,0,0-.191-.213m2.528,0h-.843a.24.24,0,0,0-.235.213.185.185,0,0,0,.191.207h.843a.238.238,0,0,0,.234-.207.186.186,0,0,0-.19-.213" transform="translate(-141.208 -183.028)" fill="#fff"/>
        <path id="Trazado_877678" data-name="Trazado 877678" d="M362.379,270.842h-.635l.067-.635a.241.241,0,0,1,.234-.212.187.187,0,0,1,.19.212l-.022.212h.212a.187.187,0,0,1,.19.212.241.241,0,0,1-.234.212" transform="translate(-139.867 -182.76)" fill="#fff"/>
        <path id="Trazado_877679" data-name="Trazado 877679" d="M363.484,250a.244.244,0,0,0-.236.213l-.086.818a.187.187,0,0,0,.191.213.241.241,0,0,0,.236-.213l.086-.818a.189.189,0,0,0-.191-.213m-.258,2.453a.241.241,0,0,0-.236.213l-.086.818a.19.19,0,0,0,.191.213.246.246,0,0,0,.236-.213l.086-.818a.187.187,0,0,0-.191-.213m-.258,2.454a.241.241,0,0,0-.236.213l-.086.818c0,.006,0,.015,0,.02a.182.182,0,0,0,.188.189.234.234,0,0,0,.228-.189.028.028,0,0,0,.007-.02l.086-.818a.187.187,0,0,0-.191-.213m-.258,2.453a.241.241,0,0,0-.235.213l-.086.813a.188.188,0,0,0,.191.213.241.241,0,0,0,.236-.213l.086-.813a.187.187,0,0,0-.191-.213m-.258,2.454a.239.239,0,0,0-.235.209l-.086.818a.187.187,0,0,0,.191.213.241.241,0,0,0,.236-.213l.086-.818a.186.186,0,0,0-.191-.209" transform="translate(-140.017 -175.028)" fill="#fff"/>
        <path id="Trazado_877680" data-name="Trazado 877680" d="M364.424,247.491a.187.187,0,0,1-.19-.212l.067-.635h.635a.187.187,0,0,1,.189.212.242.242,0,0,1-.234.212h-.212l-.023.212a.24.24,0,0,1-.234.212" transform="translate(-140.83 -173.732)" fill="#fff"/>
        <path id="Trazado_877681" data-name="Trazado 877681" d="M368.818,246.643h-.843a.244.244,0,0,0-.235.213.189.189,0,0,0,.191.213h.843a.241.241,0,0,0,.236-.213.187.187,0,0,0-.191-.213m2.529,0H370.5a.241.241,0,0,0-.236.213.187.187,0,0,0,.191.213h.843a.239.239,0,0,0,.231-.213.185.185,0,0,0-.185-.213m2.523,0h-.838a.241.241,0,0,0-.236.213.187.187,0,0,0,.191.213h.838a.24.24,0,0,0,.236-.213.187.187,0,0,0-.191-.213m2.528,0h-.843a.244.244,0,0,0-.236.213.189.189,0,0,0,.191.213h.843a.241.241,0,0,0,.236-.213.187.187,0,0,0-.191-.213m2.528,0h-.843a.24.24,0,0,0-.235.213.187.187,0,0,0,.191.213h.843a.24.24,0,0,0,.231-.213.186.186,0,0,0-.186-.213m2.523,0h-.838a.24.24,0,0,0-.235.213.186.186,0,0,0,.19.213h.838a.24.24,0,0,0,.236-.213.186.186,0,0,0-.191-.213m2.528,0h-.843a.244.244,0,0,0-.236.213.189.189,0,0,0,.191.213h.843a.24.24,0,0,0,.236-.213.187.187,0,0,0-.191-.213m2.528,0h-.843a.24.24,0,0,0-.236.213.187.187,0,0,0,.191.213h.843a.239.239,0,0,0,.231-.213.186.186,0,0,0-.186-.213m2.523,0h-.843a.239.239,0,0,0-.231.213.186.186,0,0,0,.186.213h.842a.24.24,0,0,0,.236-.213.187.187,0,0,0-.191-.213m2.528,0h-.843a.245.245,0,0,0-.236.213.19.19,0,0,0,.191.213h.843a.24.24,0,0,0,.236-.213.187.187,0,0,0-.19-.213m2.528,0h-.843a.239.239,0,0,0-.235.213.186.186,0,0,0,.19.213h.843a.239.239,0,0,0,.231-.213.186.186,0,0,0-.186-.213m2.523,0h-.843a.24.24,0,0,0-.231.213.186.186,0,0,0,.186.213h.843a.24.24,0,0,0,.236-.213.187.187,0,0,0-.191-.213m2.528,0h-.843a.244.244,0,0,0-.235.213.189.189,0,0,0,.191.213h.843a.24.24,0,0,0,.236-.213.187.187,0,0,0-.191-.213m2.528,0h-.843a.241.241,0,0,0-.236.213.187.187,0,0,0,.191.213h.843a.239.239,0,0,0,.231-.213.186.186,0,0,0-.185-.213m2.523,0h-.843a.238.238,0,0,0-.23.213.185.185,0,0,0,.185.213h.843a.24.24,0,0,0,.236-.213.187.187,0,0,0-.19-.213m2.528,0h-.843a.244.244,0,0,0-.236.213.189.189,0,0,0,.191.213h.843a.24.24,0,0,0,.236-.213.187.187,0,0,0-.191-.213" transform="translate(-142.185 -173.731)" fill="#fff"/>
        <path id="Trazado_877682" data-name="Trazado 877682" d="M434.218,247.491a.187.187,0,0,1-.189-.212l.023-.212h-.212a.187.187,0,0,1-.19-.212.241.241,0,0,1,.234-.212h.635l-.067.635a.241.241,0,0,1-.234.212" transform="translate(-167.669 -173.732)" fill="#fff"/>
        <path id="Trazado_877683" data-name="Trazado 877683" d="M433.517,250a.243.243,0,0,0-.231.213l-.086.818a.186.186,0,0,0,.186.213.24.24,0,0,0,.236-.213l.086-.818a.189.189,0,0,0-.191-.213m-.258,2.453a.24.24,0,0,0-.231.213l-.086.818a.189.189,0,0,0,.186.213.244.244,0,0,0,.236-.213l.086-.818a.186.186,0,0,0-.19-.213M433,254.9a.239.239,0,0,0-.231.213l-.086.818a.185.185,0,0,0,.186.209.24.24,0,0,0,.235-.209l.086-.818A.187.187,0,0,0,433,254.9m-.258,2.453a.239.239,0,0,0-.23.213l-.086.813a.187.187,0,0,0,.186.213.241.241,0,0,0,.236-.213l.086-.813a.188.188,0,0,0-.191-.213m-.258,2.454a.238.238,0,0,0-.23.209l-.086.818a.186.186,0,0,0,.186.213.241.241,0,0,0,.236-.213l.086-.818a.186.186,0,0,0-.191-.209" transform="translate(-167.097 -175.028)" fill="#fff"/>
        <path id="Trazado_877684" data-name="Trazado 877684" d="M387.1,273.251l.306,3.308.634-.923.337.607.616-.371-.337-.608,1.076-.155Z" transform="translate(-149.67 -184.019)" fill="#fff"/>
        <path id="Trazado_877685" data-name="Trazado 877685" d="M444.81,416.251s-2.415-13.1-13.64-13.1c-12.465,0-17.947,7.353-20.95,12.966Z" transform="translate(-158.611 -234.246)" fill="#3b1e1c"/>
        <path id="Trazado_877686" data-name="Trazado 877686" d="M224.971,504.5c-9.2,10.026-16.012,18.361-28.715,47.512-3.6,8.263-13.706,16.751-13.706,16.751,5.972-3,41.742,51.073,16.578,51.471,0,0,17.925,3.741,39.331-21.058s31.936-83.188,29.847-96.243S241.025,487,224.971,504.5" transform="translate(-70.583 -268.696)" fill="#778aeb"/>
        <path id="Trazado_877687" data-name="Trazado 877687" d="M278.756,502.932c-2.088-13.052-27.281-15.934-43.335,1.567a110.531,110.531,0,0,0-18.459,25.936c1.233.082,2.8.209,3.516.229a53.206,53.206,0,0,1,7.6.826,25.946,25.946,0,0,1,18.913,13.238c8.477,15.428-.4,34.261-10.462,46.383a89.51,89.51,0,0,1-18.46,16.3c1.3,7.277-.589,12.693-8.489,12.819,0,0,17.926,3.741,39.332-21.058s31.935-83.189,29.847-96.243" transform="translate(-81.032 -268.696)" fill="#3b1e1c"/>
        <path id="Trazado_877688" data-name="Trazado 877688" d="M341.662,504.5c-9.2,10.026-16.012,18.361-28.717,47.512-3.6,8.263-13.7,16.751-13.7,16.751,5.972-3,41.742,51.073,16.576,51.471,0,0,17.926,3.741,39.332-21.058S387.085,515.987,385,502.932,357.714,487,341.662,504.5" transform="translate(-115.701 -268.696)" fill="#778aeb"/>
        <path id="Trazado_877689" data-name="Trazado 877689" d="M178.238,509.855c11.7,3.932,33.007,1.882,55.1,1.882s65.138,2.867,77.936-2.886c9.119-4.1,30-17.946,15.437-37.776s-136.588-23.718-149.39-24.221-30.454,52.459.921,63" transform="translate(-62.117 -251.141)" fill="#778aeb"/>
        <path id="Trazado_877690" data-name="Trazado 877690" d="M155.658,226.585c-.009-.015-.021-.031-.03-.045-1.118-1.865,21.121,10.193,19.367,9.828l-1.462,10.864s-14.067,6.44-22.173-2.412Z" transform="translate(-58.523 -165.882)" fill="#df8b72"/>
        <path id="Trazado_877691" data-name="Trazado 877691" d="M158.848,259.241c18,6.33,29.495,20.493,39.386,61.432s22.628,45.074,25.974,56.453c0,0-41.364,22.267-62.174,60.28,0,0-70.456,5.585-66.1-51.644s-6.413-68.43-3.849-89.789,20.659-39.914,32.965-41.082c10.145-.962,19.907-.536,33.8,4.351" transform="translate(-35.448 -176.76)" fill="#82b59b"/>
        <path id="Trazado_877692" data-name="Trazado 877692" d="M252.252,323.518s19.683,22.306,25.694,29.655c16.334,6.479,43.928,15.149,47.212,16.054,3.64,1,5.648.753,11.17-4.519s6.777-3.764,13.554-1.757,8.786-1.882,11.923,5.523,8.652,8.835,8.534,10.417c-.2,2.641-7.718-.5-7.718-.5s0,4.2-2.761,4.331-1.505-3.326-2.761-5.962-7.593-5.4-9.1.062-8.032,6.338-8.032,6.338H264.6a7.549,7.549,0,0,1-2.766-.053c-11.762-2.482-32.77-16.722-45.185-33.749s16.921-43.52,35.6-25.837" transform="translate(-82.619 -201.195)" fill="#df8b72"/>
        <path id="Trazado_877693" data-name="Trazado 877693" d="M176.083,270.7c-5.726,3.756-11.063,10.27-6.05,26.148s24.587,40.973,43.189,57.1c0,0,33.372-16.607,30.721-40.024,0,0-28.582-31.887-39.546-40.321s-22-7.05-28.314-2.908" transform="translate(-64.971 -181.766)" fill="#82b59b"/>
        <path id="Trazado_877694" data-name="Trazado 877694" d="M216.972,358.54a20.515,20.515,0,0,0,4.386-.421l-.257-1.028a22.335,22.335,0,0,1-23.5-10.666l-.9.556c6.119,9.9,15.008,11.559,20.276,11.559" transform="translate(-76.052 -212.312)" fill="#3b1e1c"/>
        <path id="Trazado_877695" data-name="Trazado 877695" d="M216.207,377.45l.318-.149c.128-.061,12.8-6.123,21.732-16.791l-.813-.681c-8,9.551-19.053,15.355-21.056,16.359-2.94-2.694-29.415-27.344-40.191-50.394l-.959.45c11.451,24.494,40.414,50.709,40.707,50.973Z" transform="translate(-67.756 -204.335)" fill="#3b1e1c"/>
        <path id="Trazado_877696" data-name="Trazado 877696" d="M177.092,243.773s-11.772-2.092-17.517-16.992c0,0,.151-2.069.208-2.027,15.128,8.863,19.574,6.381,17.309,19.019" transform="translate(-61.699 -165.268)" fill="#3b1e1c"/>
        <path id="Trazado_877697" data-name="Trazado 877697" d="M180.735,222.017c-6.811.232-19.614-8.534-22.624-14.649-1.073-2.179-.927-8.09-.151-10.974,2.453-9.041,4.383-17.228,11.212-19.961,2.879-1.145,10.271-.56,12.98-.116,8.933,1.492,10.975,8.539,11.4,17.578.48,10.142-.809,27.712-12.818,28.122" transform="translate(-60.836 -146.327)" fill="#df8b72"/>
        <path id="Trazado_877698" data-name="Trazado 877698" d="M201.656,216.764c.638-.2,3.849-1.287,4.283-2.815a1.365,1.365,0,0,0-.326-1.314c-2.609-3.029-2.238-7.3-2.141-8.088a4.723,4.723,0,0,1,5.034-1.379l.289-.991a5.832,5.832,0,0,0-6.231,1.851l-.074.1-.02.124c-.035.216-.83,5.35,2.361,9.056.144.167.14.27.116.359-.209.731-2.272,1.693-3.6,2.114Z" transform="translate(-77.849 -156.435)" fill="#3b1e1c"/>
        <path id="Trazado_877699" data-name="Trazado 877699" d="M199.112,230.918a18.192,18.192,0,0,0,3.375-.668l-.316-.982c-.051.017-5.148,1.616-9.424-.024l-.37.964a14.722,14.722,0,0,0,6.734.71" transform="translate(-74.382 -167.004)" fill="#3b1e1c"/>
        <path id="Trazado_877700" data-name="Trazado 877700" d="M186.42,209.632a1.69,1.69,0,1,0,2.95-.908,11.319,11.319,0,0,1-2.95.908" transform="translate(-72.073 -159.07)" fill="#3b1e1c"/>
        <path id="Trazado_877701" data-name="Trazado 877701" d="M206.384,208.811a1.616,1.616,0,0,0-.016.262,1.692,1.692,0,0,0,3.38-.139,1.672,1.672,0,0,0-.415-1.03,11.344,11.344,0,0,1-2.95.907" transform="translate(-79.792 -158.753)" fill="#3b1e1c"/>
        <path id="Trazado_877702" data-name="Trazado 877702" d="M182.677,204.686c5.13-2.921,6.717-.772,6.732-.75l.859-.572c-.082-.125-2.067-3.012-8.1.425Z" transform="translate(-70.434 -156.513)" fill="#3b1e1c"/>
        <path id="Trazado_877703" data-name="Trazado 877703" d="M161.336,180.935,159.93,188.4a8.39,8.39,0,0,1-2.441-.028c-.312-7.568-6.567-5.9-6.567-5.9-6.067-8.588,1.3-23.482,7.951-23.2,0,0,4.952-9.121,19.107-5.7s13.12,12.122,13.12,12.122,3.973,1.466,3.7,8.195-4.549,13.976-4.549,13.976l-.223-5.895s-13.651-1.268-21.152-9.53c-1.519,7.529-7.536,8.5-7.536,8.5" transform="translate(-57.481 -137.447)" fill="#3b1e1c"/>
        <path id="Trazado_877704" data-name="Trazado 877704" d="M189.773,209.964a1.8,1.8,0,1,1-1.561-2.017,1.8,1.8,0,0,1,1.561,2.017" transform="translate(-71.986 -158.764)" fill="#3b1e1c"/>
        <path id="Trazado_877705" data-name="Trazado 877705" d="M209.79,208.731a1.8,1.8,0,1,1-1.561-2.017,1.8,1.8,0,0,1,1.561,2.017" transform="translate(-79.725 -158.287)" fill="#3b1e1c"/>
        <path id="Trazado_877706" data-name="Trazado 877706" d="M161.733,199.55,156.013,201l-18.628,4.929-.7.178-.878.224-.018,0-.11.029-.278-1.092-.092-.362-.007-.027.128-.033.007,0,1.368-.348.573-.145,18.217-4.824,5.763-1.465h0Z" transform="translate(-52.313 -154.95)" fill="#e8bb3b"/>
        <path id="Trazado_877707" data-name="Trazado 877707" d="M135.092,204.067l-.33-1.3,26.056-6.817.33,1.3Z" transform="translate(-52.106 -154.132)" fill="#dd9425"/>
        <path id="Trazado_877708" data-name="Trazado 877708" d="M134.572,202.023l-.353-1.389,26.057-6.817.353,1.389Z" transform="translate(-51.895 -153.306)" fill="#e8bb3b"/>
        <path id="Trazado_877709" data-name="Trazado 877709" d="M129.567,209.795l-.851-3.348a.362.362,0,0,1,.261-.439l1.72-.437a.362.362,0,0,1,.439.261l.851,3.349a.361.361,0,0,1-.261.439l-1.721.437a.361.361,0,0,1-.439-.261" transform="translate(-49.763 -157.846)" fill="#c24914"/>
        <path id="Trazado_877710" data-name="Trazado 877710" d="M134.239,209.179l-1.288.328a.218.218,0,0,1-.266-.158l-.018-.068-1.029-4.049-.017-.068a.218.218,0,0,1,.158-.266l1.288-.328a.218.218,0,0,1,.266.158l.007.028.333,1.31.02.079.31,1.219h0l.377,1.48.017.068a.22.22,0,0,1,.007.048.217.217,0,0,1-.164.217" transform="translate(-50.889 -157.462)" fill="#f3dacb"/>
        <path id="Trazado_877711" data-name="Trazado 877711" d="M177.74,197.906l-1.039-4.089,2,.564,1.669.47a.235.235,0,0,1,.1.394l-1.242,1.21Z" transform="translate(-68.321 -153.306)" fill="#f3dacb"/>
        <path id="Trazado_877712" data-name="Trazado 877712" d="M180.492,196.811l-.527-2.074,1.669.47a.235.235,0,0,1,.1.394Z" transform="translate(-69.583 -153.662)" fill="#3d1d1e"/>
        <path id="Trazado_877713" data-name="Trazado 877713" d="M158.573,206.572a6.369,6.369,0,1,1-6.625-6.1,6.369,6.369,0,0,1,6.625,6.1" transform="translate(-56.389 -155.877)" fill="#df8b72"/>
        <path id="Trazado_877714" data-name="Trazado 877714" d="M153.879,212.952a1.707,1.707,0,0,0,.949-.408c.789-.678.331-1.576,0-2.233-.405-.794-.491-1.107-.209-1.394a4.625,4.625,0,0,1,.573-.459c.57-.415,1.216-.885,1.263-1.619a1.749,1.749,0,0,0-.676-1.373,3.5,3.5,0,0,0-3.731-.626l.423.941a2.472,2.472,0,0,1,2.6.437c.236.223.361.42.352.556-.015.25-.472.583-.84.85a5.7,5.7,0,0,0-.7.57c-.851.865-.324,1.9.026,2.587.335.662.388.864.25.982-.651.556-1.947-.441-1.96-.451l-.648.8a3.49,3.49,0,0,0,2.33.838" transform="translate(-58.596 -157.458)" fill="#3b1e1c"/>
        <path id="Trazado_877715" data-name="Trazado 877715" d="M303.071,200.731c4.562,3.569-.953,7.166-.953,7.166,3.676,3.442-.134,6.426-.134,6.426a9.215,9.215,0,0,1-.043,3.854,4.2,4.2,0,0,1-6.143-1.716c-1.52-3.362,1.581-4.3,1.581-4.3-2.7-1.17-3.411-4.181-2.856-5.378.546-1.176,3.207-1.111,3.314-1.108A4.759,4.759,0,0,1,296,201.914c.006-2.418,2.934-3.008,3.08-3.039a4.265,4.265,0,0,1-3.588-4.562c-.3-2.121,3.4-4.932,7.712-.5s-.137,6.914-.137,6.914" transform="translate(-113.809 -152.396)" fill="#df8b72"/>
        <path id="Trazado_877716" data-name="Trazado 877716" d="M300.341,214.718a5.147,5.147,0,0,1,2.188.464,4.568,4.568,0,0,1,.97.583,3.547,3.547,0,0,1,.766.823,7.276,7.276,0,0,0-.876-.669,7.044,7.044,0,0,0-.959-.516,9.66,9.66,0,0,0-1.021-.391c-.35-.109-.7-.212-1.068-.293" transform="translate(-116.126 -161.387)" fill="#3b1e1c"/>
        <path id="Trazado_877717" data-name="Trazado 877717" d="M299.814,225.231a5.157,5.157,0,0,1,2.188.464,4.582,4.582,0,0,1,.97.583,3.6,3.6,0,0,1,.766.823,7.325,7.325,0,0,0-.876-.669,7.037,7.037,0,0,0-.959-.516,9.857,9.857,0,0,0-1.022-.391c-.35-.109-.7-.212-1.067-.293" transform="translate(-115.922 -165.452)" fill="#3b1e1c"/>
        <path id="Trazado_877718" data-name="Trazado 877718" d="M302.081,203.548a5.143,5.143,0,0,1,2.187.464,4.566,4.566,0,0,1,.97.583,3.545,3.545,0,0,1,.766.822,7.411,7.411,0,0,0-.876-.669,7,7,0,0,0-.959-.516,9.837,9.837,0,0,0-1.021-.391c-.35-.109-.7-.212-1.068-.293" transform="translate(-116.799 -157.068)" fill="#3b1e1c"/>
        <path id="Trazado_877719" data-name="Trazado 877719" d="M181.754,641.43h0c-2.217,0-4.013-1.081-4.013-2.415V549.964h8.028v89.052c0,1.333-1.8,2.415-4.014,2.415" transform="translate(-68.723 -291.01)" fill="#f3dacb"/>
        <rect id="Rectángulo_401778" data-name="Rectángulo 401778" width="1.028" height="87.113" transform="translate(114.923 259.979)" fill="#3b1e1c"/>
        <path id="Trazado_877720" data-name="Trazado 877720" d="M204.2,509.459h-8.24s-22.676-3.584-17.425-47.349a15.036,15.036,0,0,1,9.74-12.34,208.655,208.655,0,0,1,70.214-11.8s.328.031.864.129A206.477,206.477,0,0,0,196.51,449.77a15.021,15.021,0,0,0-9.739,12.34c-5.252,43.765,17.424,47.349,17.424,47.349" transform="translate(-68.723 -247.709)" fill="#f3dacb"/>
        <path id="Trazado_877721" data-name="Trazado 877721" d="M314.273,460.1c-6.93,20.79-14.03,38.364-14.03,38.364s-3.375,10.99-17.067,10.99h-8.24c13.691,0,17.076-10.99,17.076-10.99s7.1-17.574,14.019-38.364c5.968-17.9-5.748-21.387-9.1-22q3.618-.134,7.376-.129s16.9,1.351,9.968,22.131" transform="translate(-106.303 -247.709)" fill="#f3dacb"/>
        <path id="Trazado_877722" data-name="Trazado 877722" d="M208.646,509.82c-.966-.151-23.6-4.245-18.286-48.481a15.976,15.976,0,0,1,10.406-13.185,209.87,209.87,0,0,1,70.567-11.863l.083,0c.275.023,6.775.6,10.353,6.009,2.8,4.226,2.967,10.107.508,17.481-6.859,20.579-13.977,38.246-14.018,38.339-.036.118-3.768,11.711-18.052,11.711H208.725Zm-7.176-59.733a13.924,13.924,0,0,0-9.07,11.5c-4.922,40.982,15.2,45.919,16.5,46.193h41.306c12.728,0,15.955-9.842,16.116-10.341.071-.176,7.165-17.788,14-38.3,2.244-6.733,2.157-12.007-.261-15.679-2.891-4.385-8.3-5.056-8.783-5.107a207.707,207.707,0,0,0-69.814,11.74" transform="translate(-73.29 -247.058)" fill="#3b1e1c"/>
        <path id="Trazado_877723" data-name="Trazado 877723" d="M64.988,464.587h75.629c-3.415-.663-20.657-6.446-16.235-55.389,2.636-29.186-15.094-73.943-20.574-85.849H25.445c-.218,1.384.334,3.471,3.032,6.506C34.561,336.7,47.49,389.68,49.264,404.89c1.724,14.784-12.352,49.832,15.724,59.7" transform="translate(-9.822 -203.39)" fill="#c34915"/>
        <path id="Trazado_877724" data-name="Trazado 877724" d="M140.383,464.724H64.691l-.059-.021C43.447,457.259,46,435.231,47.858,419.147c.667-5.749,1.241-10.715.806-14.447-1.853-15.885-14.731-68.12-20.7-74.831-2.364-2.659-3.414-4.95-3.121-6.809l.049-.312h78.916l.1.215c6.6,14.336,23.161,57.74,20.606,86.037-4.386,48.541,12.506,54.327,15.937,54.993Zm-75.565-.738h73.218c-5.816-2.546-18.061-12.934-14.254-55.053,2.528-28-13.8-70.947-20.443-85.445H25.543c-.086,1.568.935,3.6,2.976,5.892,6.032,6.786,19.018,59.289,20.877,75.236.445,3.818-.134,8.821-.805,14.617-1.933,16.7-4.338,37.485,16.226,44.754" transform="translate(-9.588 -203.157)" fill="#3b1e1c"/>
        <path id="Trazado_877725" data-name="Trazado 877725" d="M64.577,464.778h75.716v-1.029H64.751c-20.43-7.238-18.032-27.947-16.106-44.59.672-5.8,1.251-10.818.8-14.652C47.8,390.38,34.913,336.362,28.538,329.19c-1.957-2.2-2.966-4.142-2.945-5.651H59.5v-1.029H24.682l-.069.434c-.3,1.9.761,4.234,3.155,6.929,5.952,6.695,18.808,58.878,20.658,74.751.435,3.716-.138,8.675-.8,14.415-1.866,16.131-4.424,38.224,16.869,45.708Z" transform="translate(-9.498 -203.066)" fill="#3b1e1c"/>
        <rect id="Rectángulo_401779" data-name="Rectángulo 401779" width="52.472" height="1.029" transform="translate(26.725 148.64)" fill="#3b1e1c"/>
        <rect id="Rectángulo_401780" data-name="Rectángulo 401780" width="52.472" height="1.029" transform="translate(29.703 158.568)" fill="#3b1e1c"/>
        <rect id="Rectángulo_401781" data-name="Rectángulo 401781" width="52.474" height="1.028" transform="translate(33.674 168.497)" fill="#3b1e1c"/>
      </g>
    </g>
    <rect id="Rectángulo_401798" data-name="Rectángulo 401798" width="377.486" height="2.115" transform="translate(-10290.486 -11778.411)" fill="#3b1e1c"/>
  </g>
</svg>
