<svg xmlns="http://www.w3.org/2000/svg" xmlns:xlink="http://www.w3.org/1999/xlink" width="295" height="255.722" viewBox="0 0 295 255.722">
  <defs>
    <clipPath id="clip-path">
      <rect id="Rectángulo_401833" data-name="Rectángulo 401833" width="295" height="254.008" fill="none"/>
    </clipPath>
  </defs>
  <g id="Grupo_1100878" data-name="Grupo 1100878" transform="translate(-31.784)">
    <rect id="Rectángulo_401800" data-name="Rectángulo 401800" width="4.425" height="36.499" transform="translate(234.493 12.102)" fill="#3b1e1c"/>
    <path id="Trazado_877820" data-name="Trazado 877820" d="M258.351,250.983l-13.625,37.965h2.211l13.625-37.965Z" transform="translate(-29.644 -34.94)" fill="#3b1e1c"/>
    <rect id="Rectángulo_401801" data-name="Rectángulo 401801" width="2.117" height="37.965" transform="translate(235.668 216.043)" fill="#3b1e1c"/>
    <path id="Trazado_877821" data-name="Trazado 877821" d="M276.856,250.983l13.625,37.965h2.214l-13.625-37.965Z" transform="translate(-34.117 -34.94)" fill="#3b1e1c"/>
    <path id="Trazado_877822" data-name="Trazado 877822" d="M256.906,250.983l-13.62,37.965h4.424l13.619-37.965Z" transform="translate(-29.443 -34.94)" fill="#3b1e1c"/>
    <rect id="Rectángulo_401802" data-name="Rectángulo 401802" width="4.424" height="37.965" transform="translate(234.513 216.043)" fill="#3b1e1c"/>
    <path id="Trazado_877823" data-name="Trazado 877823" d="M275.492,250.983l13.619,37.965h4.424l-13.622-37.965Z" transform="translate(-33.927 -34.94)" fill="#3b1e1c"/>
    <rect id="Rectángulo_401803" data-name="Rectángulo 401803" width="18.526" height="4.702" transform="translate(227.463 211.342)" fill="#3b1e1c"/>
    <rect id="Rectángulo_401804" data-name="Rectángulo 401804" width="16.59" height="4.7" transform="translate(228.41 15.822)" fill="#3b1e1c"/>
    <rect id="Rectángulo_401805" data-name="Rectángulo 401805" width="38.784" height="4.701" transform="translate(217.333 214.594)" fill="#3b1e1c"/>
    <g id="Grupo_1099974" data-name="Grupo 1099974" transform="translate(31.784)">
      <g id="Grupo_1099973" data-name="Grupo 1099973" clip-path="url(#clip-path)">
        <path id="Trazado_877824" data-name="Trazado 877824" d="M169.735,248.4H334.953a.739.739,0,0,0,.738-.738v-4.086a.739.739,0,0,0-.738-.739H169.735a.739.739,0,0,0-.738.739v4.086a.739.739,0,0,0,.738.738" transform="translate(-50.886 -33.806)" fill="#3b1e1c"/>
        <path id="Trazado_877825" data-name="Trazado 877825" d="M170.374,29.4H334.313a1.377,1.377,0,0,0,1.377-1.378v-2.8a1.377,1.377,0,0,0-1.377-1.379H170.374A1.379,1.379,0,0,0,169,25.22v2.8a1.378,1.378,0,0,0,1.378,1.378" transform="translate(-50.885 -3.319)" fill="#3b1e1c"/>
        <rect id="Rectángulo_401806" data-name="Rectángulo 401806" width="156.026" height="191.292" transform="translate(125.692 23.302)" fill="#f3dacb"/>
        <path id="Trazado_877826" data-name="Trazado 877826" d="M172.344,248.4H337.561a.739.739,0,0,0,.739-.738v-4.086a.739.739,0,0,0-.739-.739H172.344a.738.738,0,0,0-.738.739v4.086a.738.738,0,0,0,.738.738" transform="translate(-51.249 -33.806)" fill="#3b1e1c"/>
        <path id="Trazado_877827" data-name="Trazado 877827" d="M172.985,29.4H336.923a1.377,1.377,0,0,0,1.377-1.378v-2.8a1.377,1.377,0,0,0-1.377-1.379H172.985a1.378,1.378,0,0,0-1.38,1.379v2.8a1.378,1.378,0,0,0,1.38,1.378" transform="translate(-51.249 -3.319)" fill="#3b1e1c"/>
        <path id="Trazado_877828" data-name="Trazado 877828" d="M308.756,140.941V35.816h.211l27.414-.023V140.918h-.212Zm.422-104.7V140.519l26.781-.022V36.214Z" transform="translate(-70.342 -4.983)" fill="#3b1e1c"/>
        <rect id="Rectángulo_401807" data-name="Rectángulo 401807" width="26.773" height="7.782" transform="translate(238.842 31.189)" fill="#3b1e1c"/>
        <rect id="Rectángulo_401808" data-name="Rectángulo 401808" width="9.67" height="9.671" transform="translate(247.391 120.547)" fill="#fff"/>
        <path id="Trazado_877829" data-name="Trazado 877829" d="M329.6,139v11.452l-11.452.007V139.011Zm-1.782,9.672v-7.888l-7.888,0v7.889Z" transform="translate(-71.649 -19.351)" fill="#3b1e1c"/>
        <path id="Trazado_877830" data-name="Trazado 877830" d="M328.084,148.94a33.641,33.641,0,0,1-4.078-3.751,33.5,33.5,0,0,1-3.756-4.078,33.774,33.774,0,0,1,4.08,3.753,33.706,33.706,0,0,1,3.754,4.077" transform="translate(-71.941 -19.644)" fill="#c34915"/>
        <rect id="Rectángulo_401809" data-name="Rectángulo 401809" width="9.67" height="9.671" transform="translate(247.391 106.507)" fill="#fff"/>
        <rect id="Rectángulo_401810" data-name="Rectángulo 401810" width="9.67" height="9.671" transform="translate(247.391 93.923)" fill="#e8bb3b"/>
        <rect id="Rectángulo_401811" data-name="Rectángulo 401811" width="9.67" height="9.671" transform="translate(247.391 81.339)" fill="#3b1e1c"/>
        <rect id="Rectángulo_401812" data-name="Rectángulo 401812" width="9.67" height="9.671" transform="translate(247.391 68.755)" fill="#82b59b"/>
        <rect id="Rectángulo_401813" data-name="Rectángulo 401813" width="9.67" height="9.67" transform="translate(247.391 56.171)" fill="#c34915"/>
        <rect id="Rectángulo_401814" data-name="Rectángulo 401814" width="9.67" height="9.671" transform="translate(247.391 43.588)" fill="#778aeb"/>
        <rect id="Rectángulo_401815" data-name="Rectángulo 401815" width="117.305" height="0.609" transform="translate(138.589 151.647)" fill="#3b1e1c"/>
        <path id="Trazado_877831" data-name="Trazado 877831" d="M277.629,230.389h-1.436v-.958h.479v-.478h.956Z" transform="translate(-65.808 -31.873)" fill="#3b1e1c"/>
        <path id="Trazado_877832" data-name="Trazado 877832" d="M266.115,230.467h-1.936v-.958h1.936Zm-3.873,0h-1.937v-.958h1.937Zm-3.873,0h-1.937v-.958h1.937Zm-3.873,0h-1.936v-.958H254.5Zm-3.873,0h-1.936v-.958h1.936Zm-3.873,0h-1.936v-.958h1.936Zm-3.873,0h-1.935v-.958h1.935Zm-3.872,0h-1.936v-.958h1.936Zm-3.873,0H233.2v-.958h1.937Zm-3.873,0h-1.937v-.958h1.937Zm-3.873,0h-1.936v-.958h1.936Zm-3.873,0h-1.936v-.958h1.936Zm-3.873,0h-1.936v-.958h1.936Z" transform="translate(-57.667 -31.95)" fill="#3b1e1c"/>
        <path id="Trazado_877833" data-name="Trazado 877833" d="M215.226,230.389H213.79v-1.436h.956v.478h.479Z" transform="translate(-57.121 -31.873)" fill="#3b1e1c"/>
        <path id="Trazado_877834" data-name="Trazado 877834" d="M214.747,218.875h-.956v-1.937h.956Zm0-3.872h-.956v-1.936h.956Zm0-3.873h-.956v-1.937h.956Zm0-3.874h-.956V205.32h.956Zm0-3.873h-.956v-1.936h.956Zm0-3.872h-.956v-1.937h.956Zm0-3.873h-.956V193.7h.956Zm0-3.873h-.956V189.83h.956Zm0-3.874h-.956v-1.936h.956Zm0-3.872h-.956v-1.936h.956Zm0-3.873h-.956v-1.937h.956Zm0-3.873h-.956V174.34h.956Zm0-3.873h-.956v-1.937h.956Z" transform="translate(-57.121 -23.731)" fill="#3b1e1c"/>
        <path id="Trazado_877835" data-name="Trazado 877835" d="M214.747,167.986h-.956v-1.435h1.436v.956h-.479Z" transform="translate(-57.121 -23.186)" fill="#3b1e1c"/>
        <path id="Trazado_877836" data-name="Trazado 877836" d="M266.115,167.508h-1.936v-.956h1.936Zm-3.873,0h-1.937v-.956h1.937Zm-3.873,0h-1.937v-.956h1.937Zm-3.872,0h-1.937v-.956H254.5Zm-3.873,0h-1.937v-.956h1.937Zm-3.874,0h-1.936v-.956h1.936Zm-3.873,0h-1.935v-.956h1.935Zm-3.872,0h-1.936v-.956h1.936Zm-3.873,0H233.2v-.956h1.936Zm-3.873,0h-1.936v-.956h1.936Zm-3.873,0h-1.936v-.956h1.936Zm-3.873,0h-1.936v-.956h1.936Zm-3.873,0h-1.936v-.956h1.936Z" transform="translate(-57.667 -23.186)" fill="#3b1e1c"/>
        <path id="Trazado_877837" data-name="Trazado 877837" d="M277.629,167.986h-.956v-.479h-.479v-.956h1.436Z" transform="translate(-65.808 -23.186)" fill="#3b1e1c"/>
        <path id="Trazado_877838" data-name="Trazado 877838" d="M277.706,218.875h-.956v-1.937h.956Zm0-3.872h-.956v-1.936h.956Zm0-3.873h-.956v-1.937h.956Zm0-3.873h-.956v-1.937h.956Zm0-3.873h-.956v-1.937h.956Zm0-3.873h-.956v-1.937h.956Zm0-3.873h-.956V193.7h.956Zm0-3.873h-.956V189.83h.956Zm0-3.873h-.956v-1.936h.956Zm0-3.873h-.956v-1.936h.956Zm0-3.873h-.956v-1.937h.956Zm0-3.873h-.956V174.34h.956Zm0-3.873h-.956v-1.937h.956Z" transform="translate(-65.886 -23.731)" fill="#3b1e1c"/>
        <path id="Trazado_877839" data-name="Trazado 877839" d="M243.235,201.815H231.346l-4.623,11.452h4.5v1.008H222.04v-1.008h2.822l15.311-36.423H245.1l15.13,36.423h2.762v1.008H243.355v-1.008h4.263Zm-11.349-1.166h10.868l-5.224-13.891Z" transform="translate(-58.27 -24.619)" fill="#c34915"/>
        <rect id="Rectángulo_401816" data-name="Rectángulo 401816" width="3.782" height="3.781" transform="translate(155.256 196.147)" fill="#fff"/>
        <path id="Trazado_877840" data-name="Trazado 877840" d="M216.164,231.882h-4.336v-4.335h4.336Zm-3.782-.553h3.228V228.1h-3.228Z" transform="translate(-56.848 -31.677)" fill="#3b1e1c"/>
        <rect id="Rectángulo_401817" data-name="Rectángulo 401817" width="3.782" height="3.782" transform="translate(155.256 169.049)" fill="#fff"/>
        <path id="Trazado_877841" data-name="Trazado 877841" d="M216.164,200.4h-4.336v-4.336h4.336Zm-3.782-.553h3.228V196.62h-3.228Z" transform="translate(-56.848 -27.295)" fill="#3b1e1c"/>
        <rect id="Rectángulo_401818" data-name="Rectángulo 401818" width="3.782" height="3.782" transform="translate(155.256 141.953)" fill="#fff"/>
        <path id="Trazado_877842" data-name="Trazado 877842" d="M216.164,168.924h-4.336v-4.336h4.336Zm-3.782-.553h3.228v-3.228h-3.228Z" transform="translate(-56.848 -22.912)" fill="#3b1e1c"/>
        <rect id="Rectángulo_401819" data-name="Rectángulo 401819" width="3.782" height="3.781" transform="translate(209.451 196.147)" fill="#fff"/>
        <path id="Trazado_877843" data-name="Trazado 877843" d="M279.123,231.882h-4.337v-4.335h4.337Zm-3.783-.553h3.229V228.1h-3.229Z" transform="translate(-65.613 -31.677)" fill="#3b1e1c"/>
        <rect id="Rectángulo_401820" data-name="Rectángulo 401820" width="3.782" height="3.782" transform="translate(209.451 169.049)" fill="#fff"/>
        <path id="Trazado_877844" data-name="Trazado 877844" d="M279.123,200.4h-4.337v-4.336h4.337Zm-3.783-.553h3.229V196.62h-3.229Z" transform="translate(-65.613 -27.295)" fill="#3b1e1c"/>
        <rect id="Rectángulo_401821" data-name="Rectángulo 401821" width="3.782" height="3.782" transform="translate(209.451 141.953)" fill="#fff"/>
        <path id="Trazado_877845" data-name="Trazado 877845" d="M279.123,168.924h-4.337v-4.336h4.337Zm-3.783-.553h3.229v-3.228h-3.229Z" transform="translate(-65.613 -22.912)" fill="#3b1e1c"/>
        <rect id="Rectángulo_401822" data-name="Rectángulo 401822" width="3.783" height="3.782" transform="translate(182.353 141.953)" fill="#fff"/>
        <path id="Trazado_877846" data-name="Trazado 877846" d="M247.643,168.924h-4.336v-4.336h4.336Zm-3.782-.553h3.23v-3.228h-3.23Z" transform="translate(-61.23 -22.912)" fill="#3b1e1c"/>
        <rect id="Rectángulo_401823" data-name="Rectángulo 401823" width="3.783" height="3.781" transform="translate(182.353 196.147)" fill="#fff"/>
        <path id="Trazado_877847" data-name="Trazado 877847" d="M247.643,231.882h-4.336v-4.335h4.336Zm-3.782-.553h3.23V228.1h-3.23Z" transform="translate(-61.23 -31.677)" fill="#3b1e1c"/>
        <path id="Trazado_877848" data-name="Trazado 877848" d="M329.569,191.576a44.225,44.225,0,0,1-5.858,19H315.68a44.231,44.231,0,0,1-5.857-19c8.247-4.613,8.463-14.937,8.463-14.937h.832v16.348a2.517,2.517,0,1,0,1.156,0V176.639h.833s.215,10.324,8.462,14.937" transform="translate(-70.49 -24.59)" fill="#fff"/>
        <path id="Trazado_877849" data-name="Trazado 877849" d="M323.847,210.849h-8.41l-.092-.164a45.032,45.032,0,0,1-5.9-19.155l0-.194.169-.094c7.994-4.472,8.3-14.561,8.3-14.664l.006-.316h1.472V193.19l-.248.059a2.195,2.195,0,1,0,1.006,0l-.248-.059V176.263h1.471l.007.316c0,.1.312,10.2,8.3,14.664l.169.094,0,.194a45.017,45.017,0,0,1-5.9,19.155Zm-8.032-.646h7.655a44.784,44.784,0,0,0,5.716-18.495c-7.338-4.232-8.315-13.023-8.439-14.8h-.2V192.69a2.84,2.84,0,1,1-1.8,0V176.909h-.2c-.123,1.777-1.1,10.567-8.439,14.8a44.9,44.9,0,0,0,5.716,18.5" transform="translate(-70.437 -24.538)" fill="#3b1e1c"/>
        <path id="Trazado_877850" data-name="Trazado 877850" d="M323.839,210.834h-8.387l-.088-.155a45,45,0,0,1-5.9-19.147l0-.182.158-.089c8-4.472,8.306-14.577,8.308-14.678l.007-.3h1.434v16.893l-.235.055a2.213,2.213,0,1,0,1.017,0l-.235-.055V176.285h1.434l.007.3c0,.1.313,10.206,8.307,14.678l.158.089,0,.182a44.986,44.986,0,0,1-5.9,19.147Zm-8.03-.609h7.674a44.787,44.787,0,0,0,5.724-18.525c-7.361-4.239-8.322-13.073-8.439-14.806h-.24v15.814a2.82,2.82,0,1,1-1.764,0V176.894h-.239c-.118,1.734-1.079,10.568-8.44,14.806a44.853,44.853,0,0,0,5.724,18.525" transform="translate(-70.44 -24.541)" fill="#3b1e1c"/>
        <rect id="Rectángulo_401824" data-name="Rectángulo 401824" width="11.867" height="4.994" transform="translate(243.273 185.009)" fill="#c34915"/>
        <rect id="Rectángulo_401825" data-name="Rectángulo 401825" width="139.323" height="0.609" transform="translate(138.589 189.7)" fill="#3b1e1c"/>
        <rect id="Rectángulo_401826" data-name="Rectángulo 401826" width="76.701" height="76.701" transform="translate(136.868 40.825)" fill="#e8bb3b"/>
        <path id="Trazado_877851" data-name="Trazado 877851" d="M262.04,123.222,239.592,78.693l-13.38,28.118-9.4-14.876-18.352,31.1Z" transform="translate(-54.988 -10.955)" fill="#778aeb"/>
        <path id="Trazado_877852" data-name="Trazado 877852" d="M223.792,71.85a4.966,4.966,0,1,0,4.919-5.012,4.965,4.965,0,0,0-4.919,5.012" transform="translate(-58.514 -9.305)" fill="#fff"/>
        <rect id="Rectángulo_401827" data-name="Rectángulo 401827" width="0.992" height="93.689" transform="translate(141.763 46.382) rotate(-44.966)" fill="#fff"/>
        <rect id="Rectángulo_401828" data-name="Rectángulo 401828" width="93.689" height="0.992" transform="matrix(0.707, -0.707, 0.707, 0.707, 141.743, 111.949)" fill="#fff"/>
        <path id="Trazado_877853" data-name="Trazado 877853" d="M198.134,131.35c1.627,0,1.851-.35,1.851-.731,0-.362-.219-.733-1.85-.733s-1.853.37-1.853.733c0,.38.225.731,1.852.731" transform="translate(-54.684 -18.082)" fill="#fff"/>
        <path id="Trazado_877854" data-name="Trazado 877854" d="M204.437,131.35c1.626,0,1.85-.35,1.85-.731,0-.362-.218-.733-1.85-.733s-1.853.37-1.852.733c0,.38.224.731,1.852.731" transform="translate(-55.561 -18.082)" fill="#fff"/>
        <path id="Trazado_877855" data-name="Trazado 877855" d="M210.739,131.35c1.626,0,1.851-.35,1.851-.731,0-.362-.219-.733-1.851-.733s-1.852.37-1.852.733c0,.38.224.731,1.852.731" transform="translate(-56.439 -18.082)" fill="#fff"/>
        <path id="Trazado_877856" data-name="Trazado 877856" d="M217.04,131.35c1.627,0,1.851-.35,1.851-.731,0-.362-.219-.733-1.851-.733s-1.852.37-1.852.733c0,.38.225.731,1.852.731" transform="translate(-57.316 -18.082)" fill="#fff"/>
        <path id="Trazado_877857" data-name="Trazado 877857" d="M223.341,131.35c1.629,0,1.852-.35,1.852-.731,0-.362-.221-.733-1.853-.733s-1.85.37-1.85.733c0,.38.225.731,1.851.731" transform="translate(-58.193 -18.082)" fill="#fff"/>
        <path id="Trazado_877858" data-name="Trazado 877858" d="M229.643,131.35c1.629,0,1.852-.35,1.852-.731,0-.362-.221-.733-1.852-.733s-1.85.37-1.85.733c0,.38.224.731,1.85.731" transform="translate(-59.071 -18.082)" fill="#fff"/>
        <path id="Trazado_877859" data-name="Trazado 877859" d="M235.945,131.35c1.629,0,1.852-.35,1.852-.731,0-.362-.22-.733-1.852-.733s-1.85.37-1.85.733c0,.38.224.731,1.85.731" transform="translate(-59.948 -18.082)" fill="#fff"/>
        <path id="Trazado_877860" data-name="Trazado 877860" d="M242.246,131.35c1.629,0,1.853-.35,1.853-.731,0-.362-.221-.733-1.852-.733s-1.851.37-1.851.733c0,.38.224.731,1.85.731" transform="translate(-60.825 -18.082)" fill="#fff"/>
        <path id="Trazado_877861" data-name="Trazado 877861" d="M248.548,131.35c1.628,0,1.852-.35,1.852-.731,0-.362-.219-.733-1.852-.733s-1.853.37-1.852.733c0,.38.224.731,1.852.731" transform="translate(-61.702 -18.082)" fill="#fff"/>
        <path id="Trazado_877862" data-name="Trazado 877862" d="M254.85,131.35c1.629,0,1.852-.35,1.852-.731,0-.362-.221-.733-1.852-.733s-1.852.37-1.852.733c0,.38.224.731,1.852.731" transform="translate(-62.579 -18.082)" fill="#fff"/>
        <path id="Trazado_877863" data-name="Trazado 877863" d="M261.152,131.35c1.629,0,1.852-.35,1.852-.731,0-.362-.219-.733-1.852-.733s-1.852.37-1.852.733c0,.38.225.731,1.852.731" transform="translate(-63.457 -18.082)" fill="#fff"/>
        <path id="Trazado_877864" data-name="Trazado 877864" d="M267.453,131.35c1.629,0,1.853-.35,1.853-.731,0-.362-.22-.733-1.853-.733s-1.852.37-1.852.733c0,.38.225.731,1.852.731" transform="translate(-64.334 -18.082)" fill="#fff"/>
        <path id="Trazado_877865" data-name="Trazado 877865" d="M272.822,131.4l.37-.281c.115.009.231.012.347.016l.737.018.009-.95v-.059l.5-.5-.513.014c-.076-1.14-.4-1.308-.717-1.308-.34,0-.656.178-.72,1.378-.535.076-.93.251-.93.678s.391.6.918.676Z" transform="translate(-65.211 -17.868)" fill="#fff"/>
        <path id="Trazado_877866" data-name="Trazado 877866" d="M273.7,125.754c.362,0,.732-.22.732-1.852s-.369-1.853-.732-1.853c-.38,0-.732.226-.732,1.853s.352,1.852.732,1.852" transform="translate(-65.36 -16.99)" fill="#fff"/>
        <path id="Trazado_877867" data-name="Trazado 877867" d="M273.7,119.452c.362,0,.732-.22.732-1.852s-.369-1.853-.732-1.853c-.38,0-.732.225-.732,1.853s.352,1.852.732,1.852" transform="translate(-65.36 -16.113)" fill="#fff"/>
        <path id="Trazado_877868" data-name="Trazado 877868" d="M273.7,113.149c.362,0,.732-.22.732-1.852s-.369-1.853-.732-1.853c-.38,0-.732.226-.732,1.853s.352,1.852.732,1.852" transform="translate(-65.36 -15.236)" fill="#fff"/>
        <path id="Trazado_877869" data-name="Trazado 877869" d="M273.7,106.848c.362,0,.732-.22.732-1.852s-.369-1.853-.732-1.853c-.38,0-.732.225-.732,1.853s.352,1.852.732,1.852" transform="translate(-65.36 -14.359)" fill="#fff"/>
        <path id="Trazado_877870" data-name="Trazado 877870" d="M273.7,100.546c.362,0,.732-.22.732-1.853s-.369-1.852-.732-1.852c-.38,0-.732.226-.732,1.852s.352,1.853.732,1.853" transform="translate(-65.36 -13.481)" fill="#fff"/>
        <path id="Trazado_877871" data-name="Trazado 877871" d="M273.7,94.244c.362,0,.732-.22.732-1.852s-.369-1.852-.732-1.852c-.38,0-.732.225-.732,1.852s.352,1.852.732,1.852" transform="translate(-65.36 -12.604)" fill="#fff"/>
        <path id="Trazado_877872" data-name="Trazado 877872" d="M273.7,87.942c.362,0,.732-.221.732-1.852s-.369-1.851-.732-1.851c-.38,0-.732.224-.732,1.851s.352,1.852.732,1.852" transform="translate(-65.36 -11.727)" fill="#fff"/>
        <path id="Trazado_877873" data-name="Trazado 877873" d="M273.7,81.64c.362,0,.732-.22.732-1.852s-.369-1.851-.732-1.851c-.38,0-.732.225-.732,1.851s.352,1.852.732,1.852" transform="translate(-65.36 -10.85)" fill="#fff"/>
        <path id="Trazado_877874" data-name="Trazado 877874" d="M273.7,75.338c.362,0,.732-.22.732-1.852s-.369-1.852-.732-1.852c-.38,0-.732.226-.732,1.852s.352,1.852.732,1.852" transform="translate(-65.36 -9.972)" fill="#fff"/>
        <path id="Trazado_877875" data-name="Trazado 877875" d="M273.7,69.036c.362,0,.732-.221.732-1.852s-.369-1.852-.732-1.852c-.38,0-.732.225-.732,1.852s.352,1.852.732,1.852" transform="translate(-65.36 -9.095)" fill="#fff"/>
        <path id="Trazado_877876" data-name="Trazado 877876" d="M273.7,62.734c.362,0,.732-.22.732-1.852s-.369-1.852-.732-1.852c-.38,0-.732.226-.732,1.852s.352,1.852.732,1.852" transform="translate(-65.36 -8.218)" fill="#fff"/>
        <path id="Trazado_877877" data-name="Trazado 877877" d="M268.322,54.39c1.631,0,1.852-.371,1.852-.733,0-.38-.225-.73-1.852-.73s-1.851.35-1.851.73c0,.362.219.733,1.851.733" transform="translate(-64.455 -7.368)" fill="#fff"/>
        <path id="Trazado_877878" data-name="Trazado 877878" d="M262.021,54.39c1.631,0,1.851-.371,1.851-.733,0-.38-.225-.73-1.851-.73s-1.852.35-1.852.73c0,.362.22.733,1.852.733" transform="translate(-63.578 -7.368)" fill="#fff"/>
        <path id="Trazado_877879" data-name="Trazado 877879" d="M255.719,54.39c1.631,0,1.851-.371,1.851-.733,0-.38-.225-.73-1.851-.73s-1.852.35-1.852.73c0,.362.22.733,1.852.733" transform="translate(-62.7 -7.368)" fill="#fff"/>
        <path id="Trazado_877880" data-name="Trazado 877880" d="M249.417,54.39c1.631,0,1.85-.371,1.85-.733,0-.38-.224-.73-1.85-.73s-1.852.35-1.852.73c0,.362.22.733,1.852.733" transform="translate(-61.823 -7.368)" fill="#fff"/>
        <path id="Trazado_877881" data-name="Trazado 877881" d="M243.116,54.39c1.632,0,1.85-.371,1.85-.733,0-.38-.224-.73-1.85-.73s-1.853.35-1.853.73c0,.362.221.733,1.853.733" transform="translate(-60.946 -7.368)" fill="#fff"/>
        <path id="Trazado_877882" data-name="Trazado 877882" d="M236.813,54.39c1.632,0,1.853-.371,1.853-.733,0-.38-.225-.73-1.853-.73s-1.852.35-1.852.73c0,.362.221.733,1.852.733" transform="translate(-60.069 -7.368)" fill="#fff"/>
        <path id="Trazado_877883" data-name="Trazado 877883" d="M230.511,54.39c1.631,0,1.852-.371,1.852-.733,0-.38-.225-.73-1.852-.73s-1.852.35-1.852.73c0,.362.22.733,1.852.733" transform="translate(-59.191 -7.368)" fill="#fff"/>
        <path id="Trazado_877884" data-name="Trazado 877884" d="M224.209,54.39c1.632,0,1.852-.371,1.852-.733,0-.38-.224-.73-1.852-.73s-1.852.35-1.852.73c0,.362.221.733,1.852.733" transform="translate(-58.314 -7.368)" fill="#fff"/>
        <path id="Trazado_877885" data-name="Trazado 877885" d="M217.908,54.39c1.632,0,1.852-.371,1.852-.733,0-.38-.225-.73-1.852-.73s-1.853.35-1.853.73c0,.362.22.733,1.853.733" transform="translate(-57.437 -7.368)" fill="#fff"/>
        <path id="Trazado_877886" data-name="Trazado 877886" d="M211.606,54.39c1.632,0,1.852-.371,1.852-.733,0-.38-.225-.73-1.852-.73s-1.853.35-1.853.73c0,.362.221.733,1.853.733" transform="translate(-56.559 -7.368)" fill="#fff"/>
        <path id="Trazado_877887" data-name="Trazado 877887" d="M205.3,54.39c1.632,0,1.853-.371,1.852-.733,0-.38-.224-.73-1.852-.73s-1.852.35-1.852.73c0,.362.22.733,1.852.733" transform="translate(-55.682 -7.368)" fill="#fff"/>
        <path id="Trazado_877888" data-name="Trazado 877888" d="M199,54.39c1.632,0,1.852-.371,1.852-.733,0-.38-.224-.73-1.852-.73s-1.852.35-1.852.73c0,.362.22.733,1.852.733" transform="translate(-54.805 -7.368)" fill="#fff"/>
        <path id="Trazado_877889" data-name="Trazado 877889" d="M196.74,59.188c.379,0,.731-.225.731-1.852s-.351-1.853-.731-1.853c-.363,0-.733.221-.733,1.853s.37,1.852.733,1.852" transform="translate(-54.646 -7.724)" fill="#fff"/>
        <path id="Trazado_877890" data-name="Trazado 877890" d="M196.74,65.49c.379,0,.731-.225.731-1.852s-.351-1.853-.731-1.853c-.363,0-.733.221-.733,1.853s.37,1.852.733,1.852" transform="translate(-54.646 -8.601)" fill="#fff"/>
        <path id="Trazado_877891" data-name="Trazado 877891" d="M196.74,71.792c.379,0,.731-.225.731-1.852s-.352-1.853-.731-1.853c-.363,0-.733.221-.733,1.853s.37,1.852.733,1.852" transform="translate(-54.646 -9.478)" fill="#fff"/>
        <path id="Trazado_877892" data-name="Trazado 877892" d="M196.74,78.094c.379,0,.731-.225.731-1.852s-.352-1.853-.731-1.853c-.363,0-.733.221-.733,1.853s.37,1.852.733,1.852" transform="translate(-54.646 -10.356)" fill="#fff"/>
        <path id="Trazado_877893" data-name="Trazado 877893" d="M196.74,84.4c.379,0,.731-.225.731-1.852s-.352-1.853-.731-1.853c-.363,0-.733.221-.733,1.853s.37,1.852.733,1.852" transform="translate(-54.646 -11.233)" fill="#fff"/>
        <path id="Trazado_877894" data-name="Trazado 877894" d="M196.74,90.7c.379,0,.731-.226.731-1.853s-.352-1.853-.731-1.853c-.363,0-.733.221-.733,1.853s.37,1.853.733,1.853" transform="translate(-54.646 -12.11)" fill="#fff"/>
        <path id="Trazado_877895" data-name="Trazado 877895" d="M196.74,97c.38,0,.731-.225.731-1.852s-.352-1.853-.731-1.853c-.362,0-.733.221-.733,1.853s.37,1.852.733,1.852" transform="translate(-54.646 -12.988)" fill="#fff"/>
        <path id="Trazado_877896" data-name="Trazado 877896" d="M196.74,103.3c.38,0,.731-.225.731-1.852s-.351-1.853-.731-1.853c-.363,0-.733.221-.733,1.853s.37,1.852.733,1.852" transform="translate(-54.646 -13.865)" fill="#fff"/>
        <path id="Trazado_877897" data-name="Trazado 877897" d="M196.74,109.6c.379,0,.731-.225.731-1.852s-.351-1.853-.731-1.853c-.363,0-.733.221-.733,1.853s.37,1.852.733,1.852" transform="translate(-54.646 -14.742)" fill="#fff"/>
        <path id="Trazado_877898" data-name="Trazado 877898" d="M196.74,115.9c.379,0,.731-.225.731-1.851s-.351-1.853-.731-1.853c-.363,0-.733.221-.733,1.853s.371,1.851.733,1.851" transform="translate(-54.646 -15.619)" fill="#fff"/>
        <path id="Trazado_877899" data-name="Trazado 877899" d="M196.74,122.208c.379,0,.731-.225.731-1.852s-.352-1.853-.731-1.853c-.363,0-.733.221-.733,1.853s.371,1.852.733,1.852" transform="translate(-54.646 -16.497)" fill="#fff"/>
        <path id="Trazado_877900" data-name="Trazado 877900" d="M196.74,128.507c.38,0,.731-.225.731-1.851s-.352-1.853-.731-1.853c-.363,0-.733.221-.733,1.853s.37,1.851.733,1.851" transform="translate(-54.646 -17.374)" fill="#fff"/>
        <rect id="Rectángulo_401829" data-name="Rectángulo 401829" width="4.906" height="4.907" transform="translate(139.641 109.413)" fill="#fff"/>
        <path id="Trazado_877901" data-name="Trazado 877901" d="M193.433,132.435h5.893v-5.893h-5.893Zm4.913-1h-3.918v-3.918h3.918Z" transform="translate(-54.287 -17.616)" fill="#fff"/>
        <rect id="Rectángulo_401830" data-name="Rectángulo 401830" width="4.906" height="4.907" transform="translate(205.889 110.085)" fill="#fff"/>
        <path id="Trazado_877902" data-name="Trazado 877902" d="M270.388,133.206H276.3v-5.893h-5.908Zm4.913-1h-3.917v-3.9H275.3Z" transform="translate(-65 -17.723)" fill="#fff"/>
        <rect id="Rectángulo_401831" data-name="Rectángulo 401831" width="4.906" height="4.907" transform="translate(139.641 43.359)" fill="#fff"/>
        <path id="Trazado_877903" data-name="Trazado 877903" d="M193.433,55.7h5.893V49.789h-5.893Zm4.913-1h-3.918V50.784h3.918Z" transform="translate(-54.287 -6.931)" fill="#fff"/>
        <rect id="Rectángulo_401832" data-name="Rectángulo 401832" width="4.906" height="4.907" transform="translate(205.889 43.837)" fill="#fff"/>
        <path id="Trazado_877904" data-name="Trazado 877904" d="M270.388,56.251H276.3V50.359h-5.908Zm4.913-1h-3.917V51.338H275.3Z" transform="translate(-65 -7.011)" fill="#fff"/>
        <path id="Trazado_877905" data-name="Trazado 877905" d="M249.576,135.245s-3.859,6.945-10.41,6.072c-6.337-.845-10.788,5.574-10.788,5.574l-.016,0c-4.807,10.323-10.948,45.661-11.813,48.579-5.05,17.048-32.321,4.74-27.378-8.569,1.656-4.459,26.019-39.938,27.4-42.374.306-1.209,4.394-16.766,11.507-15.244.383.038,3.107.247,4.83-1.271.579-.511,1.469-2.541,2.288-5.4.676-2.359,1.966-4.443,4.418-4.324,3.425.168,7.595.443,8.393.814,1.394.649-1.02,12.616-1.02,12.616s4.189-12.407,7.481-16.049c.844-.934,1.811.209,2.018,1.451.949,5.695-6.9,18.123-6.9,18.123" transform="translate(-53.611 -16.055)" fill="#df8b72"/>
        <path id="Trazado_877906" data-name="Trazado 877906" d="M245.326,130.64l2.964-11.634c.006,4.372-2.964,11.634-2.964,11.634" transform="translate(-61.511 -16.567)" fill="#3b1e1c"/>
        <path id="Trazado_877907" data-name="Trazado 877907" d="M250.981,132.9l2.129-13.83c.429,4.351-2.129,13.83-2.129,13.83" transform="translate(-62.299 -16.576)" fill="#3b1e1c"/>
        <path id="Trazado_877908" data-name="Trazado 877908" d="M122.2,85.695c-2.006-5.893-9.166-11.765-20.328-2.923-11.883,9.414-16.809,59.042-17.158,92.169,0,0,3.256,2.65,8.672,1.283,0,0,1.561-16.319,1.864-18.8,0,0,.032,14.571.58,17.438,0,0,4.208,2.1,7.4-.936,0,0-3.549-54.713,6.444-69.414,9.41-13.846,14.614-12.665,12.523-18.812" transform="translate(-39.152 -10.894)" fill="#3b1e1c"/>
        <path id="Trazado_877909" data-name="Trazado 877909" d="M141.942,252.148s21.756,24.557,26.129,62.636S179.483,382.6,179.54,406.4s1.423,58.04,6.978,67.56c0,0-30.571,13-66.939,8.088,0,0-.382-92.753.317-130.533s2.144-97.127,2.144-97.127Z" transform="translate(-43.992 -35.102)" fill="#82b59b"/>
        <path id="Trazado_877910" data-name="Trazado 877910" d="M82.871,250.529s-23.8,31-34.172,71.934-.968,43.589-15.512,73.826-10.808,24.8-22.149,55.244c0,0,29.621,26.653,62.87,28.3,0,0,28.291-111.353,35.54-147.617s7.78-58.81,10.052-72.346Z" transform="translate(-28.896 -34.876)" fill="#82b59b"/>
        <path id="Trazado_877911" data-name="Trazado 877911" d="M16.045,454.676l-.924-.269c.12-.411,12.09-41.273,23.537-59.542,7.651-12.209,8.48-20.057,9.987-34.3.738-6.984,1.657-15.676,3.657-27.112,5.955-34.071,27.183-70.022,27.4-70.382l.827.493c-.212.358-21.351,36.159-27.276,70.054-1.993,11.4-2.91,20.079-3.647,27.049-1.521,14.389-2.359,22.316-10.127,34.714-11.377,18.157-23.311,58.891-23.429,59.3" transform="translate(-29.464 -36.622)" fill="#3b1e1c"/>
        <path id="Trazado_877912" data-name="Trazado 877912" d="M145.556,150.173c10.342,3.311,31.594,18.948,46.782,29.684-2.9,6.359,9.053,21.914,1.085,30.141-11.3-.635-29.924-7.686-40.037-15.93-12.78-10.418-36.362-53.032-7.83-43.9" transform="translate(-45.742 -20.728)" fill="#778aeb"/>
        <path id="Trazado_877913" data-name="Trazado 877913" d="M124.858,148.507c-5.9.151-17.86-.155-22.294,1.114-20.161,5.764-18.92,20.143-17.942,35.856,2.026,32.571-7.94,73.613-7.94,73.613s38.587,19.18,72.577-7.618c0,0-15.357-31.274-.19-53.928,11.507-17.186-4.567-32.557-6.437-42.616-1.236-6.651-14.653-6.5-17.773-6.421" transform="translate(-38.034 -20.671)" fill="#778aeb"/>
        <path id="Trazado_877914" data-name="Trazado 877914" d="M153.469,237.814l.961-.251c-2.362-9.021-3.325-22.545,5.508-35.74,6.461-9.649,4.115-18.652,1.79-24.586l-.925.362c2.245,5.726,4.511,14.409-1.69,23.671-9.04,13.5-8.059,27.326-5.644,36.544" transform="translate(-48.493 -24.673)" fill="#3b1e1c"/>
        <path id="Trazado_877915" data-name="Trazado 877915" d="M145.551,209.992c.04,0,.121,0,.238,0,5.568-.041,10.109-1.448,13.13-4.065l-.65-.751c-2.8,2.427-7.234,3.783-12.487,3.823-.145,0-.244,0-.3.005Z" transform="translate(-47.613 -28.562)" fill="#3b1e1c"/>
        <path id="Trazado_877916" data-name="Trazado 877916" d="M102.272,152.3c2.039-1.116.971-2.267,3.854-2.726a114.5,114.5,0,0,1,28.534-.938c5.1.127,6.329,4.77,5.636,9.823-1.685,12.3-25.206,10.3-38.024-6.159" transform="translate(-41.597 -20.624)" fill="#df8b72"/>
        <path id="Trazado_877917" data-name="Trazado 877917" d="M128.954,206.7c7.113-7.844,4.3-18.353,4.273-18.458l-.956.265c.028.1,2.686,10.094-4.053,17.526Z" transform="translate(-45.209 -26.205)" fill="#3b1e1c"/>
        <path id="Trazado_877918" data-name="Trazado 877918" d="M107.878,120.618c2.483,4.284,6.967,7.208,6.445-1.974-.639-11.239,32.117-16.393,19.53-25.528-18.8-13.647-35.873,10.43-25.974,27.5" transform="translate(-41.973 -12.403)" fill="#3b1e1c"/>
        <path id="Trazado_877919" data-name="Trazado 877919" d="M133.824,131.808v17.586c-.968,1.425-6.2,7.639-19.43-1.08v-23.8a175.235,175.235,0,0,0,19.43,7.3" transform="translate(-43.284 -17.333)" fill="#df8b72"/>
        <path id="Trazado_877920" data-name="Trazado 877920" d="M135.265,138.837v7.8c-10.3.206-10.552-10.1-10.533-10.085a14.717,14.717,0,0,0,10.533,2.283" transform="translate(-44.723 -19.01)" fill="#3b1e1c"/>
        <path id="Trazado_877921" data-name="Trazado 877921" d="M132.765,135.867c-5.59-.039-15.788-7.655-18.048-12.768-.806-1.822-.488-6.662.246-9,2.315-7.327,4.171-13.972,9.861-15.982,2.4-.84,11.114,2.077,13.316,2.551,4.2.906,6.033,5.16,6.078,12.583.052,8.327-1.6,22.685-11.454,22.616" transform="translate(-43.263 -13.638)" fill="#df8b72"/>
        <path id="Trazado_877922" data-name="Trazado 877922" d="M140.066,124.762c.54-.145,3.25-.941,3.673-2.226a1.212,1.212,0,0,0-.238-1.179c-1.946-2.457-1.6-6.471-1.475-7.481a5.538,5.538,0,0,1,4.355-.216l.331-.986a6.408,6.408,0,0,0-5.459.45l-.184.125-.036.22c-.037.218-.857,5.364,1.653,8.534.1.119.077.172.065.207-.176.534-1.829,1.242-2.956,1.548Z" transform="translate(-46.82 -15.631)" fill="#3b1e1c"/>
        <path id="Trazado_877923" data-name="Trazado 877923" d="M116.3,109.316s3.246,3.848,5.945-2.1c3.3-7.285,14.868-6.163,19.653-5.264,0,0,.668.515,2.478,6.88,0,0,2.9-12.585-11.36-15.737-13.867-3.064-17.584,10.415-16.717,16.225" transform="translate(-43.534 -12.897)" fill="#3b1e1c"/>
        <path id="Trazado_877924" data-name="Trazado 877924" d="M119.171,115.556a5.224,5.224,0,1,1-6.569-3.383,5.224,5.224,0,0,1,6.569,3.383" transform="translate(-42.529 -15.581)" fill="#df8b72"/>
        <path id="Trazado_877925" data-name="Trazado 877925" d="M114.011,120.31a1.6,1.6,0,0,0,1.434-.72,1.114,1.114,0,0,0-.321-1.579c-.286-.258-.443-.4-.338-.852a1.915,1.915,0,0,1,.574-.926c.543-.578.952-1.192-.02-2.347a1.6,1.6,0,0,0-1.237-.59h-.019c-1.487,0-3.17,1.864-3.358,2.077l.782.688c.589-.668,1.807-1.724,2.575-1.724h.009a.557.557,0,0,1,.452.219c.455.542.433.566.058.964a2.93,2.93,0,0,0-.831,1.4,1.732,1.732,0,0,0,.657,1.861,1.8,1.8,0,0,1,.182.176c-.008.009-.021.035-.044.072-.33.522-1.5.009-1.516,0l-.442.943a3.465,3.465,0,0,0,1.4.331" transform="translate(-42.774 -15.772)" fill="#3b1e1c"/>
        <path id="Trazado_877926" data-name="Trazado 877926" d="M140.937,130.164s-5.157,2.406-9.824-.666c0,0,1.9,5.2,5.01,4.91s4.814-4.244,4.814-4.244" transform="translate(-45.612 -18.028)" fill="#3b1e1c"/>
        <path id="Trazado_877927" data-name="Trazado 877927" d="M135.247,113.328l.843-.609c-.083-.116-2.081-2.806-7.478-1.01l.33.988c4.616-1.539,6.238.542,6.305.631" transform="translate(-45.264 -15.465)" fill="#3b1e1c"/>
        <path id="Trazado_877928" data-name="Trazado 877928" d="M129.932,116.517a1.762,1.762,0,1,0,1.762-1.762,1.763,1.763,0,0,0-1.762,1.762" transform="translate(-45.447 -15.975)" fill="#3b1e1c"/>
        <path id="Trazado_877929" data-name="Trazado 877929" d="M142.249,116.517a1.762,1.762,0,1,0,1.761-1.762,1.762,1.762,0,0,0-1.761,1.762" transform="translate(-47.162 -15.975)" fill="#3b1e1c"/>
        <path id="Trazado_877930" data-name="Trazado 877930" d="M126.325,85.319s1.794,1.894.465,3.664c0,0-8.879.022-12.865,4.695a5.793,5.793,0,0,1-1.926-4.3s7.717-6.222,14.327-4.063" transform="translate(-42.949 -11.814)" fill="#e8bb3b"/>
        <path id="Trazado_877931" data-name="Trazado 877931" d="M102.242,227.281l-1.8-4.32a2.079,2.079,0,0,0-2.322-1.246L71.541,226.5a2.472,2.472,0,0,0-1.987,2.663l.6,5.559.341,3.133,4.136,38.04a2.087,2.087,0,0,0,2.479,1.858l61.843-11.133a2.47,2.47,0,0,0,1.987-2.662l-4.231-38.914a2.088,2.088,0,0,0-2.479-1.858l-29.671,5.342a2.079,2.079,0,0,1-2.322-1.246" transform="translate(-37.04 -30.86)" fill="#3d1d1e"/>
        <path id="Trazado_877932" data-name="Trazado 877932" d="M94.344,229.194l-2.353-4.214a2.427,2.427,0,0,0-2.524-1.209l-26.611,4.79a2.128,2.128,0,0,0-1.714,2.611l1.283,5.431.723,3.061,8.775,37.163a2.422,2.422,0,0,0,2.756,1.806l61.913-11.145a2.127,2.127,0,0,0,1.713-2.611l-8.976-38.015a2.423,2.423,0,0,0-2.756-1.807l-29.7,5.347a2.426,2.426,0,0,1-2.524-1.208" transform="translate(-35.863 -31.146)" fill="#e8bb3b"/>
        <path id="Trazado_877933" data-name="Trazado 877933" d="M41.053,214.792c1.374-10.051,17.811-39.2,39.138-56.373,20.284-16.336,27.363,9.1,19.647,20.995-5.2,8.01-31.454,40.881-38.4,45.019-9.967,5.939-21.125-4.213-20.383-9.641" transform="translate(-33.07 -21.314)" fill="#778aeb"/>
        <path id="Trazado_877934" data-name="Trazado 877934" d="M41.84,217.112C46.4,197.144,62.732,178.831,62.9,178.648l-.738-.664c-.167.184-16.668,18.69-21.288,38.907Z" transform="translate(-33.049 -24.777)" fill="#3b1e1c"/>
        <path id="Trazado_877935" data-name="Trazado 877935" d="M80.766,217.125c5.845-6.38,13.068-19.621,13.14-19.754l-.873-.474c-.072.132-7.238,13.267-13,19.557Z" transform="translate(-38.501 -27.41)" fill="#3b1e1c"/>
        <path id="Trazado_877936" data-name="Trazado 877936" d="M100.267,249.778C98.04,247.446,73.54,221.87,65.2,215.01s-26.275,2.66-19.644,17.013l43.51,26.859s18.132,9.165,21.63,5.824-8.2-12.6-10.428-14.929" transform="translate(-33.5 -29.615)" fill="#df8b72"/>
        <path id="Trazado_877937" data-name="Trazado 877937" d="M119.227,273.178s.1-2.748.029-4.571-.591-2.959-3.119-4.686-5.982-6.842-9-6.786-13.024.423-13.837,8.72,7.087,19.324,9.178,14.392c0,0,2.7,4.57,5.725.343,0,0,4.837,3.351,5.888-1.574,0,0,6.87,3.837,5.135-5.839" transform="translate(-40.34 -35.796)" fill="#df8b72"/>
        <path id="Trazado_877938" data-name="Trazado 877938" d="M117.26,281.487a15.447,15.447,0,0,0-1.24-6.616,13.539,13.539,0,0,0,.256,3.375,13.721,13.721,0,0,0,.984,3.241" transform="translate(-43.507 -38.265)" fill="#3b1e1c"/>
        <path id="Trazado_877939" data-name="Trazado 877939" d="M110.323,282.95a32.365,32.365,0,0,0-.628-4.479c-.3-1.471-.63-2.92-1.062-4.387a11.453,11.453,0,0,0,.006,2.285,21.648,21.648,0,0,0,.329,2.247,19.78,19.78,0,0,0,1.355,4.333" transform="translate(-42.475 -38.156)" fill="#3b1e1c"/>
        <path id="Trazado_877940" data-name="Trazado 877940" d="M103.6,283.1c-.317-1.027-.681-1.963-1.007-2.925-.175-.476-.331-.956-.5-1.439s-.315-.974-.524-1.478a6.248,6.248,0,0,0,.322,3.163,7.486,7.486,0,0,0,.686,1.443,5.035,5.035,0,0,0,1.02,1.237" transform="translate(-41.487 -38.597)" fill="#3b1e1c"/>
      </g>
    </g>
    <rect id="Rectángulo_401834" data-name="Rectángulo 401834" width="225.527" height="1.713" transform="translate(62.666 254.009)" fill="#3b1e1c"/>
  </g>
</svg>
