<svg xmlns="http://www.w3.org/2000/svg" width="85" height="85" viewBox="0 0 85 85">
  <g id="Grupo_1101043" data-name="Grupo 1101043" transform="translate(-180 -724)">
    <rect id="Rectángulo_402859" data-name="Rectángulo 402859" width="85" height="85" rx="10" transform="translate(180 724)" fill="#f4f4fe"/>
    <g id="Grupo_1101034" data-name="Grupo 1101034" transform="translate(190.116 734.116)">
      <path id="Trazado_917798" data-name="Trazado 917798" d="M71.723,14.268a1.045,1.045,0,0,0,1.045-1.045V9.045A1.045,1.045,0,0,0,71.723,8H67.544A1.045,1.045,0,0,0,66.5,9.045v1.045H43.518V9.045A1.045,1.045,0,0,0,42.473,8H38.295A1.045,1.045,0,0,0,37.25,9.045v1.045H14.268V9.045A1.045,1.045,0,0,0,13.223,8H9.045A1.045,1.045,0,0,0,8,9.045v4.179a1.045,1.045,0,0,0,1.045,1.045h1.045V37.25H9.045A1.045,1.045,0,0,0,8,38.295v4.179a1.045,1.045,0,0,0,1.045,1.045h1.045V66.5H9.045A1.045,1.045,0,0,0,8,67.544v4.179a1.045,1.045,0,0,0,1.045,1.045h4.179a1.045,1.045,0,0,0,1.045-1.045V70.678H37.25v1.045a1.045,1.045,0,0,0,1.045,1.045h4.179a1.045,1.045,0,0,0,1.045-1.045V70.678H66.5v1.045a1.045,1.045,0,0,0,1.045,1.045h4.179a1.045,1.045,0,0,0,1.045-1.045V67.544A1.045,1.045,0,0,0,71.723,66.5H70.678V43.518h1.045a1.045,1.045,0,0,0,1.045-1.045V38.295a1.045,1.045,0,0,0-1.045-1.045H70.678V14.268ZM39.339,10.089h2.089v2.089H39.339Zm-29.25,0h2.089v2.089H10.089Zm0,29.25h2.089v2.089H10.089Zm2.089,31.339H10.089V68.589h2.089Zm29.25,0H39.339V68.589h2.089ZM66.5,67.544v1.045H43.518V67.544A1.045,1.045,0,0,0,42.473,66.5H38.295a1.045,1.045,0,0,0-1.045,1.045v1.045H14.268V67.544A1.045,1.045,0,0,0,13.223,66.5H12.179V43.518h1.045a1.045,1.045,0,0,0,1.045-1.045V38.295a1.045,1.045,0,0,0-1.045-1.045H12.179V14.268h1.045a1.045,1.045,0,0,0,1.045-1.045V12.179H37.25v1.045a1.045,1.045,0,0,0,1.045,1.045h4.179a1.045,1.045,0,0,0,1.045-1.045V12.179H66.5v1.045a1.045,1.045,0,0,0,1.045,1.045h1.045V37.25H67.544A1.045,1.045,0,0,0,66.5,38.295v4.179a1.045,1.045,0,0,0,1.045,1.045h1.045V66.5H67.544A1.045,1.045,0,0,0,66.5,67.544Zm4.179,3.134H68.589V68.589h2.089Zm0-29.25H68.589V39.339h2.089Zm-2.089-29.25V10.089h2.089v2.089Z" transform="translate(-8 -8)" fill="#9a9ef7"/>
      <path id="Trazado_917799" data-name="Trazado 917799" d="M199.074,181.448l-28.809-12.558a1.045,1.045,0,0,0-1.375,1.375l12.558,28.809a1.045,1.045,0,0,0,.957.627,1.174,1.174,0,0,0,.133-.008,1.045,1.045,0,0,0,.9-.874l2.1-13.284,13.284-2.1a1.045,1.045,0,0,0,.255-1.989Zm-14.616,2.142a1.045,1.045,0,0,0-.868.868l-1.657,10.5-10.065-23.088,23.088,10.065Z" transform="translate(-147.806 -147.806)" fill="#9a9ef7"/>
    </g>
  </g>
</svg>
