<svg xmlns="http://www.w3.org/2000/svg" width="85" height="85" viewBox="0 0 85 85">
  <g id="Grupo_1101044" data-name="Grupo 1101044" transform="translate(-705 -724)">
    <rect id="Rectángulo_402863" data-name="Rectángulo 402863" width="85" height="85" rx="10" transform="translate(705 724)" fill="#f4f4fe"/>
    <path id="Trazado_917811" data-name="Trazado 917811" d="M66.428,15.663a.958.958,0,0,0,.958-.958V8.958A.958.958,0,0,0,66.428,8H60.681a.958.958,0,0,0-.958.958v1.916H15.663V8.958A.958.958,0,0,0,14.7,8H8.958A.958.958,0,0,0,8,8.958V14.7a.958.958,0,0,0,.958.958h1.916v44.06H8.958A.958.958,0,0,0,8,60.681v5.747a.958.958,0,0,0,.958.958H14.7a.958.958,0,0,0,.958-.958V64.512h44.06v1.916a.958.958,0,0,0,.958.958h5.747a.958.958,0,0,0,.958-.958V60.681a.958.958,0,0,0-.958-.958H64.512V15.663ZM46.313,12.789h13.41V14.7a.958.958,0,0,0,.958.958H62.6v13.41H57.965A22.16,22.16,0,0,0,46.313,17.42Zm12.366,18.2H62.6V44.4H58.679a22.051,22.051,0,0,0,0-13.41ZM46.313,19.522a20.248,20.248,0,0,1,9.551,9.551H46.313Zm0,11.466H56.657a20.111,20.111,0,0,1,0,13.41H46.313Zm0,15.325h9.551a20.248,20.248,0,0,1-9.551,9.551ZM9.916,13.747V9.916h3.831v3.831ZM16.707,44.4H12.789V30.988h3.918A22.051,22.051,0,0,0,16.707,44.4ZM13.747,65.47H9.916V61.639h3.831ZM29.072,62.6H15.663V60.681a.958.958,0,0,0-.958-.958H12.789V46.313H17.42A22.16,22.16,0,0,0,29.072,57.965Zm0-6.732a20.248,20.248,0,0,1-9.551-9.551h9.551Zm0-11.466H18.729a20.111,20.111,0,0,1,0-13.41H29.072Zm0-15.325H19.522a20.248,20.248,0,0,1,9.551-9.551Zm0-11.652A22.16,22.16,0,0,0,17.42,29.072H12.789V15.663H14.7a.958.958,0,0,0,.958-.958V12.789h13.41ZM44.4,62.6H30.988V58.679a22.051,22.051,0,0,0,13.41,0Zm0-5.94a20.111,20.111,0,0,1-13.41,0V46.313H44.4Zm0-12.259H30.988V30.988H44.4Zm0-15.325H30.988V18.729a20.111,20.111,0,0,1,13.41,0Zm0-12.366a22.051,22.051,0,0,0-13.41,0V12.789H44.4ZM59.723,60.681V62.6H46.313V57.965A22.16,22.16,0,0,0,57.965,46.313H62.6v13.41H60.681A.958.958,0,0,0,59.723,60.681Zm5.747.958V65.47H61.639V61.639ZM61.639,13.747V9.916H65.47v3.831Z" transform="translate(709.807 728.808)" fill="#9a9ef7"/>
  </g>
</svg>
