<svg xmlns="http://www.w3.org/2000/svg" width="100" height="100" viewBox="0 0 100 100">
  <g id="Grupo_1100877" data-name="Grupo 1100877" transform="translate(-210 -558)">
    <rect id="Rectángulo_402858" data-name="Rectángulo 402858" width="100" height="100" rx="10" transform="translate(210 558)" fill="#ff9a09"/>
    <g id="Grupo_1100876" data-name="Grupo 1100876" transform="translate(227.702 569.563)">
      <path id="Trazado_911240" data-name="Trazado 911240" d="M93.233,24.843v55.51a1.766,1.766,0,0,1-1.766,1.766H42.693a1.766,1.766,0,0,1-1.766-1.766V9.266A1.766,1.766,0,0,1,42.693,7.5h33.2Zm0,0" transform="translate(-34.781 -6.374)" fill="#fd8724"/>
      <path id="Trazado_911241" data-name="Trazado 911241" d="M264.217,24.843v55.51a1.766,1.766,0,0,1-1.766,1.766h-4.758a1.766,1.766,0,0,0,1.765-1.766V24.843L242.118,7.5h4.758Zm0,0" transform="translate(-205.766 -6.374)" fill="#fc5820"/>
      <path id="Trazado_911242" data-name="Trazado 911242" d="M275.615,24.8l15.536.046L273.809,7.5l.045,15.535a1.766,1.766,0,0,0,1.761,1.761Zm0,0" transform="translate(-232.699 -6.374)" fill="#fdb659"/>
      <path id="Trazado_911243" data-name="Trazado 911243" d="M68.077,202.261H9.266A1.766,1.766,0,0,1,7.5,200.5v-19.53A1.766,1.766,0,0,1,9.266,179.2H68.077a1.766,1.766,0,0,1,1.766,1.766V200.5A1.766,1.766,0,0,1,68.077,202.261Zm0,0" transform="translate(-6.374 -152.295)" fill="#fede93"/>
      <path id="Trazado_911244" data-name="Trazado 911244" d="M388.09,180.965v19.53a1.766,1.766,0,0,1-1.767,1.766h-4.354a1.766,1.766,0,0,0,1.767-1.766v-19.53a1.766,1.766,0,0,0-1.767-1.766h4.354A1.766,1.766,0,0,1,388.09,180.965Zm0,0" transform="translate(-324.62 -152.295)" fill="#fdb659"/>
      <path id="Trazado_911245" data-name="Trazado 911245" d="M106.264,373.6H84.419a1.8,1.8,0,0,1,0-3.6h21.845a1.8,1.8,0,0,1,0,3.6Zm0,0" transform="translate(-70.212 -314.445)" fill="#e3f4ff"/>
      <path id="Trazado_911246" data-name="Trazado 911246" d="M61.7,25.779H59.578s-.005-7.113-.012-7.163a1.124,1.124,0,0,0-.318-.942L52.2,10.625a1.126,1.126,0,1,0-1.593,1.592l5.117,5.117L42.919,17.3a.642.642,0,0,1-.638-.638L42.244,3.852l4.9,4.9a1.126,1.126,0,1,0,1.593-1.592L41.906.329a1.125,1.125,0,0,0-.942-.318C40.914,0,7.911,0,7.911,0A2.9,2.9,0,0,0,5.019,2.892V25.779H2.893A2.9,2.9,0,0,0,0,28.671V48.2a2.9,2.9,0,0,0,2.893,2.893H5.019V73.979a2.9,2.9,0,0,0,2.892,2.893H56.686a2.9,2.9,0,0,0,2.892-2.893V67.469a1.126,1.126,0,1,0-2.252,0v6.511a.641.641,0,0,1-.64.64H7.911a.641.641,0,0,1-.64-.64V51.092H57.325V62.564a1.126,1.126,0,1,0,2.252,0V51.092H61.7A2.9,2.9,0,0,0,64.6,48.2V28.671A2.9,2.9,0,0,0,61.7,25.779Zm.64,22.422a.64.64,0,0,1-.64.64H2.893a.641.641,0,0,1-.64-.64V28.67a.641.641,0,0,1,.64-.64h31.4a1.126,1.126,0,1,0,0-2.252H7.271V2.892a.64.64,0,0,1,.64-.64H39.988l.042,14.413a2.9,2.9,0,0,0,2.884,2.884l14.413.043v6.187H39.2a1.126,1.126,0,1,0,0,2.252H61.7a.64.64,0,0,1,.64.64Zm0,0"/>
      <path id="Trazado_911247" data-name="Trazado 911247" d="M296.649,362.5h-6.906a1.126,1.126,0,0,0,0,2.252h6.906a1.126,1.126,0,1,0,0-2.252Zm0,0" transform="translate(-245.284 -308.075)"/>
      <path id="Trazado_911248" data-name="Trazado 911248" d="M316.2,386.5h-3.453a1.126,1.126,0,0,0,0,2.252H316.2a1.126,1.126,0,1,0,0-2.252Zm0,0" transform="translate(-264.831 -328.471)"/>
      <path id="Trazado_911249" data-name="Trazado 911249" d="M83.716,464.1h37.839a1.126,1.126,0,1,0,0-2.252H83.716a1.126,1.126,0,1,0,0,2.252Zm0,0" transform="translate(-70.189 -392.51)"/>
      <path id="Trazado_911250" data-name="Trazado 911250" d="M354.4,236.125h-3.153a1.126,1.126,0,0,0,0,2.252H354.4a1.126,1.126,0,0,0,0-2.252Zm0,0" transform="translate(-297.55 -200.674)"/>
      <path id="Trazado_911251" data-name="Trazado 911251" d="M354.4,260.875h-3.153a1.126,1.126,0,0,0,0,2.252H354.4a1.126,1.126,0,1,0,0-2.252Zm0,0" transform="translate(-297.55 -221.708)"/>
      <path id="Trazado_911252" data-name="Trazado 911252" d="M48.4,236.125H45.243a1.126,1.126,0,1,0,0,2.252H48.4a1.126,1.126,0,0,0,0-2.252Zm0,0" transform="translate(-37.493 -200.674)"/>
      <path id="Trazado_911253" data-name="Trazado 911253" d="M48.4,260.875H45.243a1.126,1.126,0,1,0,0,2.252H48.4a1.126,1.126,0,1,0,0-2.252Zm0,0" transform="translate(-37.493 -221.708)"/>
      <path id="Trazado_911254" data-name="Trazado 911254" d="M99.89,368.355a2.928,2.928,0,1,0,0-5.855H78.045a2.928,2.928,0,1,0,0,5.855Zm-22.521-2.928a.677.677,0,0,1,.676-.676H99.89a.676.676,0,0,1,0,1.351H78.045A.677.677,0,0,1,77.369,365.428Zm0,0" transform="translate(-63.838 -308.075)"/>
      <path id="Trazado_911255" data-name="Trazado 911255" d="M165.489,203.274a1.126,1.126,0,0,0-2.081,0L157.7,217.063a1.126,1.126,0,0,0,2.081.861l1.719-4.155h5.891l1.719,4.155a1.126,1.126,0,1,0,2.081-.861Zm-3.054,8.243,2.014-4.867,2.014,4.867Zm0,0" transform="translate(-133.952 -172.163)"/>
      <path id="Trazado_911256" data-name="Trazado 911256" d="M258.743,240.5a1.126,1.126,0,0,0-1.126,1.126v8.1a1.126,1.126,0,1,0,2.252,0v-8.1A1.126,1.126,0,0,0,258.743,240.5Zm0,0" transform="translate(-218.938 -204.392)"/>
      <path id="Trazado_911257" data-name="Trazado 911257" d="M258.743,217.125a1.126,1.126,0,0,0-1.126,1.126v.206a1.126,1.126,0,0,0,2.252,0v-.206A1.126,1.126,0,0,0,258.743,217.125Zm0,0" transform="translate(-218.938 -184.526)"/>
      <path id="Trazado_911258" data-name="Trazado 911258" d="M80.431,32.706a1.84,1.84,0,0,0-2.489-.1l-1.168-1.168a4.693,4.693,0,0,0-2.232-1.252l.76-.76A2.813,2.813,0,1,0,73.71,27.83l-1.622,1.621a1.839,1.839,0,0,0-2.489.1l-1.373,1.373a1.84,1.84,0,0,0-.1,2.489L66.5,35.039a2.813,2.813,0,1,0,1.592,1.593l.762-.761A4.71,4.71,0,0,0,70.106,38.1l1.168,1.168a1.84,1.84,0,0,0,.1,2.489l1.373,1.373a1.843,1.843,0,0,0,2.6,0l1.373-1.373a1.841,1.841,0,0,0,0-2.6l-1.373-1.372a1.839,1.839,0,0,0-2.489-.1L71.7,36.509a2.458,2.458,0,0,1-.628-1.073A1.825,1.825,0,0,0,72.2,34.9l1.372-1.372a1.828,1.828,0,0,0,.531-1.137,2.462,2.462,0,0,1,1.073.63l1.168,1.168a1.839,1.839,0,0,0,.1,2.489l1.372,1.372a1.841,1.841,0,0,0,2.6,0L81.8,36.684a1.841,1.841,0,0,0,0-2.6Zm-4.5-6.3a.561.561,0,1,1-.164.4A.559.559,0,0,1,75.932,26.409ZM65.872,38.053a.56.56,0,1,1,0-.792A.557.557,0,0,1,65.872,38.053Zm8.973,2.4-.792.792-.792-.792.792-.792ZM70.9,33.022l-.792-.792.792-.792.792.792Zm8.227,3.151-.792-.792.792-.792.792.792Zm0,0" transform="translate(-53.255 -20.39)"/>
    </g>
  </g>
</svg>
