<svg xmlns="http://www.w3.org/2000/svg" width="85" height="85" viewBox="0 0 85 85">
  <g id="Grupo_1100873" data-name="Grupo 1100873" transform="translate(-495 -724)">
    <rect id="Rectángulo_402861" data-name="Rectángulo 402861" width="85" height="85" rx="10" transform="translate(495 724)" fill="#f4f4fe"/>
    <g id="Icon" transform="translate(506 735)">
      <path id="Trazado_911233" data-name="Trazado 911233" d="M55,4H9A5.006,5.006,0,0,0,4,9V39a5.006,5.006,0,0,0,5,5H26.72l-1.5,6H17a5.006,5.006,0,0,0-5,5v4a1,1,0,0,0,1,1H51a1,1,0,0,0,1-1V55a5.006,5.006,0,0,0-5-5H38.78l-1.5-6H55a5.006,5.006,0,0,0,5-5V9a5.006,5.006,0,0,0-5-5ZM50,55v3H14V55a3,3,0,0,1,3-3H47a3,3,0,0,1,3,3ZM36.72,50H27.28l1.5-6h6.44ZM58,39a3,3,0,0,1-3,3H9a3,3,0,0,1-3-3V9A3,3,0,0,1,9,6H55a3,3,0,0,1,3,3Z" fill="#9a9ef7"/>
      <path id="Trazado_911234" data-name="Trazado 911234" d="M51,8H47a1,1,0,0,0-1,1v1H18V9a1,1,0,0,0-1-1H13a1,1,0,0,0-1,1v4a1,1,0,0,0,1,1h1V34H13a1,1,0,0,0-1,1v4a1,1,0,0,0,1,1h4a1,1,0,0,0,1-1V38H46v1a1,1,0,0,0,1,1h4a1,1,0,0,0,1-1V35a1,1,0,0,0-1-1H50V14h1a1,1,0,0,0,1-1V9A1,1,0,0,0,51,8ZM14,10h2v2H14Zm2,28H14V36h2Zm34,0H48V36h2Zm-2-4H47a1,1,0,0,0-1,1v1H18V35a1,1,0,0,0-1-1H16V14h1a1,1,0,0,0,1-1V12H46v1a1,1,0,0,0,1,1h1Zm2-22H48V10h2Z" fill="#9a9ef7"/>
      <path id="Trazado_911235" data-name="Trazado 911235" d="M41,14H23a1,1,0,0,0-1,1v4a1,1,0,0,0,1,1h6V33a1,1,0,0,0,1,1h4a1,1,0,0,0,1-1V20h6a1,1,0,0,0,1-1V15A1,1,0,0,0,41,14Zm-1,4H34a1,1,0,0,0-1,1V32H31V19a1,1,0,0,0-1-1H24V16H40Z" fill="#9a9ef7"/>
    </g>
  </g>
</svg>
