<svg xmlns="http://www.w3.org/2000/svg" width="85" height="85" viewBox="0 0 85 85">
  <g id="Grupo_1100870" data-name="Grupo 1100870" transform="translate(-390 -724)">
    <rect id="Rectángulo_402862" data-name="Rectángulo 402862" width="85" height="85" rx="10" transform="translate(390 724)" fill="#f4f4fe"/>
    <g id="Icon" transform="translate(401 735)">
      <path id="Trazado_911232" data-name="Trazado 911232" d="M32,4A28,28,0,1,0,60,32,28,28,0,0,0,32,4ZM51.067,49.653l-9.912-9.912A11.938,11.938,0,0,0,43.949,33H57.975a25.9,25.9,0,0,1-6.908,16.652ZM39.741,22.845A11.938,11.938,0,0,0,33,20.051V6.025a25.9,25.9,0,0,1,16.653,6.908ZM31,20.051a11.938,11.938,0,0,0-6.741,2.795l-9.912-9.912A25.9,25.9,0,0,1,31,6.025ZM32,22A10,10,0,1,1,22,32,10,10,0,0,1,32,22ZM24.259,41.155A11.938,11.938,0,0,0,31,43.949V57.975a25.9,25.9,0,0,1-16.652-6.908ZM33,43.949a11.938,11.938,0,0,0,6.741-2.794l9.912,9.912A25.9,25.9,0,0,1,33,57.975ZM57.975,31H43.949a11.938,11.938,0,0,0-2.794-6.741l9.912-9.912A25.9,25.9,0,0,1,57.975,31ZM12.934,14.347l9.912,9.912A11.938,11.938,0,0,0,20.051,31H6.025a25.9,25.9,0,0,1,6.908-16.653ZM6.025,33H20.051a11.938,11.938,0,0,0,2.795,6.741l-9.912,9.912A25.9,25.9,0,0,1,6.025,33Z" fill="#9a9ef7"/>
    </g>
  </g>
</svg>
