<svg xmlns="http://www.w3.org/2000/svg" width="85" height="85" viewBox="0 0 85 85">
  <g id="Grupo_1100872" data-name="Grupo 1100872" transform="translate(-180 -724)">
    <rect id="Rectángulo_402859" data-name="Rectángulo 402859" width="85" height="85" rx="10" transform="translate(180 724)" fill="#f4f4fe"/>
    <path id="Trazado_911230" data-name="Trazado 911230" d="M61.707,47.359,44.727,30.379l16.205-16.2a3.651,3.651,0,0,0,0-5.156l-5.95-5.95a3.651,3.651,0,0,0-5.156,0L33.621,19.273,16.641,2.293a1,1,0,0,0-1.414,0L2.293,15.227a1,1,0,0,0,0,1.414l16.98,16.98-7.8,7.8a.992.992,0,0,0-.192.27L2.1,60.563a1,1,0,0,0,1.317,1.346l17.94-8.249a.987.987,0,0,0,.289-.2l8.732-8.731,16.98,16.98a1,1,0,0,0,1.414,0L61.707,48.774a1,1,0,0,0,0-1.414ZM22.013,50.265l.2-2.165a1,1,0,0,0-1.087-1.086l-3.009.274L44.574,20.826l3.439,3.439-26,26Zm-8.191,4.659L9.279,50.381l3.051-6.27,2.542-.232-.416,4.564a1,1,0,0,0,1.087,1.087l4.565-.416-.275,3.045-6.012,2.764ZM39.735,15.987l3.425,3.425L16.7,45.874l.274-3.009a1,1,0,0,0-.289-.8.99.99,0,0,0-.8-.289l-2.135.195Zm9.692,6.863-8.277-8.277,3.837-3.837,8.277,8.277ZM51.24,4.481a1.65,1.65,0,0,1,2.328,0l5.95,5.95a1.65,1.65,0,0,1,0,2.328l-4.84,4.84L46.4,9.322l4.84-4.84ZM15.934,4.414l5.579,5.579L18.2,13.3a1,1,0,1,0,1.414,1.414l3.309-3.309,6.356,6.356-3.308,3.308a1,1,0,1,0,1.414,1.414L30.7,19.177l1.51,1.51-7.088,7.088L8.845,11.5l7.088-7.088ZM4.414,15.934l3.017-3.017L23.7,29.19l-3.017,3.017Zm3.94,36.35,3.531,3.531-6.763,3.11,3.232-6.641Zm39.713,7.3L31.793,43.313,34.81,40.3,51.084,56.569l-3.017,3.017ZM52.5,55.155,36.224,38.881l7.089-7.089,1.51,1.51-3.309,3.309a1,1,0,1,0,1.414,1.414l3.308-3.308,6.356,6.356-3.309,3.309A1,1,0,1,0,50.7,45.8l3.309-3.309,5.579,5.579L52.5,55.155Z" transform="translate(191 735)" fill="#9a9ef7"/>
  </g>
</svg>
