<svg xmlns="http://www.w3.org/2000/svg" width="85" height="85" viewBox="0 0 85 85">
  <g id="Grupo_1100874" data-name="Grupo 1100874" transform="translate(-600 -724)">
    <rect id="Rectángulo_402864" data-name="Rectángulo 402864" width="85" height="85" rx="10" transform="translate(600 724)" fill="#f4f4fe"/>
    <g id="Icon" transform="translate(611 735)">
      <path id="Trazado_911236" data-name="Trazado 911236" d="M41,4A10,10,0,1,0,51,14,10,10,0,0,0,41,4Zm0,18a8,8,0,1,1,8-8,8,8,0,0,1-8,8Z" fill="#9a9ef7"/>
      <path id="Trazado_911237" data-name="Trazado 911237" d="M45,13H42V10a1,1,0,0,0-2,0v3H37a1,1,0,0,0,0,2h3v3a1,1,0,0,0,2,0V15h3a1,1,0,0,0,0-2Z" fill="#9a9ef7"/>
      <path id="Trazado_911238" data-name="Trazado 911238" d="M32.274,46.028l2.7-10.785a1,1,0,0,0-.122-.772l-10-16a1.039,1.039,0,0,0-1.7,0l-10,16a1,1,0,0,0-.122.772l2.7,10.785A2.992,2.992,0,0,0,16,52v7a1,1,0,0,0,1,1H31a1,1,0,0,0,1-1V52a2.992,2.992,0,0,0,.274-5.972ZM24,34a1,1,0,1,1-1,1,1,1,0,0,1,1-1ZM23,22.487v9.7a3,3,0,1,0,2,0v-9.7L32.927,35.17,30.219,46H17.781L15.073,35.17ZM30,58H18V52H30Zm2-8H16a1,1,0,1,1,0-2H32a1,1,0,1,1,0,2Z" fill="#9a9ef7"/>
    </g>
  </g>
</svg>
