<svg xmlns="http://www.w3.org/2000/svg" width="808" height="502" viewBox="0 0 808 502">
  <g id="Grupo_1101172" data-name="Grupo 1101172" transform="translate(-475.333 -360)">
    <path id="Trazado_923413" data-name="Trazado 923413" d="M0,0H230V50H0Z" transform="translate(685.333 360)" fill="#ff9a09"/>
    <path id="Trazado_923415" data-name="Trazado 923415" d="M0,0H324V80H0Z" transform="translate(638.333 450)" fill="#ffd69b"/>
    <path id="Trazado_923422" data-name="Trazado 923422" d="M0,0H295V50H0Z" transform="translate(475.333 582)" fill="#9a9ef7"/>
    <path id="Trazado_923428" data-name="Trazado 923428" d="M0,0H295V70H0Z" transform="translate(475.333 660)" fill="#d6d8fc"/>
    <path id="Trazado_923423" data-name="Trazado 923423" d="M0,0H295V50H0Z" transform="translate(830.333 582)" fill="#9a9ef7"/>
    <path id="Trazado_923429" data-name="Trazado 923429" d="M0,0H155V100H0Z" transform="translate(900.333 660)" fill="#d6d8fc"/>
    <path id="Trazado_923436" data-name="Trazado 923436" d="M0,0H208V100H0Z" transform="translate(1075.333 762)" fill="#d6d8fc"/>
    <path id="Trazado_923431" data-name="Trazado 923431" d="M0,0H208V50H0Z" transform="translate(1075.333 685)" fill="#d6d8fc"/>
    <path id="Trazado_923414" data-name="Trazado 923414" d="M48.184,16.344h-4.7L42.666,19H39L44.219,4.781h3.223L52.7,19H49.014ZM44.307,13.7h3.057L45.83,8.766Zm8.857-.059a6.455,6.455,0,0,1,1.084-3.955,3.568,3.568,0,0,1,3.027-1.445,3.035,3.035,0,0,1,2.383,1.113V4h3.3V19H60l-.166-1.133A3.116,3.116,0,0,1,57.256,19.2a3.562,3.562,0,0,1-2.988-1.445A6.659,6.659,0,0,1,53.164,13.639Zm3.291.205q0,2.813,1.641,2.813a1.62,1.62,0,0,0,1.563-.918V11.715a1.576,1.576,0,0,0-1.543-.937q-1.523,0-1.65,2.461Zm7.959-.225a6.236,6.236,0,0,1,.615-2.817A4.4,4.4,0,0,1,66.8,8.9,5.323,5.323,0,0,1,69.5,8.238a4.858,4.858,0,0,1,3.74,1.47,5.64,5.64,0,0,1,1.367,4v.117a5.472,5.472,0,0,1-1.372,3.921,4.871,4.871,0,0,1-3.716,1.45A4.927,4.927,0,0,1,65.9,17.843a5.29,5.29,0,0,1-1.475-3.667Zm3.291.205a3.932,3.932,0,0,0,.459,2.148,1.529,1.529,0,0,0,1.357.684q1.758,0,1.8-2.705v-.332q0-2.842-1.816-2.842-1.65,0-1.787,2.451Zm18.164-.02A6.44,6.44,0,0,1,84.795,17.8a3.6,3.6,0,0,1-3.027,1.4,3.122,3.122,0,0,1-2.6-1.279L79.033,19H76.084V4h3.291V9.283a3.013,3.013,0,0,1,2.373-1.045,3.6,3.6,0,0,1,3.047,1.416,6.473,6.473,0,0,1,1.074,3.984Zm-3.3-.21a4.3,4.3,0,0,0-.405-2.169,1.366,1.366,0,0,0-1.245-.648,1.576,1.576,0,0,0-1.543.848v4.192a1.585,1.585,0,0,0,1.563.838,1.4,1.4,0,0,0,1.475-1.131A8.121,8.121,0,0,0,82.568,13.595Zm9.863,5.6a5.432,5.432,0,0,1-3.936-1.45,5.008,5.008,0,0,1-1.5-3.774V13.7a6.489,6.489,0,0,1,.6-2.861,4.395,4.395,0,0,1,1.753-1.919,5.292,5.292,0,0,1,2.734-.679A4.574,4.574,0,0,1,95.6,9.62a5.43,5.43,0,0,1,1.289,3.853v1.279H90.342a2.372,2.372,0,0,0,.771,1.4,2.3,2.3,0,0,0,1.543.508A2.958,2.958,0,0,0,95.1,15.563l1.5,1.777a4.2,4.2,0,0,1-1.743,1.353A5.891,5.891,0,0,1,92.432,19.2Zm-.371-8.418q-1.445,0-1.719,1.914h3.32v-.254a1.63,1.63,0,0,0-.4-1.226A1.593,1.593,0,0,0,92.061,10.777ZM106.992,19h-3.418V4.781h3.418Zm5.7,0h-3.3V4h3.3Zm5.5,0h-3.3V4h3.3Zm8.32-1.143a3.393,3.393,0,0,1-2.822,1.338,3.328,3.328,0,0,1-2.632-1.011,4.251,4.251,0,0,1-.894-2.905V8.434h3.291V15.3a1.183,1.183,0,0,0,1.318,1.357,1.72,1.72,0,0,0,1.611-.811V8.434H129.7V19h-3.086Zm10.518-1.826a.76.76,0,0,0-.439-.674,6.685,6.685,0,0,0-1.67-.527,7.615,7.615,0,0,1-2.031-.718,3.4,3.4,0,0,1-1.221-1.079,2.577,2.577,0,0,1-.42-1.455,2.92,2.92,0,0,1,1.2-2.4,4.948,4.948,0,0,1,3.145-.942,5.482,5.482,0,0,1,3.359.947,2.962,2.962,0,0,1,1.27,2.49h-3.3q0-1.27-1.338-1.27a1.326,1.326,0,0,0-.869.288.892.892,0,0,0-.352.718.819.819,0,0,0,.43.713,4.06,4.06,0,0,0,1.372.449,11.857,11.857,0,0,1,1.655.42,3.007,3.007,0,0,1,2.383,2.939,2.767,2.767,0,0,1-1.284,2.354,5.632,5.632,0,0,1-3.325.908,5.747,5.747,0,0,1-2.422-.488,4.05,4.05,0,0,1-1.66-1.328,3.007,3.007,0,0,1-.6-1.768h3.076a1.272,1.272,0,0,0,.488,1.069,2.009,2.009,0,0,0,1.2.337,1.58,1.58,0,0,0,1.011-.273A.875.875,0,0,0,137.031,16.031Zm8.545-10.225V8.434h1.738v2.285h-1.738v4.834a1.234,1.234,0,0,0,.215.83,1.152,1.152,0,0,0,.85.234,4.828,4.828,0,0,0,.82-.059v2.354a6.074,6.074,0,0,1-1.855.283,3.448,3.448,0,0,1-2.51-.8,3.282,3.282,0,0,1-.811-2.432V10.719h-1.348V8.434h1.348V5.807ZM155,11.412l-1.084-.078a1.947,1.947,0,0,0-1.992.977V19h-3.291V8.434h3.086l.107,1.357a2.548,2.548,0,0,1,2.314-1.553,3.209,3.209,0,0,1,.918.117ZM161.846,19a3.716,3.716,0,0,1-.312-.947,3.06,3.06,0,0,1-2.539,1.143,3.749,3.749,0,0,1-2.539-.9,2.875,2.875,0,0,1-1.045-2.271,2.955,2.955,0,0,1,1.27-2.6,6.468,6.468,0,0,1,3.691-.879h1.016v-.559q0-1.462-1.26-1.462a1.03,1.03,0,0,0-1.172,1.158h-3.291a2.95,2.95,0,0,1,1.3-2.487,5.479,5.479,0,0,1,3.325-.956,4.8,4.8,0,0,1,3.193.986,3.429,3.429,0,0,1,1.2,2.705v4.678a4.79,4.79,0,0,0,.449,2.227V19Zm-2.061-2.148a1.836,1.836,0,0,0,1.021-.264,1.653,1.653,0,0,0,.581-.6V14.3h-.957q-1.719,0-1.719,1.543a.942.942,0,0,0,.3.728A1.1,1.1,0,0,0,159.785,16.852ZM170.342,5.807V8.434h1.738v2.285h-1.738v4.834a1.234,1.234,0,0,0,.215.83,1.152,1.152,0,0,0,.85.234,4.828,4.828,0,0,0,.82-.059v2.354a6.074,6.074,0,0,1-1.855.283,3.448,3.448,0,0,1-2.51-.8,3.282,3.282,0,0,1-.811-2.432V10.719H165.7V8.434h1.348V5.807Zm2.324,7.813a6.236,6.236,0,0,1,.615-2.817,4.4,4.4,0,0,1,1.768-1.9,5.323,5.323,0,0,1,2.705-.664,4.858,4.858,0,0,1,3.74,1.47,5.64,5.64,0,0,1,1.367,4v.117a5.472,5.472,0,0,1-1.372,3.921,4.871,4.871,0,0,1-3.716,1.45,4.927,4.927,0,0,1-3.623-1.353,5.29,5.29,0,0,1-1.475-3.667Zm3.291.205a3.932,3.932,0,0,0,.459,2.148,1.529,1.529,0,0,0,1.357.684q1.758,0,1.8-2.705v-.332q0-2.842-1.816-2.842-1.65,0-1.787,2.451ZM190.7,11.412l-1.084-.078a1.947,1.947,0,0,0-1.992.977V19h-3.291V8.434h3.086l.107,1.357a2.548,2.548,0,0,1,2.314-1.553,3.209,3.209,0,0,1,.918.117Z" transform="translate(685.333 373)" fill="#12263f"/>
    <path id="Trazado_923416" data-name="Trazado 923416" d="M36.442,17.27q.215-1.406-1.533-2.09l-.791-.293a7.39,7.39,0,0,1-3.135-1.826,3.266,3.266,0,0,1-.84-2.451,3.687,3.687,0,0,1,.825-2.134,4.812,4.812,0,0,1,1.968-1.421,6.44,6.44,0,0,1,2.6-.469,5.2,5.2,0,0,1,2.363.581A3.823,3.823,0,0,1,39.479,8.7a4.247,4.247,0,0,1,.508,2.241l-2.4-.01A2.254,2.254,0,0,0,37.092,9.2,2.266,2.266,0,0,0,35.4,8.559a3.155,3.155,0,0,0-1.929.537,2.149,2.149,0,0,0-.923,1.5q-.2,1.24,1.66,1.953l.732.264a7.11,7.11,0,0,1,3.125,1.88,3.471,3.471,0,0,1,.781,2.554,3.846,3.846,0,0,1-.791,2.095,4.442,4.442,0,0,1-1.919,1.382,6.979,6.979,0,0,1-2.7.469,5.617,5.617,0,0,1-2.534-.586,4.059,4.059,0,0,1-2.3-3.916l2.412.01a2.264,2.264,0,0,0,.6,1.865,2.728,2.728,0,0,0,1.934.674,3.381,3.381,0,0,0,1.958-.5A2.091,2.091,0,0,0,36.442,17.27Zm4.277-1.592a6.952,6.952,0,0,1,.913-2.822,5.419,5.419,0,0,1,1.919-1.963,4.742,4.742,0,0,1,2.6-.654,3.924,3.924,0,0,1,3.784,2.646,6.108,6.108,0,0,1,.317,2.715,7.081,7.081,0,0,1-.913,2.969A5.4,5.4,0,0,1,47.4,20.546a4.81,4.81,0,0,1-2.612.649,3.919,3.919,0,0,1-3.77-2.632,6.03,6.03,0,0,1-.332-2.681ZM43,17.016a2.79,2.79,0,0,0,.542,1.646,1.734,1.734,0,0,0,1.372.649,2.435,2.435,0,0,0,2-.918A4.829,4.829,0,0,0,47.917,15.8l.059-.957a3.381,3.381,0,0,0-.5-1.963,1.748,1.748,0,0,0-1.445-.752,2.53,2.53,0,0,0-2.344,1.455,5.436,5.436,0,0,0-.654,2.09A8.177,8.177,0,0,0,43,17.016ZM52.116,21l1.533-8.809H52.077l.313-1.758h1.563L54.108,9.3a4.221,4.221,0,0,1,1.323-2.6,3.909,3.909,0,0,1,2.759-.937,7.493,7.493,0,0,1,1.377.2l-.254,1.855a3.91,3.91,0,0,0-.869-.1,1.956,1.956,0,0,0-1.357.449,2.119,2.119,0,0,0-.674,1.27l-.146,1h2.09l-.312,1.758h-2.08L54.431,21ZM63.464,7.865l-.449,2.568h1.807l-.3,1.758H62.7l-1,5.918a2.024,2.024,0,0,0-.01.439q.059.635.781.664a4.412,4.412,0,0,0,.82-.088l-.156,1.855a5.307,5.307,0,0,1-1.455.205,2.161,2.161,0,0,1-1.812-.825,2.986,2.986,0,0,1-.474-2.134l.986-6.035H58.7l.313-1.758h1.68l.449-2.568Zm10.908,9.844,2.9-7.275H79.6L74.968,21h-1.9l-.928-7.227L68.718,21H66.8l-.967-10.566h2.188l.4,7.168,3.34-7.168h1.748ZM85.622,21a3.134,3.134,0,0,1-.1-.986A3.918,3.918,0,0,1,82.7,21.2a3.236,3.236,0,0,1-2.28-.884,2.725,2.725,0,0,1-.845-2.192,3.236,3.236,0,0,1,1.445-2.627,6.293,6.293,0,0,1,3.672-.957l1.5.02.137-.723a2.181,2.181,0,0,0,0-.713,1.272,1.272,0,0,0-1.4-1.084,2.106,2.106,0,0,0-1.3.376,1.627,1.627,0,0,0-.688,1.06l-2.314.02a2.9,2.9,0,0,1,.693-1.714,4.111,4.111,0,0,1,1.66-1.147,5.621,5.621,0,0,1,2.188-.391,3.7,3.7,0,0,1,2.7,1.04,3.082,3.082,0,0,1,.8,2.593l-.811,4.951-.078.879a3.122,3.122,0,0,0,.146,1.123l-.01.176Zm-2.383-1.7a2.552,2.552,0,0,0,1.357-.337,3.577,3.577,0,0,0,1.064-.923l.361-2-1.1-.01a3.878,3.878,0,0,0-2.09.493,1.808,1.808,0,0,0-.889,1.353,1.2,1.2,0,0,0,.288,1.03A1.409,1.409,0,0,0,83.239,19.3Zm13.613-6.7a4.263,4.263,0,0,0-.908-.1,2.71,2.71,0,0,0-2.422,1.26L92.253,21H89.938l1.826-10.566,2.2-.01-.234,1.2a3.024,3.024,0,0,1,2.5-1.406,3.8,3.8,0,0,1,.889.146Zm4.785,8.594A4.427,4.427,0,0,1,99.25,20.5a3.945,3.945,0,0,1-1.494-1.816,5.4,5.4,0,0,1-.366-2.568l.029-.4a7.072,7.072,0,0,1,.942-2.9,5.378,5.378,0,0,1,1.909-1.948,4.642,4.642,0,0,1,2.48-.635,3.462,3.462,0,0,1,2.974,1.477,5.421,5.421,0,0,1,.747,3.746l-.137,1.017h-6.65a2.87,2.87,0,0,0,.508,2.024,2.012,2.012,0,0,0,1.641.788,3.559,3.559,0,0,0,2.754-1.3l1.172,1.23a4.454,4.454,0,0,1-1.748,1.47A5.207,5.207,0,0,1,101.638,21.2Zm.986-9.062q-1.836-.059-2.754,2.6l4.385.01.039-.205a3.064,3.064,0,0,0,.01-.879,1.8,1.8,0,0,0-.547-1.094A1.731,1.731,0,0,0,102.624,12.133Zm10.283,3.506a6.282,6.282,0,0,1,1.133-3.921,3.63,3.63,0,0,1,3.037-1.479,3.449,3.449,0,0,1,2.715,1.172V6h2.373V21h-2.148l-.117-1.094a3.5,3.5,0,0,1-2.842,1.289,3.609,3.609,0,0,1-3-1.494A6.512,6.512,0,0,1,112.907,15.639Zm2.373.205a4.4,4.4,0,0,0,.62,2.515,2.012,2.012,0,0,0,1.763.9,2.241,2.241,0,0,0,2.129-1.3V13.451a2.207,2.207,0,0,0-2.109-1.27,2.027,2.027,0,0,0-1.777.913A4.9,4.9,0,0,0,115.28,15.844ZM129.294,21.2a4.91,4.91,0,0,1-3.657-1.421,5.154,5.154,0,0,1-1.4-3.784V15.7a6.34,6.34,0,0,1,.61-2.827,4.645,4.645,0,0,1,1.714-1.938,4.531,4.531,0,0,1,2.461-.693,4.147,4.147,0,0,1,3.335,1.377,5.823,5.823,0,0,1,1.177,3.9v.957h-6.9a3.173,3.173,0,0,0,.874,2.07,2.624,2.624,0,0,0,1.929.762,3.213,3.213,0,0,0,2.656-1.318l1.279,1.221a4.272,4.272,0,0,1-1.694,1.47A5.3,5.3,0,0,1,129.294,21.2Zm-.283-9.053a2,2,0,0,0-1.577.684,3.543,3.543,0,0,0-.767,1.9h4.521v-.176a2.884,2.884,0,0,0-.635-1.8A1.983,1.983,0,0,0,129.011,12.143ZM142.878,21H140.5V10.434h2.373Zm-2.52-13.32a1.275,1.275,0,0,1,.347-.915A1.3,1.3,0,0,1,141.7,6.4a1.32,1.32,0,0,1,1,.364,1.265,1.265,0,0,1,.352.915,1.236,1.236,0,0,1-.352.9,1.331,1.331,0,0,1-1,.359,1.314,1.314,0,0,1-.991-.359A1.245,1.245,0,0,1,140.358,7.68ZM147.985,21h-2.373V6h2.373Zm8.984-1.035A3.68,3.68,0,0,1,154,21.2a3.28,3.28,0,0,1-2.6-1.006,4.279,4.279,0,0,1-.884-2.91V10.434h2.373V17.25q0,2.012,1.67,2.012a2.345,2.345,0,0,0,2.334-1.24V10.434h2.373V21h-2.236ZM167.6,18.129a1.076,1.076,0,0,0-.522-.967,5.557,5.557,0,0,0-1.733-.586,8.911,8.911,0,0,1-2.021-.645,2.7,2.7,0,0,1-1.777-2.49,2.813,2.813,0,0,1,1.152-2.285,4.556,4.556,0,0,1,2.93-.918,4.74,4.74,0,0,1,3.062.938,2.975,2.975,0,0,1,1.167,2.432h-2.373a1.462,1.462,0,0,0-.508-1.138,1.946,1.946,0,0,0-1.348-.454,2.1,2.1,0,0,0-1.274.361,1.139,1.139,0,0,0-.493.967.962.962,0,0,0,.459.85,6.312,6.312,0,0,0,1.855.61,8.783,8.783,0,0,1,2.192.732,3.1,3.1,0,0,1,1.182,1.021A2.6,2.6,0,0,1,169.938,18a2.753,2.753,0,0,1-1.182,2.31,5.039,5.039,0,0,1-3.1.884,5.464,5.464,0,0,1-2.314-.469,3.809,3.809,0,0,1-1.582-1.289,3.051,3.051,0,0,1-.566-1.768h2.3a1.672,1.672,0,0,0,.635,1.294,2.467,2.467,0,0,0,1.553.454,2.4,2.4,0,0,0,1.426-.356A1.1,1.1,0,0,0,167.6,18.129Zm7.373-10.264v2.568h1.865v1.758h-1.865v5.9a1.3,1.3,0,0,0,.239.874,1.109,1.109,0,0,0,.854.269,3.656,3.656,0,0,0,.83-.1v1.836a5.844,5.844,0,0,1-1.562.225q-2.734,0-2.734-3.018V12.191h-1.738V10.434H172.6V7.865Zm9.209,4.736a5.872,5.872,0,0,0-.967-.078,2.177,2.177,0,0,0-2.2,1.25V21h-2.373V10.434h2.266l.059,1.182a2.674,2.674,0,0,1,2.383-1.377,2.222,2.222,0,0,1,.84.137Zm7.52,8.4a3.662,3.662,0,0,1-.273-.986,3.992,3.992,0,0,1-5.371.273,2.906,2.906,0,0,1-1.006-2.246,3,3,0,0,1,1.255-2.593,6.081,6.081,0,0,1,3.589-.9h1.455v-.693a1.851,1.851,0,0,0-.459-1.313,1.819,1.819,0,0,0-1.4-.493,2.09,2.09,0,0,0-1.328.405,1.254,1.254,0,0,0-.518,1.03H185.28a2.634,2.634,0,0,1,.576-1.626,3.838,3.838,0,0,1,1.567-1.187,5.506,5.506,0,0,1,2.212-.43,4.434,4.434,0,0,1,2.959.933,3.326,3.326,0,0,1,1.133,2.622v4.766a5.4,5.4,0,0,0,.4,2.275V21ZM189.1,19.291a2.7,2.7,0,0,0,1.323-.342,2.284,2.284,0,0,0,.933-.918V16.039h-1.279a3.5,3.5,0,0,0-1.982.459,1.487,1.487,0,0,0-.664,1.3,1.387,1.387,0,0,0,.454,1.089A1.758,1.758,0,0,0,189.1,19.291Zm11.455.01a2.146,2.146,0,0,0,1.475-.518,1.768,1.768,0,0,0,.625-1.279h2.236a3.486,3.486,0,0,1-.615,1.841,4.035,4.035,0,0,1-1.562,1.353,4.656,4.656,0,0,1-2.129.5,4.505,4.505,0,0,1-3.516-1.436,5.694,5.694,0,0,1-1.3-3.965v-.244a5.6,5.6,0,0,1,1.289-3.862,4.464,4.464,0,0,1,3.516-1.45,4.341,4.341,0,0,1,3.071,1.1,3.935,3.935,0,0,1,1.245,2.886h-2.236a2.173,2.173,0,0,0-.62-1.494,2,2,0,0,0-1.479-.586,2.088,2.088,0,0,0-1.777.835,4.261,4.261,0,0,0-.635,2.534v.381a4.331,4.331,0,0,0,.62,2.563A2.086,2.086,0,0,0,200.554,19.3Zm8.652,1.7h-2.373V10.434h2.373Zm-2.52-13.32a1.275,1.275,0,0,1,.347-.915,1.3,1.3,0,0,1,.991-.364,1.32,1.32,0,0,1,1,.364,1.265,1.265,0,0,1,.352.915,1.236,1.236,0,0,1-.352.9,1.331,1.331,0,0,1-1,.359,1.314,1.314,0,0,1-.991-.359A1.245,1.245,0,0,1,206.687,7.68Zm4.658,7.939a6.231,6.231,0,0,1,.615-2.8,4.493,4.493,0,0,1,1.729-1.914,4.87,4.87,0,0,1,2.559-.669,4.615,4.615,0,0,1,3.472,1.377,5.416,5.416,0,0,1,1.44,3.652l.01.557a6.286,6.286,0,0,1-.6,2.793,4.439,4.439,0,0,1-1.719,1.9,4.906,4.906,0,0,1-2.583.674,4.584,4.584,0,0,1-3.579-1.489,5.7,5.7,0,0,1-1.343-3.97Zm2.373.205a4.258,4.258,0,0,0,.674,2.554,2.191,2.191,0,0,0,1.875.923,2.167,2.167,0,0,0,1.87-.937,4.7,4.7,0,0,0,.669-2.744,4.2,4.2,0,0,0-.688-2.539,2.321,2.321,0,0,0-3.716-.015A4.614,4.614,0,0,0,213.718,15.824ZM216.9,6h2.705L216.9,8.959l-1.9,0Zm8.477,4.434.068,1.221a3.8,3.8,0,0,1,3.076-1.416q3.3,0,3.359,3.779V21h-2.373V14.154a2.176,2.176,0,0,0-.435-1.489,1.828,1.828,0,0,0-1.421-.483,2.287,2.287,0,0,0-2.139,1.3V21h-2.373V10.434Zm17.6,7.168,2.148-7.168h2.529l-4.2,12.168q-.967,2.666-3.281,2.666a4.231,4.231,0,0,1-1.143-.177V23.246l.449.029a2.31,2.31,0,0,0,1.353-.327,2.167,2.167,0,0,0,.718-1.1l.342-.907-3.711-10.51h2.559ZM34.226,42.639a6.282,6.282,0,0,1,1.133-3.921A3.63,3.63,0,0,1,38.4,37.238,3.449,3.449,0,0,1,41.11,38.41V33h2.373V48H41.335l-.117-1.094A3.5,3.5,0,0,1,38.376,48.2a3.609,3.609,0,0,1-3-1.494A6.512,6.512,0,0,1,34.226,42.639Zm2.373.205a4.4,4.4,0,0,0,.62,2.515,2.012,2.012,0,0,0,1.763.9,2.241,2.241,0,0,0,2.129-1.3V40.451A2.207,2.207,0,0,0,39,39.182a2.027,2.027,0,0,0-1.777.913A4.9,4.9,0,0,0,36.6,42.844ZM48.483,48H46.11V37.434h2.373Zm-2.52-13.32a1.275,1.275,0,0,1,.347-.915A1.3,1.3,0,0,1,47.3,33.4a1.32,1.32,0,0,1,1,.364,1.265,1.265,0,0,1,.352.915,1.236,1.236,0,0,1-.352.9,1.331,1.331,0,0,1-1,.359,1.314,1.314,0,0,1-.991-.359A1.245,1.245,0,0,1,45.964,34.68ZM56.989,45.129a1.076,1.076,0,0,0-.522-.967,5.557,5.557,0,0,0-1.733-.586,8.911,8.911,0,0,1-2.021-.645,2.7,2.7,0,0,1-1.777-2.49,2.813,2.813,0,0,1,1.152-2.285,4.556,4.556,0,0,1,2.93-.918,4.74,4.74,0,0,1,3.062.938,2.975,2.975,0,0,1,1.167,2.432H56.872a1.462,1.462,0,0,0-.508-1.138,1.946,1.946,0,0,0-1.348-.454,2.1,2.1,0,0,0-1.274.361,1.139,1.139,0,0,0-.493.967.962.962,0,0,0,.459.85,6.312,6.312,0,0,0,1.855.61,8.783,8.783,0,0,1,2.192.732,3.1,3.1,0,0,1,1.182,1.021A2.6,2.6,0,0,1,59.323,45a2.753,2.753,0,0,1-1.182,2.31,5.039,5.039,0,0,1-3.1.884,5.464,5.464,0,0,1-2.314-.469,3.809,3.809,0,0,1-1.582-1.289,3.051,3.051,0,0,1-.566-1.768h2.3a1.672,1.672,0,0,0,.635,1.294,2.467,2.467,0,0,0,1.553.454,2.4,2.4,0,0,0,1.426-.356A1.1,1.1,0,0,0,56.989,45.129ZM66.042,48.2a4.91,4.91,0,0,1-3.657-1.421,5.154,5.154,0,0,1-1.4-3.784V42.7a6.34,6.34,0,0,1,.61-2.827,4.645,4.645,0,0,1,1.714-1.938,4.531,4.531,0,0,1,2.461-.693A4.147,4.147,0,0,1,69.1,38.615a5.822,5.822,0,0,1,1.177,3.9v.957h-6.9a3.173,3.173,0,0,0,.874,2.07,2.624,2.624,0,0,0,1.929.762,3.213,3.213,0,0,0,2.656-1.318L70.114,46.2a4.272,4.272,0,0,1-1.694,1.47A5.3,5.3,0,0,1,66.042,48.2Zm-.283-9.053a2,2,0,0,0-1.577.684,3.543,3.543,0,0,0-.767,1.9h4.521v-.176a2.884,2.884,0,0,0-.635-1.8A1.983,1.983,0,0,0,65.759,39.143Zm8.564-1.709.068,1.221a3.8,3.8,0,0,1,3.076-1.416q3.3,0,3.359,3.779V48H78.454V41.154a2.176,2.176,0,0,0-.435-1.489,1.828,1.828,0,0,0-1.421-.483,2.287,2.287,0,0,0-2.139,1.3V48H72.087V37.434Zm5.762-4.219A2.625,2.625,0,0,1,79.465,35a1.978,1.978,0,0,1-1.558.713,2.32,2.32,0,0,1-.659-.083,4.193,4.193,0,0,1-.791-.376,3.91,3.91,0,0,0-.723-.352,1.723,1.723,0,0,0-.464-.059.828.828,0,0,0-.63.278,1.026,1.026,0,0,0-.259.728l-1.455-.078a2.7,2.7,0,0,1,.62-1.807,1.946,1.946,0,0,1,1.548-.732,2.882,2.882,0,0,1,1.343.439,2.839,2.839,0,0,0,1.294.439.843.843,0,0,0,.635-.278,1.028,1.028,0,0,0,.264-.737Zm2.715,9.4a6.231,6.231,0,0,1,.615-2.8,4.493,4.493,0,0,1,1.729-1.914,4.87,4.87,0,0,1,2.559-.669,4.615,4.615,0,0,1,3.472,1.377,5.416,5.416,0,0,1,1.44,3.652l.01.557a6.286,6.286,0,0,1-.6,2.793,4.439,4.439,0,0,1-1.719,1.9,4.906,4.906,0,0,1-2.583.674,4.584,4.584,0,0,1-3.579-1.489,5.7,5.7,0,0,1-1.343-3.97Zm2.373.205a4.258,4.258,0,0,0,.674,2.554,2.191,2.191,0,0,0,1.875.923,2.167,2.167,0,0,0,1.87-.937,4.7,4.7,0,0,0,.669-2.744,4.2,4.2,0,0,0-.688-2.539,2.321,2.321,0,0,0-3.716-.015A4.614,4.614,0,0,0,85.173,42.824ZM99.2,42.639a6.18,6.18,0,0,1,1.157-3.931,3.714,3.714,0,0,1,3.071-1.47,3.48,3.48,0,0,1,2.842,1.26l.107-1.064h2.139V47.678a4.258,4.258,0,0,1-1.294,3.281,4.928,4.928,0,0,1-3.491,1.2,5.627,5.627,0,0,1-2.271-.483,4.034,4.034,0,0,1-1.685-1.265l1.123-1.426a3.392,3.392,0,0,0,2.7,1.3,2.621,2.621,0,0,0,1.865-.64,2.451,2.451,0,0,0,.684-1.88v-.713a3.494,3.494,0,0,1-2.734,1.143,3.705,3.705,0,0,1-3.032-1.475A6.38,6.38,0,0,1,99.2,42.639Zm2.363.205a4.254,4.254,0,0,0,.649,2.5,2.088,2.088,0,0,0,1.8.913,2.284,2.284,0,0,0,2.129-1.23V40.383a2.251,2.251,0,0,0-2.109-1.2,2.1,2.1,0,0,0-1.821.928A4.763,4.763,0,0,0,101.56,42.844ZM116.481,39.6a5.872,5.872,0,0,0-.967-.078,2.177,2.177,0,0,0-2.2,1.25V48h-2.373V37.434h2.266l.059,1.182a2.674,2.674,0,0,1,2.383-1.377,2.222,2.222,0,0,1,.84.137ZM124,48a3.662,3.662,0,0,1-.273-.986,3.992,3.992,0,0,1-5.371.273,2.906,2.906,0,0,1-1.006-2.246,3,3,0,0,1,1.255-2.593,6.081,6.081,0,0,1,3.589-.9h1.455v-.693a1.851,1.851,0,0,0-.459-1.313,1.819,1.819,0,0,0-1.4-.493,2.09,2.09,0,0,0-1.328.405,1.254,1.254,0,0,0-.518,1.03h-2.373a2.634,2.634,0,0,1,.576-1.626,3.839,3.839,0,0,1,1.567-1.187,5.506,5.506,0,0,1,2.212-.43,4.434,4.434,0,0,1,2.959.933,3.326,3.326,0,0,1,1.133,2.622v4.766a5.4,5.4,0,0,0,.4,2.275V48Zm-2.607-1.709a2.7,2.7,0,0,0,1.323-.342,2.284,2.284,0,0,0,.933-.918V43.039H122.37a3.5,3.5,0,0,0-1.982.459,1.487,1.487,0,0,0-.664,1.3,1.387,1.387,0,0,0,.454,1.089A1.758,1.758,0,0,0,121.394,46.291ZM122.712,33h2.705l-2.705,2.959-1.9,0Zm6.426,15V39.191h-1.611V37.434h1.611v-.723a4.227,4.227,0,0,1,.527-2.129,3.28,3.28,0,0,1,1.465-1.338,5.273,5.273,0,0,1,2.275-.449,6.633,6.633,0,0,1,1.5.166q.718.166,1.489.42l-.361,1.963a7.554,7.554,0,0,0-2.461-.469,2.2,2.2,0,0,0-1.572.474,1.9,1.9,0,0,0-.488,1.421v.664h2.08v1.758h-2.08V48Zm8.379,0h-2.373V37.434h2.373Zm6.973-1.7a2.146,2.146,0,0,0,1.475-.518,1.768,1.768,0,0,0,.625-1.279h2.236a3.486,3.486,0,0,1-.615,1.841,4.035,4.035,0,0,1-1.562,1.353,4.656,4.656,0,0,1-2.129.5A4.505,4.505,0,0,1,141,46.76a5.694,5.694,0,0,1-1.3-3.965v-.244a5.6,5.6,0,0,1,1.289-3.862,4.464,4.464,0,0,1,3.516-1.45,4.341,4.341,0,0,1,3.071,1.1,3.935,3.935,0,0,1,1.245,2.886h-2.236a2.173,2.173,0,0,0-.62-1.494,2,2,0,0,0-1.479-.586,2.088,2.088,0,0,0-1.777.835,4.261,4.261,0,0,0-.635,2.534v.381a4.331,4.331,0,0,0,.62,2.563A2.086,2.086,0,0,0,144.489,46.3Zm5.684-3.682a6.231,6.231,0,0,1,.615-2.8,4.493,4.493,0,0,1,1.729-1.914,4.87,4.87,0,0,1,2.559-.669,4.615,4.615,0,0,1,3.472,1.377,5.416,5.416,0,0,1,1.44,3.652l.01.557a6.286,6.286,0,0,1-.6,2.793,4.439,4.439,0,0,1-1.719,1.9,4.906,4.906,0,0,1-2.583.674,4.584,4.584,0,0,1-3.579-1.489,5.7,5.7,0,0,1-1.343-3.97Zm2.373.205a4.258,4.258,0,0,0,.674,2.554,2.191,2.191,0,0,0,1.875.923,2.167,2.167,0,0,0,1.87-.937,4.7,4.7,0,0,0,.669-2.744,4.2,4.2,0,0,0-.688-2.539,2.321,2.321,0,0,0-3.716-.015A4.614,4.614,0,0,0,152.546,42.824Zm18.164,2.168,2.236-7.559H175.4L171.735,48h-2.061l-3.691-10.566h2.461ZM181.4,48.2a4.91,4.91,0,0,1-3.657-1.421,5.154,5.154,0,0,1-1.4-3.784V42.7a6.34,6.34,0,0,1,.61-2.827,4.646,4.646,0,0,1,1.714-1.938,4.531,4.531,0,0,1,2.461-.693,4.147,4.147,0,0,1,3.335,1.377,5.823,5.823,0,0,1,1.177,3.9v.957h-6.9a3.173,3.173,0,0,0,.874,2.07,2.624,2.624,0,0,0,1.929.762,3.213,3.213,0,0,0,2.656-1.318l1.279,1.221a4.272,4.272,0,0,1-1.694,1.47A5.3,5.3,0,0,1,181.4,48.2Zm-.283-9.053a2,2,0,0,0-1.577.684,3.543,3.543,0,0,0-.767,1.9H183.3v-.176a2.884,2.884,0,0,0-.635-1.8A1.983,1.983,0,0,0,181.12,39.143Zm10.7,7.158a2.146,2.146,0,0,0,1.475-.518,1.768,1.768,0,0,0,.625-1.279h2.236a3.486,3.486,0,0,1-.615,1.841,4.035,4.035,0,0,1-1.562,1.353,4.656,4.656,0,0,1-2.129.5,4.505,4.505,0,0,1-3.516-1.436,5.694,5.694,0,0,1-1.3-3.965v-.244a5.6,5.6,0,0,1,1.289-3.862,4.464,4.464,0,0,1,3.516-1.45,4.341,4.341,0,0,1,3.071,1.1,3.935,3.935,0,0,1,1.245,2.886h-2.236a2.173,2.173,0,0,0-.62-1.494,2,2,0,0,0-1.479-.586,2.088,2.088,0,0,0-1.777.835,4.261,4.261,0,0,0-.635,2.534v.381a4.331,4.331,0,0,0,.62,2.563A2.086,2.086,0,0,0,191.823,46.3Zm9.1-11.436v2.568h1.865v1.758h-1.865v5.9a1.3,1.3,0,0,0,.239.874,1.109,1.109,0,0,0,.854.269,3.656,3.656,0,0,0,.83-.1v1.836a5.845,5.845,0,0,1-1.562.225q-2.734,0-2.734-3.018V39.191h-1.738V37.434h1.738V34.865Zm2.939,7.754a6.231,6.231,0,0,1,.615-2.8,4.493,4.493,0,0,1,1.729-1.914,4.87,4.87,0,0,1,2.559-.669,4.615,4.615,0,0,1,3.472,1.377,5.416,5.416,0,0,1,1.44,3.652l.01.557a6.286,6.286,0,0,1-.6,2.793,4.439,4.439,0,0,1-1.719,1.9,4.906,4.906,0,0,1-2.583.674,4.584,4.584,0,0,1-3.579-1.489,5.7,5.7,0,0,1-1.343-3.97Zm2.373.205a4.258,4.258,0,0,0,.674,2.554,2.191,2.191,0,0,0,1.875.923,2.167,2.167,0,0,0,1.87-.937,4.7,4.7,0,0,0,.669-2.744,4.2,4.2,0,0,0-.688-2.539,2.321,2.321,0,0,0-3.716-.015A4.614,4.614,0,0,0,206.237,42.824Zm14.99-3.223a5.872,5.872,0,0,0-.967-.078,2.177,2.177,0,0,0-2.2,1.25V48H215.69V37.434h2.266l.059,1.182a2.674,2.674,0,0,1,2.383-1.377,2.222,2.222,0,0,1,.84.137Zm4.023,8.4h-2.373V37.434h2.373Zm-2.52-13.32a1.275,1.275,0,0,1,.347-.915,1.3,1.3,0,0,1,.991-.364,1.32,1.32,0,0,1,1,.364,1.265,1.265,0,0,1,.352.915,1.236,1.236,0,0,1-.352.9,1.331,1.331,0,0,1-1,.359,1.314,1.314,0,0,1-.991-.359A1.245,1.245,0,0,1,222.731,34.68ZM234.147,48a3.662,3.662,0,0,1-.273-.986,3.992,3.992,0,0,1-5.371.273,2.906,2.906,0,0,1-1.006-2.246,3,3,0,0,1,1.255-2.593,6.081,6.081,0,0,1,3.589-.9H233.8v-.693a1.851,1.851,0,0,0-.459-1.313,1.819,1.819,0,0,0-1.4-.493,2.09,2.09,0,0,0-1.328.405,1.254,1.254,0,0,0-.518,1.03h-2.373a2.634,2.634,0,0,1,.576-1.626,3.838,3.838,0,0,1,1.567-1.187,5.506,5.506,0,0,1,2.212-.43,4.434,4.434,0,0,1,2.959.933,3.326,3.326,0,0,1,1.133,2.622v4.766a5.4,5.4,0,0,0,.4,2.275V48Zm-2.607-1.709a2.7,2.7,0,0,0,1.323-.342,2.284,2.284,0,0,0,.933-.918V43.039h-1.279a3.5,3.5,0,0,0-1.982.459,1.487,1.487,0,0,0-.664,1.3,1.387,1.387,0,0,0,.454,1.089A1.758,1.758,0,0,0,231.54,46.291ZM241.179,48h-2.373V33h2.373Z" transform="translate(662.333 464)" fill="#12263f"/>
    <path id="Trazado_923424" data-name="Trazado 923424" d="M24.1,6.773H19.67V19H17.219V6.773H12.824V4.781H24.1ZM28.264,19H25.891V8.434h2.373ZM25.744,5.68a1.275,1.275,0,0,1,.347-.915,1.3,1.3,0,0,1,.991-.364,1.32,1.32,0,0,1,1,.364,1.265,1.265,0,0,1,.352.915,1.236,1.236,0,0,1-.352.9,1.331,1.331,0,0,1-1,.359,1.314,1.314,0,0,1-.991-.359A1.245,1.245,0,0,1,25.744,5.68ZM40.1,13.824a6.291,6.291,0,0,1-1.113,3.911,3.867,3.867,0,0,1-5.771.317v5.01H30.842V8.434h2.188l.1,1.074a3.485,3.485,0,0,1,2.842-1.27A3.6,3.6,0,0,1,39,9.679a6.459,6.459,0,0,1,1.1,4Zm-2.363-.205a4.407,4.407,0,0,0-.63-2.51,2.048,2.048,0,0,0-1.8-.928,2.184,2.184,0,0,0-2.09,1.2V16.07a2.2,2.2,0,0,0,2.109,1.23,2.045,2.045,0,0,0,1.772-.913A4.851,4.851,0,0,0,37.736,13.619Zm3.926,0a6.231,6.231,0,0,1,.615-2.8,4.493,4.493,0,0,1,1.729-1.914,4.87,4.87,0,0,1,2.559-.669,4.615,4.615,0,0,1,3.472,1.377,5.416,5.416,0,0,1,1.44,3.652l.01.557a6.286,6.286,0,0,1-.6,2.793,4.439,4.439,0,0,1-1.719,1.9,4.906,4.906,0,0,1-2.583.674A4.584,4.584,0,0,1,43,17.706a5.7,5.7,0,0,1-1.343-3.97Zm2.373.205a4.258,4.258,0,0,0,.674,2.554,2.191,2.191,0,0,0,1.875.923,2.167,2.167,0,0,0,1.87-.937,4.7,4.7,0,0,0,.669-2.744,4.2,4.2,0,0,0-.688-2.539,2.321,2.321,0,0,0-3.716-.015A4.614,4.614,0,0,0,44.035,13.824Zm15.381,2.3a1.076,1.076,0,0,0-.522-.967,5.557,5.557,0,0,0-1.733-.586,8.911,8.911,0,0,1-2.021-.645,2.7,2.7,0,0,1-1.777-2.49,2.813,2.813,0,0,1,1.152-2.285,4.556,4.556,0,0,1,2.93-.918,4.74,4.74,0,0,1,3.062.938,2.975,2.975,0,0,1,1.167,2.432H59.3a1.462,1.462,0,0,0-.508-1.138,1.946,1.946,0,0,0-1.348-.454,2.1,2.1,0,0,0-1.274.361,1.139,1.139,0,0,0-.493.967.962.962,0,0,0,.459.85,6.312,6.312,0,0,0,1.855.61,8.783,8.783,0,0,1,2.192.732,3.1,3.1,0,0,1,1.182,1.021A2.6,2.6,0,0,1,61.75,16a2.753,2.753,0,0,1-1.182,2.31,5.039,5.039,0,0,1-3.1.884,5.464,5.464,0,0,1-2.314-.469,3.809,3.809,0,0,1-1.582-1.289,3.051,3.051,0,0,1-.566-1.768h2.3a1.672,1.672,0,0,0,.635,1.294,2.467,2.467,0,0,0,1.553.454,2.4,2.4,0,0,0,1.426-.356A1.1,1.1,0,0,0,59.416,16.129Zm8.936-2.49a6.282,6.282,0,0,1,1.133-3.921,3.63,3.63,0,0,1,3.037-1.479A3.449,3.449,0,0,1,75.236,9.41V4h2.373V19H75.461l-.117-1.094A3.5,3.5,0,0,1,72.5,19.2a3.609,3.609,0,0,1-3-1.494A6.512,6.512,0,0,1,68.352,13.639Zm2.373.205a4.4,4.4,0,0,0,.62,2.515,2.012,2.012,0,0,0,1.763.9,2.241,2.241,0,0,0,2.129-1.3V11.451a2.207,2.207,0,0,0-2.109-1.27,2.027,2.027,0,0,0-1.777.913A4.9,4.9,0,0,0,70.725,13.844ZM84.738,19.2a4.91,4.91,0,0,1-3.657-1.421,5.154,5.154,0,0,1-1.4-3.784V13.7a6.34,6.34,0,0,1,.61-2.827A4.645,4.645,0,0,1,82,8.932a4.531,4.531,0,0,1,2.461-.693A4.147,4.147,0,0,1,87.8,9.615a5.822,5.822,0,0,1,1.177,3.9v.957h-6.9a3.173,3.173,0,0,0,.874,2.07,2.624,2.624,0,0,0,1.929.762,3.213,3.213,0,0,0,2.656-1.318L88.811,17.2a4.272,4.272,0,0,1-1.694,1.47A5.3,5.3,0,0,1,84.738,19.2Zm-.283-9.053a2,2,0,0,0-1.577.684,3.543,3.543,0,0,0-.767,1.9h4.521v-.176a2.884,2.884,0,0,0-.635-1.8A1.983,1.983,0,0,0,84.455,10.143ZM98.322,19H95.949V8.434h2.373ZM95.8,5.68a1.275,1.275,0,0,1,.347-.915,1.3,1.3,0,0,1,.991-.364,1.32,1.32,0,0,1,1,.364,1.265,1.265,0,0,1,.352.915,1.236,1.236,0,0,1-.352.9,1.331,1.331,0,0,1-1,.359,1.314,1.314,0,0,1-.991-.359A1.245,1.245,0,0,1,95.8,5.68Zm7.334,2.754.068,1.1a3.8,3.8,0,0,1,3.047-1.3,2.921,2.921,0,0,1,2.9,1.621,3.748,3.748,0,0,1,3.242-1.621,3.294,3.294,0,0,1,2.6.967,4.257,4.257,0,0,1,.874,2.852V19H113.5V12.125a2.1,2.1,0,0,0-.439-1.475,1.924,1.924,0,0,0-1.455-.469,1.976,1.976,0,0,0-1.323.435,2.292,2.292,0,0,0-.718,1.138l.01,7.246H107.2V12.047a1.693,1.693,0,0,0-1.9-1.865,2.089,2.089,0,0,0-2.021,1.162V19H100.9V8.434ZM124.621,19a3.662,3.662,0,0,1-.273-.986,3.992,3.992,0,0,1-5.371.273,2.906,2.906,0,0,1-1.006-2.246,3,3,0,0,1,1.255-2.593,6.081,6.081,0,0,1,3.589-.9h1.455v-.693a1.851,1.851,0,0,0-.459-1.313,1.819,1.819,0,0,0-1.4-.493,2.09,2.09,0,0,0-1.328.405,1.254,1.254,0,0,0-.518,1.03H118.2a2.634,2.634,0,0,1,.576-1.626,3.839,3.839,0,0,1,1.567-1.187,5.506,5.506,0,0,1,2.212-.43,4.434,4.434,0,0,1,2.959.933,3.326,3.326,0,0,1,1.133,2.622v4.766a5.4,5.4,0,0,0,.4,2.275V19Zm-2.607-1.709a2.7,2.7,0,0,0,1.323-.342,2.284,2.284,0,0,0,.933-.918V14.039H122.99a3.5,3.5,0,0,0-1.982.459,1.487,1.487,0,0,0-.664,1.3,1.387,1.387,0,0,0,.454,1.089A1.758,1.758,0,0,0,122.014,17.291ZM123.332,4h2.705l-2.705,2.959-1.9,0Zm5.381,9.639a6.18,6.18,0,0,1,1.157-3.931,3.714,3.714,0,0,1,3.071-1.47,3.48,3.48,0,0,1,2.842,1.26l.107-1.064h2.139V18.678a4.258,4.258,0,0,1-1.294,3.281,4.928,4.928,0,0,1-3.491,1.2,5.627,5.627,0,0,1-2.271-.483,4.034,4.034,0,0,1-1.685-1.265l1.123-1.426a3.392,3.392,0,0,0,2.7,1.3,2.621,2.621,0,0,0,1.865-.64,2.451,2.451,0,0,0,.684-1.88v-.713a3.494,3.494,0,0,1-2.734,1.143,3.705,3.705,0,0,1-3.032-1.475A6.38,6.38,0,0,1,128.713,13.639Zm2.363.205a4.254,4.254,0,0,0,.649,2.5,2.088,2.088,0,0,0,1.8.913,2.284,2.284,0,0,0,2.129-1.23V11.383a2.251,2.251,0,0,0-2.109-1.2,2.1,2.1,0,0,0-1.821.928A4.763,4.763,0,0,0,131.076,13.844ZM145.119,19.2a4.91,4.91,0,0,1-3.657-1.421,5.154,5.154,0,0,1-1.4-3.784V13.7a6.34,6.34,0,0,1,.61-2.827,4.646,4.646,0,0,1,1.714-1.938,4.531,4.531,0,0,1,2.461-.693,4.147,4.147,0,0,1,3.335,1.377,5.823,5.823,0,0,1,1.177,3.9v.957h-6.9a3.173,3.173,0,0,0,.874,2.07,2.624,2.624,0,0,0,1.929.762,3.213,3.213,0,0,0,2.656-1.318l1.279,1.221a4.272,4.272,0,0,1-1.694,1.47A5.3,5.3,0,0,1,145.119,19.2Zm-.283-9.053a2,2,0,0,0-1.577.684,3.543,3.543,0,0,0-.767,1.9h4.521v-.176a2.884,2.884,0,0,0-.635-1.8A1.983,1.983,0,0,0,144.836,10.143ZM153.4,8.434l.068,1.221a3.8,3.8,0,0,1,3.076-1.416q3.3,0,3.359,3.779V19h-2.373V12.154a2.176,2.176,0,0,0-.435-1.489,1.828,1.828,0,0,0-1.421-.483,2.287,2.287,0,0,0-2.139,1.3V19h-2.373V8.434ZM166.975,19.2a4.91,4.91,0,0,1-3.657-1.421,5.154,5.154,0,0,1-1.4-3.784V13.7a6.34,6.34,0,0,1,.61-2.827,4.646,4.646,0,0,1,1.714-1.938,4.531,4.531,0,0,1,2.461-.693,4.147,4.147,0,0,1,3.335,1.377,5.823,5.823,0,0,1,1.177,3.9v.957h-6.9a3.173,3.173,0,0,0,.874,2.07,2.624,2.624,0,0,0,1.929.762,3.213,3.213,0,0,0,2.656-1.318l1.279,1.221a4.272,4.272,0,0,1-1.694,1.47A5.3,5.3,0,0,1,166.975,19.2Zm-.283-9.053a2,2,0,0,0-1.577.684,3.543,3.543,0,0,0-.767,1.9h4.521v-.176a2.884,2.884,0,0,0-.635-1.8A1.983,1.983,0,0,0,166.691,10.143Zm12.285,5.986a1.076,1.076,0,0,0-.522-.967,5.557,5.557,0,0,0-1.733-.586,8.911,8.911,0,0,1-2.021-.645,2.7,2.7,0,0,1-1.777-2.49,2.813,2.813,0,0,1,1.152-2.285A4.556,4.556,0,0,1,177,8.238a4.74,4.74,0,0,1,3.062.938,2.975,2.975,0,0,1,1.167,2.432h-2.373a1.462,1.462,0,0,0-.508-1.138A1.946,1.946,0,0,0,177,10.016a2.1,2.1,0,0,0-1.274.361,1.139,1.139,0,0,0-.493.967.962.962,0,0,0,.459.85,6.312,6.312,0,0,0,1.855.61,8.783,8.783,0,0,1,2.192.732,3.1,3.1,0,0,1,1.182,1.021A2.6,2.6,0,0,1,181.311,16a2.753,2.753,0,0,1-1.182,2.31,5.039,5.039,0,0,1-3.1.884,5.464,5.464,0,0,1-2.314-.469,3.809,3.809,0,0,1-1.582-1.289,3.051,3.051,0,0,1-.566-1.768h2.3a1.672,1.672,0,0,0,.635,1.294,2.467,2.467,0,0,0,1.553.454,2.4,2.4,0,0,0,1.426-.356A1.1,1.1,0,0,0,178.977,16.129Zm8.936-2.49a6.282,6.282,0,0,1,1.133-3.921,3.63,3.63,0,0,1,3.037-1.479A3.449,3.449,0,0,1,194.8,9.41V4h2.373V19h-2.148l-.117-1.094a3.5,3.5,0,0,1-2.842,1.289,3.609,3.609,0,0,1-3-1.494A6.512,6.512,0,0,1,187.912,13.639Zm2.373.205a4.4,4.4,0,0,0,.62,2.515,2.012,2.012,0,0,0,1.763.9,2.241,2.241,0,0,0,2.129-1.3V11.451a2.207,2.207,0,0,0-2.109-1.27,2.027,2.027,0,0,0-1.777.913A4.9,4.9,0,0,0,190.285,13.844ZM202.17,19H199.8V8.434h2.373ZM199.65,5.68A1.275,1.275,0,0,1,200,4.765a1.3,1.3,0,0,1,.991-.364,1.32,1.32,0,0,1,1,.364,1.265,1.265,0,0,1,.352.915,1.236,1.236,0,0,1-.352.9,1.331,1.331,0,0,1-1,.359A1.314,1.314,0,0,1,200,6.58,1.245,1.245,0,0,1,199.65,5.68Zm4.688,7.959A6.18,6.18,0,0,1,205.5,9.708a3.714,3.714,0,0,1,3.071-1.47,3.48,3.48,0,0,1,2.842,1.26l.107-1.064h2.139V18.678a4.258,4.258,0,0,1-1.294,3.281,4.928,4.928,0,0,1-3.491,1.2,5.627,5.627,0,0,1-2.271-.483,4.034,4.034,0,0,1-1.685-1.265l1.123-1.426a3.392,3.392,0,0,0,2.7,1.3,2.621,2.621,0,0,0,1.865-.64,2.451,2.451,0,0,0,.684-1.88v-.713a3.494,3.494,0,0,1-2.734,1.143,3.705,3.705,0,0,1-3.032-1.475A6.38,6.38,0,0,1,204.338,13.639Zm2.363.205a4.254,4.254,0,0,0,.649,2.5,2.088,2.088,0,0,0,1.8.913,2.284,2.284,0,0,0,2.129-1.23V11.383a2.251,2.251,0,0,0-2.109-1.2,2.1,2.1,0,0,0-1.821.928A4.763,4.763,0,0,0,206.7,13.844ZM218.615,19h-2.373V8.434h2.373ZM216.1,5.68a1.275,1.275,0,0,1,.347-.915,1.3,1.3,0,0,1,.991-.364,1.32,1.32,0,0,1,1,.364,1.265,1.265,0,0,1,.352.915,1.236,1.236,0,0,1-.352.9,1.331,1.331,0,0,1-1,.359,1.314,1.314,0,0,1-.991-.359A1.245,1.245,0,0,1,216.1,5.68Zm8.076.186V8.434h1.865v1.758h-1.865v5.9a1.3,1.3,0,0,0,.239.874,1.109,1.109,0,0,0,.854.269,3.656,3.656,0,0,0,.83-.1v1.836a5.844,5.844,0,0,1-1.562.225q-2.734,0-2.734-3.018V10.191h-1.738V8.434H221.8V5.865ZM234.162,19a3.662,3.662,0,0,1-.273-.986,3.992,3.992,0,0,1-5.371.273,2.906,2.906,0,0,1-1.006-2.246,3,3,0,0,1,1.255-2.593,6.081,6.081,0,0,1,3.589-.9h1.455v-.693a1.851,1.851,0,0,0-.459-1.313,1.819,1.819,0,0,0-1.4-.493,2.09,2.09,0,0,0-1.328.405,1.254,1.254,0,0,0-.518,1.03h-2.373a2.634,2.634,0,0,1,.576-1.626,3.838,3.838,0,0,1,1.567-1.187,5.506,5.506,0,0,1,2.212-.43,4.434,4.434,0,0,1,2.959.933,3.326,3.326,0,0,1,1.133,2.622v4.766a5.4,5.4,0,0,0,.4,2.275V19Zm-2.607-1.709a2.7,2.7,0,0,0,1.323-.342,2.284,2.284,0,0,0,.933-.918V14.039h-1.279a3.5,3.5,0,0,0-1.982.459,1.487,1.487,0,0,0-.664,1.3,1.387,1.387,0,0,0,.454,1.089A1.758,1.758,0,0,0,231.555,17.291ZM241.193,19H238.82V4h2.373Zm7.236.2a4.91,4.91,0,0,1-3.657-1.421,5.154,5.154,0,0,1-1.4-3.784V13.7a6.34,6.34,0,0,1,.61-2.827A4.646,4.646,0,0,1,245.7,8.932a4.531,4.531,0,0,1,2.461-.693,4.147,4.147,0,0,1,3.335,1.377,5.823,5.823,0,0,1,1.177,3.9v.957h-6.9a3.173,3.173,0,0,0,.874,2.07,2.624,2.624,0,0,0,1.929.762,3.213,3.213,0,0,0,2.656-1.318L252.5,17.2a4.272,4.272,0,0,1-1.694,1.47A5.3,5.3,0,0,1,248.43,19.2Zm-.283-9.053a2,2,0,0,0-1.577.684,3.543,3.543,0,0,0-.767,1.9h4.521v-.176a2.884,2.884,0,0,0-.635-1.8A1.983,1.983,0,0,0,248.146,10.143Zm12.285,5.986a1.076,1.076,0,0,0-.522-.967,5.557,5.557,0,0,0-1.733-.586,8.911,8.911,0,0,1-2.021-.645,2.7,2.7,0,0,1-1.777-2.49,2.813,2.813,0,0,1,1.152-2.285,4.556,4.556,0,0,1,2.93-.918,4.74,4.74,0,0,1,3.062.938,2.975,2.975,0,0,1,1.167,2.432h-2.373a1.462,1.462,0,0,0-.508-1.138,1.946,1.946,0,0,0-1.348-.454,2.1,2.1,0,0,0-1.274.361,1.139,1.139,0,0,0-.493.967.962.962,0,0,0,.459.85,6.312,6.312,0,0,0,1.855.61,8.783,8.783,0,0,1,2.192.732,3.1,3.1,0,0,1,1.182,1.021A2.6,2.6,0,0,1,262.766,16a2.753,2.753,0,0,1-1.182,2.31,5.039,5.039,0,0,1-3.1.884,5.464,5.464,0,0,1-2.314-.469,3.809,3.809,0,0,1-1.582-1.289,3.051,3.051,0,0,1-.566-1.768h2.3a1.672,1.672,0,0,0,.635,1.294,2.467,2.467,0,0,0,1.553.454,2.4,2.4,0,0,0,1.426-.356A1.1,1.1,0,0,0,260.432,16.129Z" transform="translate(485.333 595)" fill="#12263f"/>
    <path id="Trazado_923425" data-name="Trazado 923425" d="M73.977,19H71.516V4.781h2.461Zm5.01-10.566.068,1.221a3.8,3.8,0,0,1,3.076-1.416q3.3,0,3.359,3.779V19H83.117V12.154a2.176,2.176,0,0,0-.435-1.489,1.828,1.828,0,0,0-1.421-.483,2.287,2.287,0,0,0-2.139,1.3V19H76.75V8.434ZM90.881,5.865V8.434h1.865v1.758H90.881v5.9a1.3,1.3,0,0,0,.239.874,1.109,1.109,0,0,0,.854.269,3.656,3.656,0,0,0,.83-.1v1.836a5.844,5.844,0,0,1-1.562.225q-2.734,0-2.734-3.018V10.191H86.77V8.434h1.738V5.865Zm8.33,13.33a4.91,4.91,0,0,1-3.657-1.421,5.154,5.154,0,0,1-1.4-3.784V13.7a6.34,6.34,0,0,1,.61-2.827,4.645,4.645,0,0,1,1.714-1.938,4.531,4.531,0,0,1,2.461-.693,4.147,4.147,0,0,1,3.335,1.377,5.822,5.822,0,0,1,1.177,3.9v.957h-6.9a3.173,3.173,0,0,0,.874,2.07,2.624,2.624,0,0,0,1.929.762A3.213,3.213,0,0,0,102,15.982l1.279,1.221a4.272,4.272,0,0,1-1.694,1.47A5.3,5.3,0,0,1,99.211,19.2Zm-.283-9.053a2,2,0,0,0-1.577.684,3.543,3.543,0,0,0-.767,1.9h4.521v-.176a2.884,2.884,0,0,0-.635-1.8A1.983,1.983,0,0,0,98.928,10.143Zm11.895.459a5.872,5.872,0,0,0-.967-.078,2.177,2.177,0,0,0-2.2,1.25V19h-2.373V8.434h2.266l.059,1.182a2.674,2.674,0,0,1,2.383-1.377,2.222,2.222,0,0,1,.84.137Zm2.529,8.4V10.191H111.74V8.434h1.611V7.467a3.629,3.629,0,0,1,.977-2.715,3.741,3.741,0,0,1,2.734-.957,5.485,5.485,0,0,1,1.328.176l-.059,1.855a4.674,4.674,0,0,0-.908-.078,1.524,1.524,0,0,0-1.7,1.748v.938h2.148v1.758h-2.148V19Zm12.568,0a3.662,3.662,0,0,1-.273-.986,3.992,3.992,0,0,1-5.371.273,2.906,2.906,0,0,1-1.006-2.246,3,3,0,0,1,1.255-2.593,6.081,6.081,0,0,1,3.589-.9h1.455v-.693a1.851,1.851,0,0,0-.459-1.313,1.819,1.819,0,0,0-1.4-.493,2.09,2.09,0,0,0-1.328.405,1.254,1.254,0,0,0-.518,1.03h-2.373a2.634,2.634,0,0,1,.576-1.626,3.839,3.839,0,0,1,1.567-1.187,5.506,5.506,0,0,1,2.212-.43,4.434,4.434,0,0,1,2.959.933,3.326,3.326,0,0,1,1.133,2.622v4.766a5.4,5.4,0,0,0,.4,2.275V19Zm-2.607-1.709a2.7,2.7,0,0,0,1.323-.342,2.284,2.284,0,0,0,.933-.918V14.039h-1.279a3.5,3.5,0,0,0-1.982.459,1.487,1.487,0,0,0-.664,1.3,1.387,1.387,0,0,0,.454,1.089A1.758,1.758,0,0,0,123.313,17.291Zm9.648-.186h5.625V19h-8.574V17.447l5.361-7.1h-5.264V8.434h8.271v1.5Zm12.09-3.467a6.18,6.18,0,0,1,1.157-3.931,3.714,3.714,0,0,1,3.071-1.47,3.48,3.48,0,0,1,2.842,1.26l.107-1.064h2.139V18.678a4.258,4.258,0,0,1-1.294,3.281,4.928,4.928,0,0,1-3.491,1.2,5.627,5.627,0,0,1-2.271-.483,4.034,4.034,0,0,1-1.685-1.265l1.123-1.426a3.392,3.392,0,0,0,2.7,1.3,2.621,2.621,0,0,0,1.865-.64,2.451,2.451,0,0,0,.684-1.88v-.713A3.494,3.494,0,0,1,149.26,19.2a3.705,3.705,0,0,1-3.032-1.475A6.38,6.38,0,0,1,145.051,13.639Zm2.363.205a4.254,4.254,0,0,0,.649,2.5,2.088,2.088,0,0,0,1.8.913,2.284,2.284,0,0,0,2.129-1.23V11.383a2.251,2.251,0,0,0-2.109-1.2,2.1,2.1,0,0,0-1.821.928A4.763,4.763,0,0,0,147.414,13.844ZM162.336,10.6a5.872,5.872,0,0,0-.967-.078,2.177,2.177,0,0,0-2.2,1.25V19H156.8V8.434h2.266l.059,1.182a2.674,2.674,0,0,1,2.383-1.377,2.222,2.222,0,0,1,.84.137Zm7.52,8.4a3.662,3.662,0,0,1-.273-.986,3.992,3.992,0,0,1-5.371.273,2.906,2.906,0,0,1-1.006-2.246,3,3,0,0,1,1.255-2.593,6.081,6.081,0,0,1,3.589-.9H169.5v-.693a1.851,1.851,0,0,0-.459-1.313,1.819,1.819,0,0,0-1.4-.493,2.09,2.09,0,0,0-1.328.405,1.254,1.254,0,0,0-.518,1.03H163.43a2.634,2.634,0,0,1,.576-1.626,3.838,3.838,0,0,1,1.567-1.187,5.506,5.506,0,0,1,2.212-.43,4.434,4.434,0,0,1,2.959.933,3.326,3.326,0,0,1,1.133,2.622v4.766a5.4,5.4,0,0,0,.4,2.275V19Zm-2.607-1.709a2.7,2.7,0,0,0,1.323-.342,2.284,2.284,0,0,0,.933-.918V14.039h-1.279a3.5,3.5,0,0,0-1.982.459,1.487,1.487,0,0,0-.664,1.3,1.387,1.387,0,0,0,.454,1.089A1.758,1.758,0,0,0,167.248,17.291ZM168.566,4h2.705l-2.705,2.959-1.9,0Zm6.426,15V10.191h-1.611V8.434h1.611V7.711a4.227,4.227,0,0,1,.527-2.129,3.28,3.28,0,0,1,1.465-1.338,5.273,5.273,0,0,1,2.275-.449,6.633,6.633,0,0,1,1.5.166q.718.166,1.489.42l-.361,1.963a7.554,7.554,0,0,0-2.461-.469,2.2,2.2,0,0,0-1.572.474,1.9,1.9,0,0,0-.488,1.421v.664h2.08v1.758h-2.08V19Zm8.379,0H181V8.434h2.373Zm6.973-1.7a2.146,2.146,0,0,0,1.475-.518,1.768,1.768,0,0,0,.625-1.279h2.236a3.486,3.486,0,0,1-.615,1.841A4.035,4.035,0,0,1,192.5,18.7a4.656,4.656,0,0,1-2.129.5,4.505,4.505,0,0,1-3.516-1.436,5.694,5.694,0,0,1-1.3-3.965v-.244a5.6,5.6,0,0,1,1.289-3.862,4.464,4.464,0,0,1,3.516-1.45,4.341,4.341,0,0,1,3.071,1.1,3.935,3.935,0,0,1,1.245,2.886h-2.236a2.173,2.173,0,0,0-.62-1.494,2,2,0,0,0-1.479-.586,2.088,2.088,0,0,0-1.777.835,4.261,4.261,0,0,0-.635,2.534v.381a4.331,4.331,0,0,0,.62,2.563A2.086,2.086,0,0,0,190.344,17.3ZM202.785,19a3.662,3.662,0,0,1-.273-.986,3.992,3.992,0,0,1-5.371.273,2.906,2.906,0,0,1-1.006-2.246,3,3,0,0,1,1.255-2.593,6.081,6.081,0,0,1,3.589-.9h1.455v-.693a1.851,1.851,0,0,0-.459-1.313,1.819,1.819,0,0,0-1.4-.493,2.09,2.09,0,0,0-1.328.405,1.254,1.254,0,0,0-.518,1.03h-2.373a2.634,2.634,0,0,1,.576-1.626A3.838,3.838,0,0,1,198.5,8.668a5.506,5.506,0,0,1,2.212-.43,4.434,4.434,0,0,1,2.959.933,3.326,3.326,0,0,1,1.133,2.622v4.766a5.4,5.4,0,0,0,.4,2.275V19Zm-2.607-1.709a2.7,2.7,0,0,0,1.323-.342,2.284,2.284,0,0,0,.933-.918V14.039h-1.279a3.5,3.5,0,0,0-1.982.459,1.487,1.487,0,0,0-.664,1.3,1.387,1.387,0,0,0,.454,1.089A1.758,1.758,0,0,0,200.178,17.291Z" transform="translate(840.333 595)" fill="#12263f"/>
    <path id="Trazado_923430" data-name="Trazado 923430" d="M3.526,19V4.781h4.2a6.586,6.586,0,0,1,3.345.84A5.726,5.726,0,0,1,13.331,8a7.564,7.564,0,0,1,.8,3.535v.713a7.532,7.532,0,0,1-.806,3.555,5.658,5.658,0,0,1-2.295,2.363A6.892,6.892,0,0,1,7.618,19ZM6,6.773V17.008H7.608a3.714,3.714,0,0,0,2.983-1.214,5.279,5.279,0,0,0,1.06-3.484V11.52a5.417,5.417,0,0,0-1.006-3.528,3.569,3.569,0,0,0-2.92-1.218ZM18.888,19H16.515V8.434h2.373ZM16.368,5.68a1.275,1.275,0,0,1,.347-.915,1.3,1.3,0,0,1,.991-.364,1.32,1.32,0,0,1,1,.364,1.265,1.265,0,0,1,.352.915,1.236,1.236,0,0,1-.352.9,1.331,1.331,0,0,1-1,.359,1.314,1.314,0,0,1-.991-.359A1.245,1.245,0,0,1,16.368,5.68ZM22.306,19V10.191H20.694V8.434h1.611V7.467a3.629,3.629,0,0,1,.977-2.715,3.741,3.741,0,0,1,2.734-.957,5.485,5.485,0,0,1,1.328.176l-.059,1.855a4.674,4.674,0,0,0-.908-.078,1.524,1.524,0,0,0-1.7,1.748v.938h2.148v1.758H24.679V19Zm10.674.2a4.91,4.91,0,0,1-3.657-1.421,5.154,5.154,0,0,1-1.4-3.784V13.7a6.34,6.34,0,0,1,.61-2.827,4.645,4.645,0,0,1,1.714-1.938,4.531,4.531,0,0,1,2.461-.693,4.147,4.147,0,0,1,3.335,1.377,5.823,5.823,0,0,1,1.177,3.9v.957h-6.9a3.173,3.173,0,0,0,.874,2.07,2.624,2.624,0,0,0,1.929.762,3.213,3.213,0,0,0,2.656-1.318L37.052,17.2a4.272,4.272,0,0,1-1.694,1.47A5.3,5.3,0,0,1,32.979,19.2ZM32.7,10.143a2,2,0,0,0-1.577.684,3.543,3.543,0,0,0-.767,1.9h4.521v-.176a2.884,2.884,0,0,0-.635-1.8A1.983,1.983,0,0,0,32.7,10.143Zm11.895.459a5.872,5.872,0,0,0-.967-.078,2.177,2.177,0,0,0-2.2,1.25V19H39.054V8.434h2.266l.059,1.182a2.674,2.674,0,0,1,2.383-1.377,2.222,2.222,0,0,1,.84.137ZM50.558,19.2A4.91,4.91,0,0,1,46.9,17.774a5.154,5.154,0,0,1-1.4-3.784V13.7a6.34,6.34,0,0,1,.61-2.827,4.646,4.646,0,0,1,1.714-1.938,4.531,4.531,0,0,1,2.461-.693,4.147,4.147,0,0,1,3.335,1.377,5.823,5.823,0,0,1,1.177,3.9v.957h-6.9a3.173,3.173,0,0,0,.874,2.07,2.624,2.624,0,0,0,1.929.762,3.213,3.213,0,0,0,2.656-1.318L54.63,17.2a4.272,4.272,0,0,1-1.694,1.47A5.3,5.3,0,0,1,50.558,19.2Zm-.283-9.053a2,2,0,0,0-1.577.684,3.543,3.543,0,0,0-.767,1.9h4.521v-.176a2.884,2.884,0,0,0-.635-1.8A1.983,1.983,0,0,0,50.274,10.143Zm8.564-1.709.068,1.221a3.8,3.8,0,0,1,3.076-1.416q3.3,0,3.359,3.779V19H62.97V12.154a2.176,2.176,0,0,0-.435-1.489,1.828,1.828,0,0,0-1.421-.483,2.287,2.287,0,0,0-2.139,1.3V19H56.6V8.434ZM72.1,17.3a2.146,2.146,0,0,0,1.475-.518A1.768,1.768,0,0,0,74.2,15.5h2.236a3.486,3.486,0,0,1-.615,1.841A4.035,4.035,0,0,1,74.259,18.7a4.656,4.656,0,0,1-2.129.5,4.505,4.505,0,0,1-3.516-1.436,5.694,5.694,0,0,1-1.3-3.965v-.244A5.6,5.6,0,0,1,68.6,9.688a4.464,4.464,0,0,1,3.516-1.45,4.341,4.341,0,0,1,3.071,1.1,3.935,3.935,0,0,1,1.245,2.886H74.2a2.173,2.173,0,0,0-.62-1.494,2,2,0,0,0-1.479-.586,2.088,2.088,0,0,0-1.777.835,4.261,4.261,0,0,0-.635,2.534v.381a4.331,4.331,0,0,0,.62,2.563A2.086,2.086,0,0,0,72.1,17.3ZM80.753,19H78.38V8.434h2.373ZM78.233,5.68a1.275,1.275,0,0,1,.347-.915,1.3,1.3,0,0,1,.991-.364,1.32,1.32,0,0,1,1,.364,1.265,1.265,0,0,1,.352.915,1.236,1.236,0,0,1-.352.9,1.331,1.331,0,0,1-1,.359,1.314,1.314,0,0,1-.991-.359A1.245,1.245,0,0,1,78.233,5.68ZM89.649,19a3.662,3.662,0,0,1-.273-.986A3.992,3.992,0,0,1,84,18.287,2.906,2.906,0,0,1,83,16.041a3,3,0,0,1,1.255-2.593,6.081,6.081,0,0,1,3.589-.9H89.3v-.693a1.851,1.851,0,0,0-.459-1.313,1.819,1.819,0,0,0-1.4-.493,2.09,2.09,0,0,0-1.328.405,1.254,1.254,0,0,0-.518,1.03H83.224A2.634,2.634,0,0,1,83.8,9.854a3.839,3.839,0,0,1,1.567-1.187,5.506,5.506,0,0,1,2.212-.43,4.434,4.434,0,0,1,2.959.933,3.326,3.326,0,0,1,1.133,2.622v4.766a5.4,5.4,0,0,0,.4,2.275V19Zm-2.607-1.709a2.7,2.7,0,0,0,1.323-.342,2.284,2.284,0,0,0,.933-.918V14.039H88.019a3.5,3.5,0,0,0-1.982.459,1.487,1.487,0,0,0-.664,1.3,1.387,1.387,0,0,0,.454,1.089A1.758,1.758,0,0,0,87.042,17.291Zm13.037-1.162a1.076,1.076,0,0,0-.522-.967,5.557,5.557,0,0,0-1.733-.586,8.911,8.911,0,0,1-2.021-.645,2.7,2.7,0,0,1-1.777-2.49,2.813,2.813,0,0,1,1.152-2.285,4.556,4.556,0,0,1,2.93-.918,4.74,4.74,0,0,1,3.062.938,2.975,2.975,0,0,1,1.167,2.432H99.962a1.462,1.462,0,0,0-.508-1.138,1.946,1.946,0,0,0-1.348-.454,2.1,2.1,0,0,0-1.274.361,1.139,1.139,0,0,0-.493.967.962.962,0,0,0,.459.85,6.312,6.312,0,0,0,1.855.61,8.783,8.783,0,0,1,2.192.732,3.1,3.1,0,0,1,1.182,1.021A2.6,2.6,0,0,1,102.413,16a2.753,2.753,0,0,1-1.182,2.31,5.039,5.039,0,0,1-3.1.884,5.464,5.464,0,0,1-2.314-.469,3.809,3.809,0,0,1-1.582-1.289,3.051,3.051,0,0,1-.566-1.768h2.3a1.672,1.672,0,0,0,.635,1.294,2.467,2.467,0,0,0,1.553.454,2.4,2.4,0,0,0,1.426-.356A1.1,1.1,0,0,0,100.079,16.129ZM114.112,19.2a4.91,4.91,0,0,1-3.657-1.421,5.154,5.154,0,0,1-1.4-3.784V13.7a6.34,6.34,0,0,1,.61-2.827,4.645,4.645,0,0,1,1.714-1.938,4.531,4.531,0,0,1,2.461-.693,4.147,4.147,0,0,1,3.335,1.377,5.822,5.822,0,0,1,1.177,3.9v.957h-6.9a3.173,3.173,0,0,0,.874,2.07,2.624,2.624,0,0,0,1.929.762,3.213,3.213,0,0,0,2.656-1.318l1.279,1.221a4.272,4.272,0,0,1-1.694,1.47A5.3,5.3,0,0,1,114.112,19.2Zm-.283-9.053a2,2,0,0,0-1.577.684,3.543,3.543,0,0,0-.767,1.9h4.521v-.176a2.884,2.884,0,0,0-.635-1.8A1.983,1.983,0,0,0,113.829,10.143Zm8.564-1.709.068,1.221a3.8,3.8,0,0,1,3.076-1.416q3.3,0,3.359,3.779V19h-2.373V12.154a2.176,2.176,0,0,0-.435-1.489,1.828,1.828,0,0,0-1.421-.483,2.287,2.287,0,0,0-2.139,1.3V19h-2.373V8.434Zm11.895-2.568V8.434h1.865v1.758h-1.865v5.9a1.3,1.3,0,0,0,.239.874,1.109,1.109,0,0,0,.854.269,3.656,3.656,0,0,0,.83-.1v1.836a5.844,5.844,0,0,1-1.562.225q-2.734,0-2.734-3.018V10.191h-1.738V8.434h1.738V5.865ZM143.5,10.6a5.872,5.872,0,0,0-.967-.078,2.177,2.177,0,0,0-2.2,1.25V19H137.96V8.434h2.266l.059,1.182a2.674,2.674,0,0,1,2.383-1.377,2.222,2.222,0,0,1,.84.137Zm5.967,8.594a4.91,4.91,0,0,1-3.657-1.421,5.154,5.154,0,0,1-1.4-3.784V13.7a6.34,6.34,0,0,1,.61-2.827,4.646,4.646,0,0,1,1.714-1.938,4.531,4.531,0,0,1,2.461-.693,4.147,4.147,0,0,1,3.335,1.377,5.823,5.823,0,0,1,1.177,3.9v.957h-6.9a3.173,3.173,0,0,0,.874,2.07,2.624,2.624,0,0,0,1.929.762,3.213,3.213,0,0,0,2.656-1.318l1.279,1.221a4.272,4.272,0,0,1-1.694,1.47A5.3,5.3,0,0,1,149.464,19.2Zm-.283-9.053a2,2,0,0,0-1.577.684,3.543,3.543,0,0,0-.767,1.9h4.521v-.176a2.884,2.884,0,0,0-.635-1.8A1.983,1.983,0,0,0,149.181,10.143Zm15.068,5.85,2.236-7.559h2.451L165.274,19h-2.061L159.522,8.434h2.461Zm10.693,3.2a4.91,4.91,0,0,1-3.657-1.421,5.154,5.154,0,0,1-1.4-3.784V13.7a6.34,6.34,0,0,1,.61-2.827,4.646,4.646,0,0,1,1.714-1.938,4.531,4.531,0,0,1,2.461-.693A4.147,4.147,0,0,1,178,9.615a5.823,5.823,0,0,1,1.177,3.9v.957h-6.9a3.173,3.173,0,0,0,.874,2.07,2.624,2.624,0,0,0,1.929.762,3.213,3.213,0,0,0,2.656-1.318l1.279,1.221a4.272,4.272,0,0,1-1.694,1.47A5.3,5.3,0,0,1,174.942,19.2Zm-.283-9.053a2,2,0,0,0-1.577.684,3.543,3.543,0,0,0-.767,1.9h4.521v-.176a2.884,2.884,0,0,0-.635-1.8A1.983,1.983,0,0,0,174.659,10.143Zm10.7,7.158a2.146,2.146,0,0,0,1.475-.518,1.768,1.768,0,0,0,.625-1.279H189.7a3.486,3.486,0,0,1-.615,1.841,4.035,4.035,0,0,1-1.562,1.353,4.656,4.656,0,0,1-2.129.5,4.505,4.505,0,0,1-3.516-1.436,5.694,5.694,0,0,1-1.3-3.965v-.244a5.6,5.6,0,0,1,1.289-3.862,4.464,4.464,0,0,1,3.516-1.45,4.341,4.341,0,0,1,3.071,1.1,3.935,3.935,0,0,1,1.245,2.886h-2.236a2.173,2.173,0,0,0-.62-1.494,2,2,0,0,0-1.479-.586,2.088,2.088,0,0,0-1.777.835,4.261,4.261,0,0,0-.635,2.534v.381a4.331,4.331,0,0,0,.62,2.563A2.086,2.086,0,0,0,185.362,17.3Zm9.1-11.436V8.434h1.865v1.758h-1.865v5.9a1.3,1.3,0,0,0,.239.874,1.109,1.109,0,0,0,.854.269,3.656,3.656,0,0,0,.83-.1v1.836a5.844,5.844,0,0,1-1.562.225q-2.734,0-2.734-3.018V10.191h-1.738V8.434h1.738V5.865Zm2.939,7.754a6.231,6.231,0,0,1,.615-2.8,4.493,4.493,0,0,1,1.729-1.914,4.87,4.87,0,0,1,2.559-.669,4.615,4.615,0,0,1,3.472,1.377,5.416,5.416,0,0,1,1.44,3.652l.01.557a6.286,6.286,0,0,1-.6,2.793,4.439,4.439,0,0,1-1.719,1.9,4.906,4.906,0,0,1-2.583.674,4.584,4.584,0,0,1-3.579-1.489,5.7,5.7,0,0,1-1.343-3.97Zm2.373.205a4.258,4.258,0,0,0,.674,2.554,2.191,2.191,0,0,0,1.875.923,2.167,2.167,0,0,0,1.87-.937,4.7,4.7,0,0,0,.669-2.744,4.2,4.2,0,0,0-.688-2.539,2.321,2.321,0,0,0-3.716-.015A4.614,4.614,0,0,0,199.776,13.824Zm14.99-3.223a5.872,5.872,0,0,0-.967-.078,2.177,2.177,0,0,0-2.2,1.25V19h-2.373V8.434H211.5l.059,1.182a2.674,2.674,0,0,1,2.383-1.377,2.222,2.222,0,0,1,.84.137Zm5.967,8.594a4.91,4.91,0,0,1-3.657-1.421,5.154,5.154,0,0,1-1.4-3.784V13.7a6.34,6.34,0,0,1,.61-2.827A4.646,4.646,0,0,1,218,8.932a4.531,4.531,0,0,1,2.461-.693,4.147,4.147,0,0,1,3.335,1.377,5.823,5.823,0,0,1,1.177,3.9v.957h-6.9a3.173,3.173,0,0,0,.874,2.07,2.624,2.624,0,0,0,1.929.762,3.213,3.213,0,0,0,2.656-1.318l1.279,1.221a4.272,4.272,0,0,1-1.694,1.47A5.3,5.3,0,0,1,220.733,19.2Zm-.283-9.053a2,2,0,0,0-1.577.684,3.543,3.543,0,0,0-.767,1.9h4.521v-.176a2.884,2.884,0,0,0-.635-1.8A1.983,1.983,0,0,0,220.45,10.143Zm12.285,5.986a1.076,1.076,0,0,0-.522-.967,5.557,5.557,0,0,0-1.733-.586,8.911,8.911,0,0,1-2.021-.645,2.7,2.7,0,0,1-1.777-2.49,2.813,2.813,0,0,1,1.152-2.285,4.556,4.556,0,0,1,2.93-.918,4.74,4.74,0,0,1,3.062.938,2.975,2.975,0,0,1,1.167,2.432h-2.373a1.462,1.462,0,0,0-.508-1.138,1.946,1.946,0,0,0-1.348-.454,2.1,2.1,0,0,0-1.274.361,1.139,1.139,0,0,0-.493.967.962.962,0,0,0,.459.85,6.312,6.312,0,0,0,1.855.61,8.783,8.783,0,0,1,2.192.732,3.1,3.1,0,0,1,1.182,1.021A2.6,2.6,0,0,1,235.069,16a2.753,2.753,0,0,1-1.182,2.31,5.039,5.039,0,0,1-3.1.884,5.464,5.464,0,0,1-2.314-.469,3.809,3.809,0,0,1-1.582-1.289,3.051,3.051,0,0,1-.566-1.768h2.3a1.672,1.672,0,0,0,.635,1.294,2.467,2.467,0,0,0,1.553.454,2.4,2.4,0,0,0,1.426-.356A1.1,1.1,0,0,0,232.735,16.129ZM53.58,39.6l2.148-7.168h2.529L54.059,44.6q-.967,2.666-3.281,2.666a4.231,4.231,0,0,1-1.143-.177V45.246l.449.029a2.31,2.31,0,0,0,1.353-.327,2.167,2.167,0,0,0,.718-1.1l.342-.907-3.711-10.51h2.559Zm13.252-7.168.068,1.1a3.8,3.8,0,0,1,3.047-1.3,2.921,2.921,0,0,1,2.9,1.621,3.748,3.748,0,0,1,3.242-1.621,3.294,3.294,0,0,1,2.6.967,4.257,4.257,0,0,1,.874,2.852V43H77.193V36.125a2.1,2.1,0,0,0-.439-1.475,1.924,1.924,0,0,0-1.455-.469,1.976,1.976,0,0,0-1.323.435,2.292,2.292,0,0,0-.718,1.138L73.268,43H70.895V36.047a1.693,1.693,0,0,0-1.9-1.865,2.089,2.089,0,0,0-2.021,1.162V43H64.6V32.434ZM88.316,43a3.662,3.662,0,0,1-.273-.986,3.992,3.992,0,0,1-5.371.273,2.906,2.906,0,0,1-1.006-2.246,3,3,0,0,1,1.255-2.593,6.081,6.081,0,0,1,3.589-.9h1.455v-.693a1.851,1.851,0,0,0-.459-1.313,1.819,1.819,0,0,0-1.4-.493,2.09,2.09,0,0,0-1.328.405,1.254,1.254,0,0,0-.518,1.03H81.891a2.634,2.634,0,0,1,.576-1.626,3.839,3.839,0,0,1,1.567-1.187,5.506,5.506,0,0,1,2.212-.43,4.434,4.434,0,0,1,2.959.933,3.326,3.326,0,0,1,1.133,2.622v4.766a5.4,5.4,0,0,0,.4,2.275V43Zm-2.607-1.709a2.7,2.7,0,0,0,1.323-.342,2.284,2.284,0,0,0,.933-.918V38.039H86.686A3.5,3.5,0,0,0,84.7,38.5a1.487,1.487,0,0,0-.664,1.3,1.387,1.387,0,0,0,.454,1.089A1.758,1.758,0,0,0,85.709,41.291Zm16.367-3.467a6.291,6.291,0,0,1-1.113,3.911,3.867,3.867,0,0,1-5.771.317v5.01H92.818V32.434h2.188l.1,1.074a3.485,3.485,0,0,1,2.842-1.27,3.6,3.6,0,0,1,3.032,1.44,6.459,6.459,0,0,1,1.1,4Zm-2.363-.205a4.407,4.407,0,0,0-.63-2.51,2.048,2.048,0,0,0-1.8-.928,2.184,2.184,0,0,0-2.09,1.2V40.07A2.2,2.2,0,0,0,97.3,41.3a2.045,2.045,0,0,0,1.772-.913A4.851,4.851,0,0,0,99.713,37.619ZM110.4,43a3.662,3.662,0,0,1-.273-.986,3.992,3.992,0,0,1-5.371.273,2.906,2.906,0,0,1-1.006-2.246A3,3,0,0,1,105,37.448a6.081,6.081,0,0,1,3.589-.9h1.455v-.693a1.851,1.851,0,0,0-.459-1.313,1.819,1.819,0,0,0-1.4-.493,2.09,2.09,0,0,0-1.328.405,1.254,1.254,0,0,0-.518,1.03h-2.373a2.634,2.634,0,0,1,.576-1.626,3.839,3.839,0,0,1,1.567-1.187,5.506,5.506,0,0,1,2.212-.43,4.434,4.434,0,0,1,2.959.933,3.326,3.326,0,0,1,1.133,2.622v4.766a5.4,5.4,0,0,0,.4,2.275V43Zm-2.607-1.709a2.7,2.7,0,0,0,1.323-.342,2.284,2.284,0,0,0,.933-.918V38.039h-1.279a3.5,3.5,0,0,0-1.982.459,1.487,1.487,0,0,0-.664,1.3,1.387,1.387,0,0,0,.454,1.089A1.758,1.758,0,0,0,107.789,41.291Zm13.037-1.162a1.076,1.076,0,0,0-.522-.967,5.557,5.557,0,0,0-1.733-.586,8.911,8.911,0,0,1-2.021-.645,2.7,2.7,0,0,1-1.777-2.49,2.813,2.813,0,0,1,1.152-2.285,4.556,4.556,0,0,1,2.93-.918,4.74,4.74,0,0,1,3.062.938,2.975,2.975,0,0,1,1.167,2.432h-2.373a1.462,1.462,0,0,0-.508-1.138,1.946,1.946,0,0,0-1.348-.454,2.1,2.1,0,0,0-1.274.361,1.139,1.139,0,0,0-.493.967.962.962,0,0,0,.459.85,6.312,6.312,0,0,0,1.855.61,8.783,8.783,0,0,1,2.192.732,3.1,3.1,0,0,1,1.182,1.021A2.6,2.6,0,0,1,123.16,40a2.753,2.753,0,0,1-1.182,2.31,5.039,5.039,0,0,1-3.1.884,5.464,5.464,0,0,1-2.314-.469,3.809,3.809,0,0,1-1.582-1.289,3.051,3.051,0,0,1-.566-1.768h2.3a1.672,1.672,0,0,0,.635,1.294,2.467,2.467,0,0,0,1.553.454,2.4,2.4,0,0,0,1.426-.356A1.1,1.1,0,0,0,120.826,40.129Zm8.936-2.49a6.282,6.282,0,0,1,1.133-3.921,3.63,3.63,0,0,1,3.037-1.479,3.449,3.449,0,0,1,2.715,1.172V28h2.373V43h-2.148l-.117-1.094a3.5,3.5,0,0,1-2.842,1.289,3.609,3.609,0,0,1-3-1.494A6.512,6.512,0,0,1,129.762,37.639Zm2.373.205a4.4,4.4,0,0,0,.62,2.515,2.012,2.012,0,0,0,1.763.9,2.241,2.241,0,0,0,2.129-1.3V35.451a2.207,2.207,0,0,0-2.109-1.27,2.027,2.027,0,0,0-1.777.913A4.9,4.9,0,0,0,132.135,37.844ZM146.148,43.2a4.91,4.91,0,0,1-3.657-1.421,5.154,5.154,0,0,1-1.4-3.784V37.7a6.34,6.34,0,0,1,.61-2.827,4.646,4.646,0,0,1,1.714-1.938,4.531,4.531,0,0,1,2.461-.693,4.147,4.147,0,0,1,3.335,1.377,5.823,5.823,0,0,1,1.177,3.9v.957h-6.9a3.173,3.173,0,0,0,.874,2.07,2.624,2.624,0,0,0,1.929.762,3.213,3.213,0,0,0,2.656-1.318l1.279,1.221a4.272,4.272,0,0,1-1.694,1.47A5.3,5.3,0,0,1,146.148,43.2Zm-.283-9.053a2,2,0,0,0-1.577.684,3.543,3.543,0,0,0-.767,1.9h4.521v-.176a2.884,2.884,0,0,0-.635-1.8A1.983,1.983,0,0,0,145.865,34.143Zm20.615,3.682a6.347,6.347,0,0,1-1.1,3.916,3.579,3.579,0,0,1-3.022,1.455,3.447,3.447,0,0,1-2.891-1.338L159.352,43H157.2V28h2.373v5.449a3.435,3.435,0,0,1,2.764-1.211,3.62,3.62,0,0,1,3.037,1.436,6.452,6.452,0,0,1,1.1,4.014Zm-2.373-.205a4.486,4.486,0,0,0-.605-2.578,2.016,2.016,0,0,0-1.758-.859,2.2,2.2,0,0,0-2.168,1.348v4.355a2.226,2.226,0,0,0,2.188,1.377,2,2,0,0,0,1.719-.83,4.347,4.347,0,0,0,.625-2.51ZM170.992,43h-2.373V32.434h2.373Zm-2.52-13.32a1.275,1.275,0,0,1,.347-.915,1.3,1.3,0,0,1,.991-.364,1.32,1.32,0,0,1,1,.364,1.265,1.265,0,0,1,.352.915,1.236,1.236,0,0,1-.352.9,1.331,1.331,0,0,1-1,.359,1.314,1.314,0,0,1-.991-.359A1.245,1.245,0,0,1,168.473,29.68Zm8.076.186v2.568h1.865v1.758h-1.865v5.9a1.3,1.3,0,0,0,.239.874,1.109,1.109,0,0,0,.854.269,3.656,3.656,0,0,0,.83-.1v1.836a5.845,5.845,0,0,1-1.562.225q-2.734,0-2.734-3.018V34.191h-1.738V32.434h1.738V29.865Zm9.6,10.264a1.076,1.076,0,0,0-.522-.967,5.557,5.557,0,0,0-1.733-.586,8.91,8.91,0,0,1-2.021-.645,2.7,2.7,0,0,1-1.777-2.49,2.813,2.813,0,0,1,1.152-2.285,4.556,4.556,0,0,1,2.93-.918,4.74,4.74,0,0,1,3.062.938,2.975,2.975,0,0,1,1.167,2.432h-2.373a1.462,1.462,0,0,0-.508-1.138,1.946,1.946,0,0,0-1.348-.454,2.1,2.1,0,0,0-1.274.361,1.139,1.139,0,0,0-.493.967.962.962,0,0,0,.459.85,6.312,6.312,0,0,0,1.855.61,8.783,8.783,0,0,1,2.192.732,3.1,3.1,0,0,1,1.182,1.021A2.6,2.6,0,0,1,188.482,40a2.753,2.753,0,0,1-1.182,2.31,5.039,5.039,0,0,1-3.1.884,5.464,5.464,0,0,1-2.314-.469,3.809,3.809,0,0,1-1.582-1.289,3.051,3.051,0,0,1-.566-1.768h2.3a1.672,1.672,0,0,0,.635,1.294,2.467,2.467,0,0,0,1.553.454,2.4,2.4,0,0,0,1.426-.356A1.1,1.1,0,0,0,186.148,40.129Z" transform="translate(504.333 671)" fill="#12263f"/>
    <path id="Trazado_923432" data-name="Trazado 923432" d="M1.328,11.471a2.056,2.056,0,0,1,.591-1.519,2.119,2.119,0,0,1,1.567-.591,2.141,2.141,0,0,1,1.592.591A2.1,2.1,0,0,1,5.664,11.5v.361a2.029,2.029,0,0,1-.581,1.5,2.144,2.144,0,0,1-1.587.581,2.168,2.168,0,0,1-1.558-.562,2,2,0,0,1-.61-1.47ZM13.408,19V4.781h4.873a5.949,5.949,0,0,1,3.672.967,3.405,3.405,0,0,1,1.26,2.881,3.07,3.07,0,0,1-.527,1.758A3.394,3.394,0,0,1,21.143,11.6a3.138,3.138,0,0,1,1.782,1.177,3.427,3.427,0,0,1,.63,2.075,3.785,3.785,0,0,1-1.284,3.076A5.584,5.584,0,0,1,18.594,19Zm2.471-6.416v4.424h2.744a2.663,2.663,0,0,0,1.816-.574,2.009,2.009,0,0,0,.654-1.594,2.025,2.025,0,0,0-2.266-2.256Zm0-1.816H18.3a2.8,2.8,0,0,0,1.8-.522,1.79,1.79,0,0,0,.649-1.479,1.815,1.815,0,0,0-.6-1.523,3.033,3.033,0,0,0-1.87-.469h-2.4ZM32.109,19a3.662,3.662,0,0,1-.273-.986,3.992,3.992,0,0,1-5.371.273,2.906,2.906,0,0,1-1.006-2.246,3,3,0,0,1,1.255-2.593,6.081,6.081,0,0,1,3.589-.9h1.455v-.693a1.851,1.851,0,0,0-.459-1.313,1.819,1.819,0,0,0-1.4-.493,2.09,2.09,0,0,0-1.328.405,1.254,1.254,0,0,0-.518,1.03H25.684a2.634,2.634,0,0,1,.576-1.626,3.839,3.839,0,0,1,1.567-1.187,5.506,5.506,0,0,1,2.212-.43A4.434,4.434,0,0,1,33,9.171a3.326,3.326,0,0,1,1.133,2.622v4.766a5.4,5.4,0,0,0,.4,2.275V19ZM29.5,17.291a2.7,2.7,0,0,0,1.323-.342,2.284,2.284,0,0,0,.933-.918V14.039H30.479A3.5,3.5,0,0,0,28.5,14.5a1.487,1.487,0,0,0-.664,1.3,1.387,1.387,0,0,0,.454,1.089A1.758,1.758,0,0,0,29.5,17.291ZM42.148,10.6a5.872,5.872,0,0,0-.967-.078,2.177,2.177,0,0,0-2.2,1.25V19H36.611V8.434h2.266l.059,1.182a2.674,2.674,0,0,1,2.383-1.377,2.222,2.222,0,0,1,.84.137Zm7.031,0a5.872,5.872,0,0,0-.967-.078,2.177,2.177,0,0,0-2.2,1.25V19H43.643V8.434h2.266l.059,1.182A2.674,2.674,0,0,1,48.35,8.238a2.222,2.222,0,0,1,.84.137ZM56.7,19a3.662,3.662,0,0,1-.273-.986,3.992,3.992,0,0,1-5.371.273,2.906,2.906,0,0,1-1.006-2.246A3,3,0,0,1,51.3,13.448a6.081,6.081,0,0,1,3.589-.9h1.455v-.693a1.851,1.851,0,0,0-.459-1.313,1.819,1.819,0,0,0-1.4-.493,2.09,2.09,0,0,0-1.328.405,1.254,1.254,0,0,0-.518,1.03H50.273a2.634,2.634,0,0,1,.576-1.626,3.838,3.838,0,0,1,1.567-1.187,5.506,5.506,0,0,1,2.212-.43,4.434,4.434,0,0,1,2.959.933,3.326,3.326,0,0,1,1.133,2.622v4.766a5.4,5.4,0,0,0,.4,2.275V19Zm-2.607-1.709a2.7,2.7,0,0,0,1.323-.342,2.284,2.284,0,0,0,.933-.918V14.039H55.068a3.5,3.5,0,0,0-1.982.459,1.487,1.487,0,0,0-.664,1.3,1.387,1.387,0,0,0,.454,1.089A1.758,1.758,0,0,0,54.092,17.291Zm13.037-1.162a1.076,1.076,0,0,0-.522-.967,5.557,5.557,0,0,0-1.733-.586,8.911,8.911,0,0,1-2.021-.645,2.7,2.7,0,0,1-1.777-2.49,2.813,2.813,0,0,1,1.152-2.285,4.556,4.556,0,0,1,2.93-.918,4.74,4.74,0,0,1,3.062.938,2.975,2.975,0,0,1,1.167,2.432H67.012A1.462,1.462,0,0,0,66.5,10.47a1.946,1.946,0,0,0-1.348-.454,2.1,2.1,0,0,0-1.274.361,1.139,1.139,0,0,0-.493.967.962.962,0,0,0,.459.85,6.312,6.312,0,0,0,1.855.61,8.783,8.783,0,0,1,2.192.732,3.1,3.1,0,0,1,1.182,1.021A2.6,2.6,0,0,1,69.463,16a2.753,2.753,0,0,1-1.182,2.31,5.039,5.039,0,0,1-3.1.884,5.464,5.464,0,0,1-2.314-.469,3.809,3.809,0,0,1-1.582-1.289,3.051,3.051,0,0,1-.566-1.768h2.3a1.672,1.672,0,0,0,.635,1.294,2.467,2.467,0,0,0,1.553.454,2.4,2.4,0,0,0,1.426-.356A1.1,1.1,0,0,0,67.129,16.129ZM1.328,35.471a2.056,2.056,0,0,1,.591-1.519,2.119,2.119,0,0,1,1.567-.591,2.141,2.141,0,0,1,1.592.591A2.1,2.1,0,0,1,5.664,35.5v.361a2.029,2.029,0,0,1-.581,1.5,2.144,2.144,0,0,1-1.587.581,2.168,2.168,0,0,1-1.558-.562,2,2,0,0,1-.61-1.47Zm14.551,2.256V43H13.408V28.781h5.439a5.5,5.5,0,0,1,3.784,1.242,4.175,4.175,0,0,1,1.4,3.285,4.036,4.036,0,0,1-1.372,3.256,5.766,5.766,0,0,1-3.843,1.163Zm0-1.992h2.969a2.924,2.924,0,0,0,2.012-.62,2.279,2.279,0,0,0,.693-1.792,2.459,2.459,0,0,0-.7-1.841,2.71,2.71,0,0,0-1.934-.708H15.879ZM32.168,43a3.662,3.662,0,0,1-.273-.986,3.992,3.992,0,0,1-5.371.273,2.906,2.906,0,0,1-1.006-2.246,3,3,0,0,1,1.255-2.593,6.081,6.081,0,0,1,3.589-.9h1.455v-.693a1.851,1.851,0,0,0-.459-1.313,1.819,1.819,0,0,0-1.4-.493,2.09,2.09,0,0,0-1.328.405,1.254,1.254,0,0,0-.518,1.03H25.742a2.634,2.634,0,0,1,.576-1.626,3.838,3.838,0,0,1,1.567-1.187,5.506,5.506,0,0,1,2.212-.43,4.434,4.434,0,0,1,2.959.933,3.326,3.326,0,0,1,1.133,2.622v4.766a5.4,5.4,0,0,0,.4,2.275V43Zm-2.607-1.709a2.7,2.7,0,0,0,1.323-.342,2.284,2.284,0,0,0,.933-.918V38.039H30.537a3.5,3.5,0,0,0-1.982.459,1.487,1.487,0,0,0-.664,1.3,1.387,1.387,0,0,0,.454,1.089A1.758,1.758,0,0,0,29.561,41.291Zm9.316-8.857.068,1.221a3.8,3.8,0,0,1,3.076-1.416q3.3,0,3.359,3.779V43H43.008V36.154a2.176,2.176,0,0,0-.435-1.489,1.828,1.828,0,0,0-1.421-.483,2.287,2.287,0,0,0-2.139,1.3V43H36.641V32.434ZM52.451,43.2a4.91,4.91,0,0,1-3.657-1.421,5.154,5.154,0,0,1-1.4-3.784V37.7A6.34,6.34,0,0,1,48,34.87a4.645,4.645,0,0,1,1.714-1.938,4.531,4.531,0,0,1,2.461-.693,4.147,4.147,0,0,1,3.335,1.377,5.823,5.823,0,0,1,1.177,3.9v.957h-6.9a3.173,3.173,0,0,0,.874,2.07,2.624,2.624,0,0,0,1.929.762,3.213,3.213,0,0,0,2.656-1.318L56.523,41.2a4.272,4.272,0,0,1-1.694,1.47A5.3,5.3,0,0,1,52.451,43.2Zm-.283-9.053a2,2,0,0,0-1.577.684,3.543,3.543,0,0,0-.767,1.9h4.521v-.176a2.884,2.884,0,0,0-.635-1.8A1.983,1.983,0,0,0,52.168,34.143ZM61.055,43H58.682V28h2.373Zm7.236.2a4.91,4.91,0,0,1-3.657-1.421,5.154,5.154,0,0,1-1.4-3.784V37.7a6.34,6.34,0,0,1,.61-2.827,4.645,4.645,0,0,1,1.714-1.938,4.531,4.531,0,0,1,2.461-.693,4.147,4.147,0,0,1,3.335,1.377,5.822,5.822,0,0,1,1.177,3.9v.957h-6.9a3.173,3.173,0,0,0,.874,2.07,2.624,2.624,0,0,0,1.929.762,3.213,3.213,0,0,0,2.656-1.318L72.363,41.2a4.272,4.272,0,0,1-1.694,1.47A5.3,5.3,0,0,1,68.291,43.2Zm-.283-9.053a2,2,0,0,0-1.577.684,3.543,3.543,0,0,0-.767,1.9h4.521v-.176a2.884,2.884,0,0,0-.635-1.8A1.983,1.983,0,0,0,68.008,34.143Zm12.285,5.986a1.076,1.076,0,0,0-.522-.967,5.557,5.557,0,0,0-1.733-.586,8.911,8.911,0,0,1-2.021-.645,2.7,2.7,0,0,1-1.777-2.49,2.813,2.813,0,0,1,1.152-2.285,4.556,4.556,0,0,1,2.93-.918,4.74,4.74,0,0,1,3.062.938,2.975,2.975,0,0,1,1.167,2.432H80.176a1.462,1.462,0,0,0-.508-1.138,1.946,1.946,0,0,0-1.348-.454,2.1,2.1,0,0,0-1.274.361,1.139,1.139,0,0,0-.493.967.962.962,0,0,0,.459.85,6.312,6.312,0,0,0,1.855.61,8.783,8.783,0,0,1,2.192.732,3.1,3.1,0,0,1,1.182,1.021A2.6,2.6,0,0,1,82.627,40a2.753,2.753,0,0,1-1.182,2.31,5.039,5.039,0,0,1-3.1.884,5.464,5.464,0,0,1-2.314-.469,3.809,3.809,0,0,1-1.582-1.289,3.051,3.051,0,0,1-.566-1.768h2.3a1.672,1.672,0,0,0,.635,1.294,2.467,2.467,0,0,0,1.553.454,2.4,2.4,0,0,0,1.426-.356A1.1,1.1,0,0,0,80.293,40.129ZM1.328,59.471a2.056,2.056,0,0,1,.591-1.519,2.119,2.119,0,0,1,1.567-.591,2.141,2.141,0,0,1,1.592.591A2.1,2.1,0,0,1,5.664,59.5v.361a2.029,2.029,0,0,1-.581,1.5,2.144,2.144,0,0,1-1.587.581,2.168,2.168,0,0,1-1.558-.562,2,2,0,0,1-.61-1.47Zm15.283-6.689,4.1,10.9,4.092-10.9H28V67H25.537V62.313l.244-6.27L21.582,67H19.814L15.625,56.053l.244,6.26V67H13.408V52.781ZM35.342,67.2a4.91,4.91,0,0,1-3.657-1.421,5.154,5.154,0,0,1-1.4-3.784V61.7a6.34,6.34,0,0,1,.61-2.827,4.645,4.645,0,0,1,1.714-1.938,4.531,4.531,0,0,1,2.461-.693A4.147,4.147,0,0,1,38.4,57.615a5.823,5.823,0,0,1,1.177,3.9v.957h-6.9a3.173,3.173,0,0,0,.874,2.07,2.624,2.624,0,0,0,1.929.762,3.213,3.213,0,0,0,2.656-1.318L39.414,65.2a4.272,4.272,0,0,1-1.694,1.47A5.3,5.3,0,0,1,35.342,67.2Zm-.283-9.053a2,2,0,0,0-1.577.684,3.543,3.543,0,0,0-.767,1.9h4.521v-.176a2.884,2.884,0,0,0-.635-1.8A1.983,1.983,0,0,0,35.059,58.143Zm8.564-1.709.068,1.221a3.8,3.8,0,0,1,3.076-1.416q3.3,0,3.359,3.779V67H47.754V60.154a2.176,2.176,0,0,0-.435-1.489,1.828,1.828,0,0,0-1.421-.483,2.287,2.287,0,0,0-2.139,1.3V67H41.387V56.434Zm15.322,9.531a3.68,3.68,0,0,1-2.969,1.23,3.28,3.28,0,0,1-2.6-1.006,4.279,4.279,0,0,1-.884-2.91V56.434h2.373V63.25q0,2.012,1.67,2.012a2.345,2.345,0,0,0,2.334-1.24V56.434H61.24V67H59ZM57.588,52h2.705l-2.705,2.959-1.9,0ZM69.58,64.129a1.076,1.076,0,0,0-.522-.967,5.557,5.557,0,0,0-1.733-.586,8.911,8.911,0,0,1-2.021-.645,2.7,2.7,0,0,1-1.777-2.49,2.813,2.813,0,0,1,1.152-2.285,4.556,4.556,0,0,1,2.93-.918,4.74,4.74,0,0,1,3.062.938,2.975,2.975,0,0,1,1.167,2.432H69.463a1.462,1.462,0,0,0-.508-1.138,1.946,1.946,0,0,0-1.348-.454,2.1,2.1,0,0,0-1.274.361,1.139,1.139,0,0,0-.493.967.962.962,0,0,0,.459.85,6.312,6.312,0,0,0,1.855.61,8.783,8.783,0,0,1,2.192.732,3.1,3.1,0,0,1,1.182,1.021A2.6,2.6,0,0,1,71.914,64a2.753,2.753,0,0,1-1.182,2.31,5.039,5.039,0,0,1-3.1.884,5.464,5.464,0,0,1-2.314-.469,3.809,3.809,0,0,1-1.582-1.289,3.051,3.051,0,0,1-.566-1.768h2.3a1.672,1.672,0,0,0,.635,1.294,2.467,2.467,0,0,0,1.553.454,2.4,2.4,0,0,0,1.426-.356A1.1,1.1,0,0,0,69.58,64.129Z" transform="translate(930.333 674)" fill="#12263f"/>
    <path id="Trazado_923437" data-name="Trazado 923437" d="M1.328,11.471a2.056,2.056,0,0,1,.591-1.519,2.119,2.119,0,0,1,1.567-.591,2.141,2.141,0,0,1,1.592.591A2.1,2.1,0,0,1,5.664,11.5v.361a2.029,2.029,0,0,1-.581,1.5,2.144,2.144,0,0,1-1.587.581,2.168,2.168,0,0,1-1.558-.562,2,2,0,0,1-.61-1.47Zm14.551,2.256V19H13.408V4.781h5.439a5.5,5.5,0,0,1,3.784,1.242,4.175,4.175,0,0,1,1.4,3.285,4.036,4.036,0,0,1-1.372,3.256,5.766,5.766,0,0,1-3.843,1.163Zm0-1.992h2.969a2.924,2.924,0,0,0,2.012-.62,2.279,2.279,0,0,0,.693-1.792,2.459,2.459,0,0,0-.7-1.841,2.71,2.71,0,0,0-1.934-.708H15.879ZM30.488,19.2a4.91,4.91,0,0,1-3.657-1.421,5.154,5.154,0,0,1-1.4-3.784V13.7a6.34,6.34,0,0,1,.61-2.827,4.645,4.645,0,0,1,1.714-1.938,4.531,4.531,0,0,1,2.461-.693A4.147,4.147,0,0,1,33.55,9.615a5.823,5.823,0,0,1,1.177,3.9v.957h-6.9a3.173,3.173,0,0,0,.874,2.07,2.624,2.624,0,0,0,1.929.762,3.213,3.213,0,0,0,2.656-1.318L34.561,17.2a4.272,4.272,0,0,1-1.694,1.47A5.3,5.3,0,0,1,30.488,19.2Zm-.283-9.053a2,2,0,0,0-1.577.684,3.543,3.543,0,0,0-.767,1.9h4.521v-.176a2.884,2.884,0,0,0-.635-1.8A1.983,1.983,0,0,0,30.205,10.143ZM42.1,10.6a5.872,5.872,0,0,0-.967-.078,2.177,2.177,0,0,0-2.2,1.25V19H36.563V8.434h2.266l.059,1.182A2.674,2.674,0,0,1,41.27,8.238a2.222,2.222,0,0,1,.84.137Zm7.422,5.527A1.076,1.076,0,0,0,49,15.162a5.557,5.557,0,0,0-1.733-.586,8.911,8.911,0,0,1-2.021-.645,2.7,2.7,0,0,1-1.777-2.49,2.813,2.813,0,0,1,1.152-2.285,4.556,4.556,0,0,1,2.93-.918,4.74,4.74,0,0,1,3.062.938,2.975,2.975,0,0,1,1.167,2.432H49.4A1.462,1.462,0,0,0,48.9,10.47a1.946,1.946,0,0,0-1.348-.454,2.1,2.1,0,0,0-1.274.361,1.139,1.139,0,0,0-.493.967.962.962,0,0,0,.459.85,6.312,6.312,0,0,0,1.855.61,8.783,8.783,0,0,1,2.192.732,3.1,3.1,0,0,1,1.182,1.021A2.6,2.6,0,0,1,51.855,16a2.753,2.753,0,0,1-1.182,2.31,5.039,5.039,0,0,1-3.1.884,5.464,5.464,0,0,1-2.314-.469,3.809,3.809,0,0,1-1.582-1.289,3.051,3.051,0,0,1-.566-1.768h2.3a1.672,1.672,0,0,0,.635,1.294,2.467,2.467,0,0,0,1.553.454,2.4,2.4,0,0,0,1.426-.356A1.1,1.1,0,0,0,49.521,16.129Zm3.955-2.51a6.231,6.231,0,0,1,.615-2.8A4.493,4.493,0,0,1,55.82,8.907a4.87,4.87,0,0,1,2.559-.669,4.615,4.615,0,0,1,3.472,1.377,5.416,5.416,0,0,1,1.44,3.652l.01.557a6.286,6.286,0,0,1-.6,2.793,4.439,4.439,0,0,1-1.719,1.9A4.906,4.906,0,0,1,58.4,19.2a4.584,4.584,0,0,1-3.579-1.489,5.7,5.7,0,0,1-1.343-3.97Zm2.373.205a4.258,4.258,0,0,0,.674,2.554A2.191,2.191,0,0,0,58.4,17.3a2.167,2.167,0,0,0,1.87-.937,4.7,4.7,0,0,0,.669-2.744,4.2,4.2,0,0,0-.688-2.539,2.321,2.321,0,0,0-3.716-.015A4.614,4.614,0,0,0,55.85,13.824ZM67.51,8.434l.068,1.221a3.8,3.8,0,0,1,3.076-1.416q3.3,0,3.359,3.779V19H71.641V12.154a2.176,2.176,0,0,0-.435-1.489,1.828,1.828,0,0,0-1.421-.483,2.287,2.287,0,0,0-2.139,1.3V19H65.273V8.434ZM82.744,19a3.662,3.662,0,0,1-.273-.986,3.992,3.992,0,0,1-5.371.273,2.906,2.906,0,0,1-1.006-2.246,3,3,0,0,1,1.255-2.593,6.081,6.081,0,0,1,3.589-.9h1.455v-.693a1.851,1.851,0,0,0-.459-1.313,1.819,1.819,0,0,0-1.4-.493,2.09,2.09,0,0,0-1.328.405,1.254,1.254,0,0,0-.518,1.03H76.318a2.634,2.634,0,0,1,.576-1.626,3.839,3.839,0,0,1,1.567-1.187,5.506,5.506,0,0,1,2.212-.43,4.434,4.434,0,0,1,2.959.933,3.326,3.326,0,0,1,1.133,2.622v4.766a5.4,5.4,0,0,0,.4,2.275V19Zm-2.607-1.709a2.7,2.7,0,0,0,1.323-.342,2.284,2.284,0,0,0,.933-.918V14.039H81.113a3.5,3.5,0,0,0-1.982.459,1.487,1.487,0,0,0-.664,1.3,1.387,1.387,0,0,0,.454,1.089A1.758,1.758,0,0,0,80.137,17.291ZM89.775,19H87.4V4h2.373Zm5.107,0H92.51V8.434h2.373ZM92.363,5.68a1.275,1.275,0,0,1,.347-.915A1.3,1.3,0,0,1,93.7,4.4a1.32,1.32,0,0,1,1,.364,1.265,1.265,0,0,1,.352.915,1.236,1.236,0,0,1-.352.9,1.331,1.331,0,0,1-1,.359,1.314,1.314,0,0,1-.991-.359A1.245,1.245,0,0,1,92.363,5.68ZM100,17.105h5.625V19H97.051V17.447l5.361-7.1H97.148V8.434h8.271v1.5ZM113.838,19a3.662,3.662,0,0,1-.273-.986,3.992,3.992,0,0,1-5.371.273,2.906,2.906,0,0,1-1.006-2.246,3,3,0,0,1,1.255-2.593,6.081,6.081,0,0,1,3.589-.9h1.455v-.693a1.851,1.851,0,0,0-.459-1.313,1.819,1.819,0,0,0-1.4-.493,2.09,2.09,0,0,0-1.328.405,1.254,1.254,0,0,0-.518,1.03h-2.373a2.634,2.634,0,0,1,.576-1.626,3.839,3.839,0,0,1,1.567-1.187,5.506,5.506,0,0,1,2.212-.43,4.434,4.434,0,0,1,2.959.933,3.326,3.326,0,0,1,1.133,2.622v4.766a5.4,5.4,0,0,0,.4,2.275V19Zm-2.607-1.709a2.7,2.7,0,0,0,1.323-.342,2.284,2.284,0,0,0,.933-.918V14.039h-1.279a3.5,3.5,0,0,0-1.982.459,1.487,1.487,0,0,0-.664,1.3,1.387,1.387,0,0,0,.454,1.089A1.758,1.758,0,0,0,111.23,17.291Zm11.455.01a2.146,2.146,0,0,0,1.475-.518,1.768,1.768,0,0,0,.625-1.279h2.236a3.486,3.486,0,0,1-.615,1.841,4.035,4.035,0,0,1-1.562,1.353,4.656,4.656,0,0,1-2.129.5A4.505,4.505,0,0,1,119.2,17.76a5.694,5.694,0,0,1-1.3-3.965v-.244a5.6,5.6,0,0,1,1.289-3.862,4.464,4.464,0,0,1,3.516-1.45,4.341,4.341,0,0,1,3.071,1.1,3.935,3.935,0,0,1,1.245,2.886h-2.236a2.173,2.173,0,0,0-.62-1.494,2,2,0,0,0-1.479-.586,2.088,2.088,0,0,0-1.777.835,4.261,4.261,0,0,0-.635,2.534v.381a4.331,4.331,0,0,0,.62,2.563A2.086,2.086,0,0,0,122.686,17.3Zm8.652,1.7h-2.373V8.434h2.373Zm-2.52-13.32a1.275,1.275,0,0,1,.347-.915,1.3,1.3,0,0,1,.991-.364,1.32,1.32,0,0,1,1,.364,1.265,1.265,0,0,1,.352.915,1.236,1.236,0,0,1-.352.9,1.331,1.331,0,0,1-1,.359,1.314,1.314,0,0,1-.991-.359A1.245,1.245,0,0,1,128.818,5.68Zm4.658,7.939a6.231,6.231,0,0,1,.615-2.8,4.493,4.493,0,0,1,1.729-1.914,4.87,4.87,0,0,1,2.559-.669,4.615,4.615,0,0,1,3.472,1.377,5.416,5.416,0,0,1,1.44,3.652l.01.557a6.286,6.286,0,0,1-.6,2.793,4.439,4.439,0,0,1-1.719,1.9,4.906,4.906,0,0,1-2.583.674,4.584,4.584,0,0,1-3.579-1.489,5.7,5.7,0,0,1-1.343-3.97Zm2.373.205a4.258,4.258,0,0,0,.674,2.554,2.191,2.191,0,0,0,1.875.923,2.167,2.167,0,0,0,1.87-.937,4.7,4.7,0,0,0,.669-2.744,4.2,4.2,0,0,0-.688-2.539,2.321,2.321,0,0,0-3.716-.015A4.614,4.614,0,0,0,135.85,13.824ZM139.033,4h2.705l-2.705,2.959-1.9,0Zm8.477,4.434.068,1.221a3.8,3.8,0,0,1,3.076-1.416q3.3,0,3.359,3.779V19h-2.373V12.154a2.176,2.176,0,0,0-.435-1.489,1.828,1.828,0,0,0-1.421-.483,2.287,2.287,0,0,0-2.139,1.3V19h-2.373V8.434ZM1.328,35.471a2.056,2.056,0,0,1,.591-1.519,2.119,2.119,0,0,1,1.567-.591,2.141,2.141,0,0,1,1.592.591A2.1,2.1,0,0,1,5.664,35.5v.361a2.029,2.029,0,0,1-.581,1.5,2.144,2.144,0,0,1-1.587.581,2.168,2.168,0,0,1-1.558-.562,2,2,0,0,1-.61-1.47Zm20.039,4.219H15.859L14.707,43H12.139L17.51,28.781h2.217L25.107,43H22.529ZM16.553,37.7h4.121l-2.061-5.9Zm9.492-.059a6.282,6.282,0,0,1,1.133-3.921,3.63,3.63,0,0,1,3.037-1.479A3.449,3.449,0,0,1,32.93,33.41V28H35.3V43H33.154l-.117-1.094A3.5,3.5,0,0,1,30.2,43.2a3.609,3.609,0,0,1-3-1.494A6.512,6.512,0,0,1,26.045,37.639Zm2.373.205a4.4,4.4,0,0,0,.62,2.515,2.012,2.012,0,0,0,1.763.9,2.241,2.241,0,0,0,2.129-1.3V35.451a2.207,2.207,0,0,0-2.109-1.27,2.027,2.027,0,0,0-1.777.913A4.9,4.9,0,0,0,28.418,37.844Zm11.592-5.41.068,1.1a3.8,3.8,0,0,1,3.047-1.3,2.921,2.921,0,0,1,2.9,1.621,3.748,3.748,0,0,1,3.242-1.621,3.294,3.294,0,0,1,2.6.967,4.257,4.257,0,0,1,.874,2.852V43H50.371V36.125a2.1,2.1,0,0,0-.439-1.475,1.924,1.924,0,0,0-1.455-.469,1.976,1.976,0,0,0-1.323.435,2.292,2.292,0,0,0-.718,1.138L46.445,43H44.072V36.047a1.693,1.693,0,0,0-1.9-1.865,2.089,2.089,0,0,0-2.021,1.162V43H37.773V32.434ZM57.705,43H55.332V32.434h2.373Zm-2.52-13.32a1.275,1.275,0,0,1,.347-.915,1.3,1.3,0,0,1,.991-.364,1.32,1.32,0,0,1,1,.364,1.265,1.265,0,0,1,.352.915,1.236,1.236,0,0,1-.352.9,1.331,1.331,0,0,1-1,.359,1.314,1.314,0,0,1-.991-.359A1.245,1.245,0,0,1,55.186,29.68Zm7.3,2.754.068,1.221a3.8,3.8,0,0,1,3.076-1.416q3.3,0,3.359,3.779V43H66.621V36.154a2.176,2.176,0,0,0-.435-1.489,1.828,1.828,0,0,0-1.421-.483,2.287,2.287,0,0,0-2.139,1.3V43H60.254V32.434ZM73.936,43H71.563V32.434h2.373Zm-2.52-13.32a1.275,1.275,0,0,1,.347-.915,1.3,1.3,0,0,1,.991-.364,1.32,1.32,0,0,1,1,.364,1.265,1.265,0,0,1,.352.915,1.236,1.236,0,0,1-.352.9,1.331,1.331,0,0,1-1,.359,1.314,1.314,0,0,1-.991-.359A1.245,1.245,0,0,1,71.416,29.68ZM82.441,40.129a1.076,1.076,0,0,0-.522-.967,5.557,5.557,0,0,0-1.733-.586,8.911,8.911,0,0,1-2.021-.645,2.7,2.7,0,0,1-1.777-2.49,2.813,2.813,0,0,1,1.152-2.285,4.556,4.556,0,0,1,2.93-.918,4.74,4.74,0,0,1,3.062.938A2.975,2.975,0,0,1,84.7,35.607H82.324a1.462,1.462,0,0,0-.508-1.138,1.946,1.946,0,0,0-1.348-.454,2.1,2.1,0,0,0-1.274.361,1.139,1.139,0,0,0-.493.967.962.962,0,0,0,.459.85,6.312,6.312,0,0,0,1.855.61,8.783,8.783,0,0,1,2.192.732,3.1,3.1,0,0,1,1.182,1.021A2.6,2.6,0,0,1,84.775,40a2.753,2.753,0,0,1-1.182,2.31,5.039,5.039,0,0,1-3.1.884,5.464,5.464,0,0,1-2.314-.469A3.809,3.809,0,0,1,76.6,41.438a3.051,3.051,0,0,1-.566-1.768h2.3a1.672,1.672,0,0,0,.635,1.294,2.467,2.467,0,0,0,1.553.454,2.4,2.4,0,0,0,1.426-.356A1.1,1.1,0,0,0,82.441,40.129Zm7.373-10.264v2.568H91.68v1.758H89.814v5.9a1.3,1.3,0,0,0,.239.874,1.109,1.109,0,0,0,.854.269,3.656,3.656,0,0,0,.83-.1v1.836a5.845,5.845,0,0,1-1.562.225q-2.734,0-2.734-3.018V34.191H85.7V32.434h1.738V29.865ZM99.023,34.6a5.872,5.872,0,0,0-.967-.078,2.177,2.177,0,0,0-2.2,1.25V43H93.486V32.434h2.266l.059,1.182a2.674,2.674,0,0,1,2.383-1.377,2.222,2.222,0,0,1,.84.137Zm7.52,8.4a3.662,3.662,0,0,1-.273-.986,3.992,3.992,0,0,1-5.371.273,2.906,2.906,0,0,1-1.006-2.246,3,3,0,0,1,1.255-2.593,6.081,6.081,0,0,1,3.589-.9h1.455v-.693a1.851,1.851,0,0,0-.459-1.313,1.819,1.819,0,0,0-1.4-.493,2.09,2.09,0,0,0-1.328.405,1.254,1.254,0,0,0-.518,1.03h-2.373a2.634,2.634,0,0,1,.576-1.626,3.839,3.839,0,0,1,1.567-1.187,5.506,5.506,0,0,1,2.212-.43,4.434,4.434,0,0,1,2.959.933,3.326,3.326,0,0,1,1.133,2.622v4.766a5.4,5.4,0,0,0,.4,2.275V43Zm-2.607-1.709a2.7,2.7,0,0,0,1.323-.342,2.284,2.284,0,0,0,.933-.918V38.039h-1.279a3.5,3.5,0,0,0-1.982.459,1.487,1.487,0,0,0-.664,1.3,1.387,1.387,0,0,0,.454,1.089A1.758,1.758,0,0,0,103.936,41.291Zm11.455.01a2.146,2.146,0,0,0,1.475-.518,1.768,1.768,0,0,0,.625-1.279h2.236a3.486,3.486,0,0,1-.615,1.841,4.035,4.035,0,0,1-1.562,1.353,4.656,4.656,0,0,1-2.129.5A4.505,4.505,0,0,1,111.9,41.76a5.694,5.694,0,0,1-1.3-3.965v-.244a5.6,5.6,0,0,1,1.289-3.862,4.464,4.464,0,0,1,3.516-1.45,4.341,4.341,0,0,1,3.071,1.1,3.935,3.935,0,0,1,1.245,2.886H117.49a2.173,2.173,0,0,0-.62-1.494,2,2,0,0,0-1.479-.586,2.088,2.088,0,0,0-1.777.835,4.261,4.261,0,0,0-.635,2.534v.381a4.331,4.331,0,0,0,.62,2.563A2.086,2.086,0,0,0,115.391,41.3Zm8.652,1.7H121.67V32.434h2.373Zm-2.52-13.32a1.275,1.275,0,0,1,.347-.915,1.3,1.3,0,0,1,.991-.364,1.32,1.32,0,0,1,1,.364,1.265,1.265,0,0,1,.352.915,1.236,1.236,0,0,1-.352.9,1.331,1.331,0,0,1-1,.359,1.314,1.314,0,0,1-.991-.359A1.245,1.245,0,0,1,121.523,29.68Zm4.658,7.939a6.231,6.231,0,0,1,.615-2.8,4.493,4.493,0,0,1,1.729-1.914,4.87,4.87,0,0,1,2.559-.669,4.615,4.615,0,0,1,3.472,1.377A5.416,5.416,0,0,1,136,37.268l.01.557a6.286,6.286,0,0,1-.6,2.793,4.439,4.439,0,0,1-1.719,1.9,4.906,4.906,0,0,1-2.583.674,4.584,4.584,0,0,1-3.579-1.489,5.7,5.7,0,0,1-1.343-3.97Zm2.373.205a4.258,4.258,0,0,0,.674,2.554,2.191,2.191,0,0,0,1.875.923,2.167,2.167,0,0,0,1.87-.937,4.7,4.7,0,0,0,.669-2.744,4.2,4.2,0,0,0-.688-2.539,2.321,2.321,0,0,0-3.716-.015A4.614,4.614,0,0,0,128.555,37.824ZM131.738,28h2.705l-2.705,2.959-1.9,0Zm8.477,4.434.068,1.221a3.8,3.8,0,0,1,3.076-1.416q3.3,0,3.359,3.779V43h-2.373V36.154a2.176,2.176,0,0,0-.435-1.489,1.828,1.828,0,0,0-1.421-.483,2.287,2.287,0,0,0-2.139,1.3V43h-2.373V32.434Z" transform="translate(1097.333 788)" fill="#12263f"/>
    <path id="Trazado_923433" data-name="Trazado 923433" d="M9.756,12.652H3.916v4.355h6.826V19h-9.3V4.781h9.229V6.773H3.916V10.7h5.84Zm8.691,3.477a1.076,1.076,0,0,0-.522-.967,5.557,5.557,0,0,0-1.733-.586,8.911,8.911,0,0,1-2.021-.645,2.7,2.7,0,0,1-1.777-2.49,2.813,2.813,0,0,1,1.152-2.285,4.556,4.556,0,0,1,2.93-.918,4.74,4.74,0,0,1,3.062.938A2.975,2.975,0,0,1,20.7,11.607H18.33a1.462,1.462,0,0,0-.508-1.138,1.946,1.946,0,0,0-1.348-.454,2.1,2.1,0,0,0-1.274.361,1.139,1.139,0,0,0-.493.967.962.962,0,0,0,.459.85,6.312,6.312,0,0,0,1.855.61,8.783,8.783,0,0,1,2.192.732A3.1,3.1,0,0,1,20.4,14.557,2.6,2.6,0,0,1,20.781,16a2.753,2.753,0,0,1-1.182,2.31,5.039,5.039,0,0,1-3.1.884,5.464,5.464,0,0,1-2.314-.469,3.809,3.809,0,0,1-1.582-1.289,3.051,3.051,0,0,1-.566-1.768h2.3a1.672,1.672,0,0,0,.635,1.294,2.467,2.467,0,0,0,1.553.454,2.4,2.4,0,0,0,1.426-.356A1.1,1.1,0,0,0,18.447,16.129Zm13.652-2.3a6.291,6.291,0,0,1-1.113,3.911,3.867,3.867,0,0,1-5.771.317v5.01H22.842V8.434h2.188l.1,1.074a3.485,3.485,0,0,1,2.842-1.27A3.6,3.6,0,0,1,31,9.679a6.459,6.459,0,0,1,1.1,4Zm-2.363-.205a4.407,4.407,0,0,0-.63-2.51,2.048,2.048,0,0,0-1.8-.928,2.184,2.184,0,0,0-2.09,1.2V16.07a2.2,2.2,0,0,0,2.109,1.23,2.045,2.045,0,0,0,1.772-.913A4.851,4.851,0,0,0,29.736,13.619ZM40.42,19a3.662,3.662,0,0,1-.273-.986,3.992,3.992,0,0,1-5.371.273,2.906,2.906,0,0,1-1.006-2.246,3,3,0,0,1,1.255-2.593,6.081,6.081,0,0,1,3.589-.9h1.455v-.693a1.851,1.851,0,0,0-.459-1.313,1.819,1.819,0,0,0-1.4-.493,2.09,2.09,0,0,0-1.328.405,1.254,1.254,0,0,0-.518,1.03H33.994a2.634,2.634,0,0,1,.576-1.626,3.838,3.838,0,0,1,1.567-1.187,5.506,5.506,0,0,1,2.212-.43,4.434,4.434,0,0,1,2.959.933,3.326,3.326,0,0,1,1.133,2.622v4.766a5.4,5.4,0,0,0,.4,2.275V19Zm-2.607-1.709a2.7,2.7,0,0,0,1.323-.342,2.284,2.284,0,0,0,.933-.918V14.039H38.789a3.5,3.5,0,0,0-1.982.459,1.487,1.487,0,0,0-.664,1.3,1.387,1.387,0,0,0,.454,1.089A1.758,1.758,0,0,0,37.813,17.291Zm11.455.01a2.146,2.146,0,0,0,1.475-.518,1.768,1.768,0,0,0,.625-1.279H53.6a3.486,3.486,0,0,1-.615,1.841A4.035,4.035,0,0,1,51.426,18.7a4.656,4.656,0,0,1-2.129.5,4.505,4.505,0,0,1-3.516-1.436,5.694,5.694,0,0,1-1.3-3.965v-.244a5.6,5.6,0,0,1,1.289-3.862,4.464,4.464,0,0,1,3.516-1.45,4.341,4.341,0,0,1,3.071,1.1A3.935,3.935,0,0,1,53.6,12.223H51.367a2.173,2.173,0,0,0-.62-1.494,2,2,0,0,0-1.479-.586,2.088,2.088,0,0,0-1.777.835,4.261,4.261,0,0,0-.635,2.534v.381a4.331,4.331,0,0,0,.62,2.563A2.086,2.086,0,0,0,49.268,17.3ZM57.92,19H55.547V8.434H57.92ZM55.4,5.68a1.275,1.275,0,0,1,.347-.915,1.3,1.3,0,0,1,.991-.364,1.32,1.32,0,0,1,1,.364,1.265,1.265,0,0,1,.352.915,1.236,1.236,0,0,1-.352.9,1.331,1.331,0,0,1-1,.359,1.314,1.314,0,0,1-.991-.359A1.245,1.245,0,0,1,55.4,5.68Zm4.658,7.939a6.231,6.231,0,0,1,.615-2.8A4.493,4.493,0,0,1,62.4,8.907a4.87,4.87,0,0,1,2.559-.669,4.615,4.615,0,0,1,3.472,1.377,5.416,5.416,0,0,1,1.44,3.652l.01.557a6.286,6.286,0,0,1-.6,2.793,4.439,4.439,0,0,1-1.719,1.9,4.906,4.906,0,0,1-2.583.674A4.584,4.584,0,0,1,61.4,17.706a5.7,5.7,0,0,1-1.343-3.97Zm2.373.205a4.258,4.258,0,0,0,.674,2.554,2.191,2.191,0,0,0,1.875.923,2.167,2.167,0,0,0,1.87-.937,4.7,4.7,0,0,0,.669-2.744,4.2,4.2,0,0,0-.688-2.539,2.321,2.321,0,0,0-3.716-.015A4.614,4.614,0,0,0,62.432,13.824Zm13.994-.186a6.282,6.282,0,0,1,1.133-3.921A3.63,3.63,0,0,1,80.6,8.238,3.449,3.449,0,0,1,83.311,9.41V4h2.373V19H83.535l-.117-1.094A3.5,3.5,0,0,1,80.576,19.2a3.609,3.609,0,0,1-3-1.494A6.512,6.512,0,0,1,76.426,13.639Zm2.373.205a4.4,4.4,0,0,0,.62,2.515,2.012,2.012,0,0,0,1.763.9,2.241,2.241,0,0,0,2.129-1.3V11.451a2.207,2.207,0,0,0-2.109-1.27,2.027,2.027,0,0,0-1.777.913A4.9,4.9,0,0,0,78.8,13.844ZM92.813,19.2a4.91,4.91,0,0,1-3.657-1.421,5.154,5.154,0,0,1-1.4-3.784V13.7a6.34,6.34,0,0,1,.61-2.827,4.645,4.645,0,0,1,1.714-1.938,4.531,4.531,0,0,1,2.461-.693,4.147,4.147,0,0,1,3.335,1.377,5.822,5.822,0,0,1,1.177,3.9v.957h-6.9a3.173,3.173,0,0,0,.874,2.07,2.624,2.624,0,0,0,1.929.762,3.213,3.213,0,0,0,2.656-1.318L96.885,17.2a4.272,4.272,0,0,1-1.694,1.47A5.3,5.3,0,0,1,92.813,19.2Zm-.283-9.053a2,2,0,0,0-1.577.684,3.543,3.543,0,0,0-.767,1.9h4.521v-.176a2.884,2.884,0,0,0-.635-1.8A1.983,1.983,0,0,0,92.529,10.143Zm14.316-4.277V8.434h1.865v1.758h-1.865v5.9a1.3,1.3,0,0,0,.239.874,1.109,1.109,0,0,0,.854.269,3.656,3.656,0,0,0,.83-.1v1.836a5.844,5.844,0,0,1-1.562.225q-2.734,0-2.734-3.018V10.191h-1.738V8.434h1.738V5.865Zm9.209,4.736a5.872,5.872,0,0,0-.967-.078,2.177,2.177,0,0,0-2.2,1.25V19h-2.373V8.434h2.266l.059,1.182a2.674,2.674,0,0,1,2.383-1.377,2.222,2.222,0,0,1,.84.137Zm7.52,8.4a3.662,3.662,0,0,1-.273-.986,3.992,3.992,0,0,1-5.371.273,2.906,2.906,0,0,1-1.006-2.246,3,3,0,0,1,1.255-2.593,6.081,6.081,0,0,1,3.589-.9h1.455v-.693a1.851,1.851,0,0,0-.459-1.313,1.819,1.819,0,0,0-1.4-.493,2.09,2.09,0,0,0-1.328.405,1.254,1.254,0,0,0-.518,1.03h-2.373a2.634,2.634,0,0,1,.576-1.626,3.839,3.839,0,0,1,1.567-1.187,5.506,5.506,0,0,1,2.212-.43,4.434,4.434,0,0,1,2.959.933,3.326,3.326,0,0,1,1.133,2.622v4.766a5.4,5.4,0,0,0,.4,2.275V19Zm-2.607-1.709a2.7,2.7,0,0,0,1.323-.342,2.284,2.284,0,0,0,.933-.918V14.039h-1.279a3.5,3.5,0,0,0-1.982.459,1.487,1.487,0,0,0-.664,1.3,1.387,1.387,0,0,0,.454,1.089A1.758,1.758,0,0,0,120.967,17.291Zm16.387-3.467a6.347,6.347,0,0,1-1.1,3.916,3.579,3.579,0,0,1-3.022,1.455,3.447,3.447,0,0,1-2.891-1.338L130.225,19h-2.148V4h2.373V9.449a3.435,3.435,0,0,1,2.764-1.211,3.62,3.62,0,0,1,3.037,1.436,6.452,6.452,0,0,1,1.1,4.014Zm-2.373-.205a4.486,4.486,0,0,0-.605-2.578,2.016,2.016,0,0,0-1.758-.859,2.2,2.2,0,0,0-2.168,1.348v4.355a2.226,2.226,0,0,0,2.188,1.377,2,2,0,0,0,1.719-.83,4.347,4.347,0,0,0,.625-2.51ZM145.654,19a3.662,3.662,0,0,1-.273-.986,3.992,3.992,0,0,1-5.371.273A2.906,2.906,0,0,1,139,16.041a3,3,0,0,1,1.255-2.593,6.081,6.081,0,0,1,3.589-.9H145.3v-.693a1.851,1.851,0,0,0-.459-1.313,1.819,1.819,0,0,0-1.4-.493,2.09,2.09,0,0,0-1.328.405,1.254,1.254,0,0,0-.518,1.03h-2.373a2.634,2.634,0,0,1,.576-1.626,3.838,3.838,0,0,1,1.567-1.187,5.506,5.506,0,0,1,2.212-.43,4.434,4.434,0,0,1,2.959.933,3.326,3.326,0,0,1,1.133,2.622v4.766a5.4,5.4,0,0,0,.4,2.275V19Zm-2.607-1.709a2.7,2.7,0,0,0,1.323-.342,2.284,2.284,0,0,0,.933-.918V14.039h-1.279a3.5,3.5,0,0,0-1.982.459,1.487,1.487,0,0,0-.664,1.3,1.387,1.387,0,0,0,.454,1.089A1.758,1.758,0,0,0,143.047,17.291Zm9.59-8.857v11.5a3.476,3.476,0,0,1-.806,2.476,3.088,3.088,0,0,1-2.358.854,4.743,4.743,0,0,1-1.26-.166V21.227a3.656,3.656,0,0,0,.84.088q1.182,0,1.211-1.289V8.434ZM150.059,5.68a1.275,1.275,0,0,1,.347-.915A1.3,1.3,0,0,1,151.4,4.4a1.32,1.32,0,0,1,1,.364,1.265,1.265,0,0,1,.352.915,1.236,1.236,0,0,1-.352.9,1.331,1.331,0,0,1-1,.359,1.314,1.314,0,0,1-.991-.359A1.245,1.245,0,0,1,150.059,5.68Zm4.668,7.939a6.231,6.231,0,0,1,.615-2.8,4.493,4.493,0,0,1,1.729-1.914,4.87,4.87,0,0,1,2.559-.669A4.615,4.615,0,0,1,163.1,9.615a5.416,5.416,0,0,1,1.44,3.652l.01.557a6.286,6.286,0,0,1-.6,2.793,4.439,4.439,0,0,1-1.719,1.9,4.906,4.906,0,0,1-2.583.674,4.584,4.584,0,0,1-3.579-1.489,5.7,5.7,0,0,1-1.343-3.97Zm2.373.205a4.258,4.258,0,0,0,.674,2.554,2.191,2.191,0,0,0,1.875.923,2.167,2.167,0,0,0,1.87-.937,4.7,4.7,0,0,0,.669-2.744,4.2,4.2,0,0,0-.688-2.539,2.321,2.321,0,0,0-3.716-.015A4.614,4.614,0,0,0,157.1,13.824Z" transform="translate(1092.333 698)" fill="#12263f"/>
    <path id="Trazado_923417" data-name="Trazado 923417" d="M0,0V40" transform="translate(800.833 410.5)" fill="none" stroke="#ff7650" stroke-linecap="round" stroke-width="3"/>
    <path id="Trazado_923418" data-name="Trazado 923418" d="M0,0V25" transform="translate(800.833 529.5)" fill="none" stroke="#ff7650" stroke-linecap="round" stroke-width="3"/>
    <path id="Trazado_923419" data-name="Trazado 923419" d="M355,0H0" transform="translate(622.833 555)" fill="none" stroke="#ff7650" stroke-linecap="round" stroke-width="3"/>
    <path id="Trazado_923420" data-name="Trazado 923420" d="M0,0V27" transform="translate(978.333 555.5)" fill="none" stroke="#ff7650" stroke-linecap="round" stroke-width="3"/>
    <path id="Trazado_923426" data-name="Trazado 923426" d="M0,0V27" transform="translate(977.833 632.5)" fill="none" stroke="#ff7650" stroke-linecap="round" stroke-width="3"/>
    <path id="Trazado_923435" data-name="Trazado 923435" d="M0,0V27" transform="translate(1179.833 735)" fill="none" stroke="#ff7650" stroke-linecap="round" stroke-width="3"/>
    <path id="Trazado_923434" data-name="Trazado 923434" d="M22,0H0" transform="translate(1053.333 710.5)" fill="none" stroke="#ff7650" stroke-linecap="round" stroke-width="3"/>
    <path id="Trazado_923421" data-name="Trazado 923421" d="M0,0V27" transform="translate(622.833 555.5)" fill="none" stroke="#ff7650" stroke-linecap="round" stroke-width="3"/>
    <path id="Trazado_923427" data-name="Trazado 923427" d="M0,0V27" transform="translate(622.833 632.5)" fill="none" stroke="#ff7650" stroke-linecap="round" stroke-width="3"/>
  </g>
</svg>
